{"glyphs":{"0":{"ha":463,"x_min":66,"x_max":463,"o":"m 198 529 l 397 529 l 397 463 l 463 463 l 463 132 l 397 132 l 397 66 l 331 66 l 331 397 l 265 397 l 265 463 l 198 463 l 198 529 m 132 66 l 66 66 l 66 397 l 132 397 l 132 463 l 198 463 l 198 132 l 265 132 l 265 66 l 331 66 l 331 0 l 132 0 l 132 66 z "},"1":{"ha":265,"x_min":66,"x_max":265,"o":"m 66 463 l 132 463 l 132 529 l 265 529 l 265 66 l 198 66 l 198 0 l 132 0 l 132 397 l 66 397 l 66 463 z "},"2":{"ha":463,"x_min":66,"x_max":463,"o":"m 132 463 l 198 463 l 198 529 l 331 529 l 331 463 l 397 463 l 397 265 l 331 265 l 331 198 l 265 198 l 265 397 l 132 397 l 132 463 m 66 397 l 132 397 l 132 331 l 66 331 l 66 397 m 66 66 l 132 66 l 132 132 l 198 132 l 198 198 l 265 198 l 265 132 l 463 132 l 463 66 l 397 66 l 397 0 l 66 0 l 66 66 z "},"3":{"ha":397,"x_min":66,"x_max":397,"o":"m 198 198 l 132 198 l 132 265 l 198 265 l 198 397 l 66 397 l 66 463 l 132 463 l 132 529 l 265 529 l 265 463 l 397 463 l 397 397 l 331 397 l 331 331 l 265 331 l 265 265 l 331 265 l 331 198 l 397 198 l 397 0 l 331 0 l 331 -66 l 265 -66 l 265 132 l 198 132 l 198 198 m 66 -66 l 132 -66 l 132 0 l 198 0 l 198 -66 l 265 -66 l 265 -132 l 198 -132 l 198 -198 l 132 -198 l 132 -132 l 66 -132 l 66 -66 z "},"4":{"ha":529,"x_min":66,"x_max":529,"o":"m 198 331 l 265 331 l 265 265 l 198 265 l 198 331 m 66 198 l 132 198 l 132 265 l 198 265 l 198 198 l 331 198 l 331 331 l 265 331 l 265 397 l 331 397 l 331 463 l 397 463 l 397 529 l 463 529 l 463 198 l 529 198 l 529 132 l 463 132 l 463 -132 l 397 -132 l 397 -198 l 331 -198 l 331 66 l 66 66 l 66 198 z "},"5":{"ha":397,"x_min":66,"x_max":397,"o":"m 132 529 l 397 529 l 397 463 l 331 463 l 331 397 l 132 397 l 132 529 m 265 198 l 66 198 l 66 397 l 132 397 l 132 331 l 331 331 l 331 265 l 397 265 l 397 0 l 331 0 l 331 -66 l 265 -66 l 265 198 m 66 66 l 198 66 l 198 -66 l 265 -66 l 265 -132 l 198 -132 l 198 -198 l 132 -198 l 132 -132 l 66 -132 l 66 66 z "},"6":{"ha":397,"x_min":66,"x_max":397,"o":"m 265 595 l 198 595 l 198 661 l 265 661 l 265 728 l 331 728 l 331 661 l 397 661 l 397 529 l 265 529 l 265 595 m 265 331 l 198 331 l 198 132 l 265 132 l 265 331 m 132 66 l 66 66 l 66 529 l 132 529 l 132 595 l 198 595 l 198 463 l 331 463 l 331 397 l 397 397 l 397 132 l 331 132 l 331 66 l 265 66 l 265 0 l 132 0 l 132 66 z "},"7":{"ha":529,"x_min":66,"x_max":529,"o":"m 66 463 l 132 463 l 132 529 l 529 529 l 529 463 l 463 463 l 463 397 l 397 397 l 397 331 l 331 331 l 331 397 l 66 397 l 66 463 m 198 265 l 265 265 l 265 331 l 331 331 l 331 -132 l 265 -132 l 265 -198 l 198 -198 l 198 265 z "},"8":{"ha":463,"x_min":66,"x_max":463,"o":"m 198 529 l 265 529 l 265 463 l 331 463 l 331 595 l 198 595 l 198 529 m 331 265 l 265 265 l 265 331 l 198 331 l 198 132 l 331 132 l 331 265 m 66 331 l 132 331 l 132 463 l 66 463 l 66 595 l 132 595 l 132 661 l 198 661 l 198 728 l 331 728 l 331 661 l 397 661 l 397 595 l 463 595 l 463 463 l 397 463 l 397 331 l 463 331 l 463 132 l 397 132 l 397 66 l 331 66 l 331 0 l 198 0 l 198 66 l 132 66 l 132 132 l 66 132 l 66 331 z "},"9":{"ha":397,"x_min":66,"x_max":397,"o":"m 132 132 l 66 132 l 66 397 l 132 397 l 132 463 l 198 463 l 198 529 l 331 529 l 331 463 l 397 463 l 397 0 l 331 0 l 331 -66 l 265 -66 l 265 132 l 198 132 l 198 66 l 132 66 l 132 132 m 198 -66 l 265 -66 l 265 -132 l 198 -132 l 198 -198 l 132 -198 l 132 -132 l 66 -132 l 66 0 l 198 0 l 198 -66 m 198 198 l 265 198 l 265 397 l 198 397 l 198 198 z "},"A":{"ha":926,"x_min":66,"x_max":926,"o":"m 661 66 l 595 66 l 595 331 l 529 331 l 529 595 l 463 595 l 463 661 l 331 661 l 331 728 l 198 728 l 198 794 l 529 794 l 529 728 l 661 728 l 661 331 l 728 331 l 728 132 l 860 132 l 860 66 l 794 66 l 794 0 l 661 0 l 661 66 m 661 794 l 794 794 l 794 728 l 661 728 l 661 794 m 132 728 l 198 728 l 198 661 l 132 661 l 132 728 m 794 728 l 860 728 l 860 661 l 794 661 l 794 728 m 66 661 l 132 661 l 132 595 l 66 595 l 66 661 m 265 595 l 463 595 l 463 463 l 397 463 l 397 331 l 331 331 l 331 529 l 265 529 l 265 595 m 198 529 l 265 529 l 265 463 l 198 463 l 198 529 m 397 265 l 397 331 l 529 331 l 529 265 l 397 265 m 265 331 l 331 331 l 331 198 l 265 198 l 265 331 m 860 198 l 926 198 l 926 132 l 860 132 l 860 198 m 463 198 l 529 198 l 529 132 l 463 132 l 463 198 m 132 132 l 198 132 l 198 198 l 265 198 l 265 132 l 463 132 l 463 66 l 397 66 l 397 0 l 265 0 l 265 66 l 132 66 l 132 132 m 66 66 l 132 66 l 132 0 l 66 0 l 66 66 z "},"Á":{"ha":926,"x_min":66,"x_max":926,"o":"m 595 1058 l 595 992 l 529 992 l 529 926 l 463 926 l 463 860 l 397 860 l 397 992 l 463 992 l 463 1058 l 595 1058 m 661 66 l 595 66 l 595 331 l 529 331 l 529 595 l 463 595 l 463 661 l 331 661 l 331 728 l 198 728 l 198 794 l 529 794 l 529 728 l 661 728 l 661 331 l 728 331 l 728 132 l 860 132 l 860 66 l 794 66 l 794 0 l 661 0 l 661 66 m 661 794 l 794 794 l 794 728 l 661 728 l 661 794 m 132 728 l 198 728 l 198 661 l 132 661 l 132 728 m 794 728 l 860 728 l 860 661 l 794 661 l 794 728 m 66 661 l 132 661 l 132 595 l 66 595 l 66 661 m 265 595 l 463 595 l 463 463 l 397 463 l 397 331 l 331 331 l 331 529 l 265 529 l 265 595 m 198 529 l 265 529 l 265 463 l 198 463 l 198 529 m 397 265 l 397 331 l 529 331 l 529 265 l 397 265 m 265 331 l 331 331 l 331 198 l 265 198 l 265 331 m 860 198 l 926 198 l 926 132 l 860 132 l 860 198 m 463 198 l 529 198 l 529 132 l 463 132 l 463 198 m 132 132 l 198 132 l 198 198 l 265 198 l 265 132 l 463 132 l 463 66 l 397 66 l 397 0 l 265 0 l 265 66 l 132 66 l 132 132 m 66 66 l 132 66 l 132 0 l 66 0 l 66 66 z "},"Ă":{"ha":926,"x_min":66,"x_max":926,"o":"m 331 1058 l 397 1058 l 397 992 l 595 992 l 595 1058 l 661 1058 l 661 926 l 595 926 l 595 860 l 397 860 l 397 926 l 331 926 l 331 1058 m 661 66 l 595 66 l 595 331 l 529 331 l 529 595 l 463 595 l 463 661 l 331 661 l 331 728 l 198 728 l 198 794 l 529 794 l 529 728 l 661 728 l 661 331 l 728 331 l 728 132 l 860 132 l 860 66 l 794 66 l 794 0 l 661 0 l 661 66 m 661 794 l 794 794 l 794 728 l 661 728 l 661 794 m 132 728 l 198 728 l 198 661 l 132 661 l 132 728 m 794 728 l 860 728 l 860 661 l 794 661 l 794 728 m 66 661 l 132 661 l 132 595 l 66 595 l 66 661 m 265 595 l 463 595 l 463 463 l 397 463 l 397 331 l 331 331 l 331 529 l 265 529 l 265 595 m 198 529 l 265 529 l 265 463 l 198 463 l 198 529 m 397 265 l 397 331 l 529 331 l 529 265 l 397 265 m 265 331 l 331 331 l 331 198 l 265 198 l 265 331 m 132 132 l 198 132 l 198 198 l 265 198 l 265 132 l 463 132 l 463 66 l 397 66 l 397 0 l 265 0 l 265 66 l 132 66 l 132 132 m 860 198 l 926 198 l 926 132 l 860 132 l 860 198 m 463 198 l 529 198 l 529 132 l 463 132 l 463 198 m 66 66 l 132 66 l 132 0 l 66 0 l 66 66 z "},"Â":{"ha":926,"x_min":66,"x_max":926,"o":"m 331 926 l 397 926 l 397 992 l 463 992 l 463 1058 l 529 1058 l 529 992 l 595 992 l 595 926 l 661 926 l 661 860 l 529 860 l 529 926 l 463 926 l 463 860 l 331 860 l 331 926 m 661 66 l 595 66 l 595 331 l 529 331 l 529 595 l 463 595 l 463 661 l 331 661 l 331 728 l 198 728 l 198 794 l 529 794 l 529 728 l 661 728 l 661 331 l 728 331 l 728 132 l 860 132 l 860 66 l 794 66 l 794 0 l 661 0 l 661 66 m 661 794 l 794 794 l 794 728 l 661 728 l 661 794 m 132 728 l 198 728 l 198 661 l 132 661 l 132 728 m 794 728 l 860 728 l 860 661 l 794 661 l 794 728 m 66 661 l 132 661 l 132 595 l 66 595 l 66 661 m 265 595 l 463 595 l 463 463 l 397 463 l 397 331 l 331 331 l 331 529 l 265 529 l 265 595 m 198 529 l 265 529 l 265 463 l 198 463 l 198 529 m 397 265 l 397 331 l 529 331 l 529 265 l 397 265 m 265 331 l 331 331 l 331 198 l 265 198 l 265 331 m 463 198 l 529 198 l 529 132 l 463 132 l 463 198 m 860 198 l 926 198 l 926 132 l 860 132 l 860 198 m 132 132 l 198 132 l 198 198 l 265 198 l 265 132 l 463 132 l 463 66 l 397 66 l 397 0 l 265 0 l 265 66 l 132 66 l 132 132 m 66 66 l 132 66 l 132 0 l 66 0 l 66 66 z "},"Ä":{"ha":926,"x_min":66,"x_max":926,"o":"m 529 992 l 661 992 l 661 860 l 529 860 l 529 992 m 331 992 l 463 992 l 463 860 l 331 860 l 331 992 m 661 66 l 595 66 l 595 331 l 529 331 l 529 595 l 463 595 l 463 661 l 331 661 l 331 728 l 198 728 l 198 794 l 529 794 l 529 728 l 661 728 l 661 331 l 728 331 l 728 132 l 860 132 l 860 66 l 794 66 l 794 0 l 661 0 l 661 66 m 661 794 l 794 794 l 794 728 l 661 728 l 661 794 m 132 728 l 198 728 l 198 661 l 132 661 l 132 728 m 794 728 l 860 728 l 860 661 l 794 661 l 794 728 m 66 661 l 132 661 l 132 595 l 66 595 l 66 661 m 265 595 l 463 595 l 463 463 l 397 463 l 397 331 l 331 331 l 331 529 l 265 529 l 265 595 m 198 529 l 265 529 l 265 463 l 198 463 l 198 529 m 397 265 l 397 331 l 529 331 l 529 265 l 397 265 m 265 331 l 331 331 l 331 198 l 265 198 l 265 331 m 463 198 l 529 198 l 529 132 l 463 132 l 463 198 m 860 198 l 926 198 l 926 132 l 860 132 l 860 198 m 132 132 l 198 132 l 198 198 l 265 198 l 265 132 l 463 132 l 463 66 l 397 66 l 397 0 l 265 0 l 265 66 l 132 66 l 132 132 m 66 66 l 132 66 l 132 0 l 66 0 l 66 66 z "},"À":{"ha":926,"x_min":66,"x_max":926,"o":"m 397 1058 l 529 1058 l 529 992 l 595 992 l 595 860 l 529 860 l 529 926 l 463 926 l 463 992 l 397 992 l 397 1058 m 661 66 l 595 66 l 595 331 l 529 331 l 529 595 l 463 595 l 463 661 l 331 661 l 331 728 l 198 728 l 198 794 l 529 794 l 529 728 l 661 728 l 661 331 l 728 331 l 728 132 l 860 132 l 860 66 l 794 66 l 794 0 l 661 0 l 661 66 m 661 794 l 794 794 l 794 728 l 661 728 l 661 794 m 132 728 l 198 728 l 198 661 l 132 661 l 132 728 m 794 728 l 860 728 l 860 661 l 794 661 l 794 728 m 66 661 l 132 661 l 132 595 l 66 595 l 66 661 m 265 595 l 463 595 l 463 463 l 397 463 l 397 331 l 331 331 l 331 529 l 265 529 l 265 595 m 198 529 l 265 529 l 265 463 l 198 463 l 198 529 m 397 265 l 397 331 l 529 331 l 529 265 l 397 265 m 265 331 l 331 331 l 331 198 l 265 198 l 265 331 m 860 198 l 926 198 l 926 132 l 860 132 l 860 198 m 463 198 l 529 198 l 529 132 l 463 132 l 463 198 m 132 132 l 198 132 l 198 198 l 265 198 l 265 132 l 463 132 l 463 66 l 397 66 l 397 0 l 265 0 l 265 66 l 132 66 l 132 132 m 66 66 l 132 66 l 132 0 l 66 0 l 66 66 z "},"Ā":{"ha":926,"x_min":66,"x_max":926,"o":"m 331 992 l 595 992 l 595 860 l 331 860 l 331 992 m 661 66 l 595 66 l 595 331 l 529 331 l 529 595 l 463 595 l 463 661 l 331 661 l 331 728 l 198 728 l 198 794 l 529 794 l 529 728 l 661 728 l 661 331 l 728 331 l 728 132 l 860 132 l 860 66 l 794 66 l 794 0 l 661 0 l 661 66 m 661 794 l 794 794 l 794 728 l 661 728 l 661 794 m 132 728 l 198 728 l 198 661 l 132 661 l 132 728 m 794 728 l 860 728 l 860 661 l 794 661 l 794 728 m 66 661 l 132 661 l 132 595 l 66 595 l 66 661 m 265 595 l 463 595 l 463 463 l 397 463 l 397 331 l 331 331 l 331 529 l 265 529 l 265 595 m 198 529 l 265 529 l 265 463 l 198 463 l 198 529 m 397 265 l 397 331 l 529 331 l 529 265 l 397 265 m 265 331 l 331 331 l 331 198 l 265 198 l 265 331 m 463 198 l 529 198 l 529 132 l 463 132 l 463 198 m 860 198 l 926 198 l 926 132 l 860 132 l 860 198 m 132 132 l 198 132 l 198 198 l 265 198 l 265 132 l 463 132 l 463 66 l 397 66 l 397 0 l 265 0 l 265 66 l 132 66 l 132 132 m 66 66 l 132 66 l 132 0 l 66 0 l 66 66 z "},"Ą":{"ha":926,"x_min":66,"x_max":926,"o":"m 661 66 l 595 66 l 595 331 l 529 331 l 529 595 l 463 595 l 463 661 l 331 661 l 331 728 l 198 728 l 198 794 l 529 794 l 529 728 l 661 728 l 661 331 l 728 331 l 728 132 l 860 132 l 860 66 l 794 66 l 794 0 l 728 0 l 728 -66 l 661 -66 l 661 66 m 661 794 l 794 794 l 794 728 l 661 728 l 661 794 m 132 728 l 198 728 l 198 661 l 132 661 l 132 728 m 794 728 l 860 728 l 860 661 l 794 661 l 794 728 m 66 661 l 132 661 l 132 595 l 66 595 l 66 661 m 265 595 l 463 595 l 463 463 l 397 463 l 397 331 l 331 331 l 331 529 l 265 529 l 265 595 m 198 529 l 265 529 l 265 463 l 198 463 l 198 529 m 397 265 l 397 331 l 529 331 l 529 265 l 397 265 m 265 331 l 331 331 l 331 198 l 265 198 l 265 331 m 860 198 l 926 198 l 926 132 l 860 132 l 860 198 m 463 198 l 529 198 l 529 132 l 463 132 l 463 198 m 132 132 l 198 132 l 198 198 l 265 198 l 265 132 l 463 132 l 463 66 l 397 66 l 397 0 l 265 0 l 265 66 l 132 66 l 132 132 m 66 66 l 132 66 l 132 0 l 66 0 l 66 66 m 595 -66 l 661 -66 l 661 -132 l 728 -132 l 728 -198 l 595 -198 l 595 -66 z "},"Å":{"ha":926,"x_min":66,"x_max":926,"o":"m 529 926 l 529 992 l 463 992 l 463 926 l 529 926 m 661 66 l 595 66 l 595 331 l 529 331 l 529 595 l 463 595 l 463 661 l 331 661 l 331 728 l 198 728 l 198 794 l 529 794 l 529 728 l 661 728 l 661 331 l 728 331 l 728 132 l 860 132 l 860 66 l 794 66 l 794 0 l 661 0 l 661 66 m 661 794 l 794 794 l 794 728 l 661 728 l 661 794 m 132 728 l 198 728 l 198 661 l 132 661 l 132 728 m 794 728 l 860 728 l 860 661 l 794 661 l 794 728 m 66 661 l 132 661 l 132 595 l 66 595 l 66 661 m 265 595 l 463 595 l 463 463 l 397 463 l 397 331 l 331 331 l 331 529 l 265 529 l 265 595 m 198 529 l 265 529 l 265 463 l 198 463 l 198 529 m 397 265 l 397 331 l 529 331 l 529 265 l 397 265 m 265 331 l 331 331 l 331 198 l 265 198 l 265 331 m 463 198 l 529 198 l 529 132 l 463 132 l 463 198 m 860 198 l 926 198 l 926 132 l 860 132 l 860 198 m 132 132 l 198 132 l 198 198 l 265 198 l 265 132 l 463 132 l 463 66 l 397 66 l 397 0 l 265 0 l 265 66 l 132 66 l 132 132 m 66 66 l 132 66 l 132 0 l 66 0 l 66 66 m 397 1058 l 595 1058 l 595 860 l 397 860 l 397 1058 z "},"Ã":{"ha":926,"x_min":66,"x_max":926,"o":"m 331 992 l 397 992 l 397 1058 l 463 1058 l 463 992 l 529 992 l 529 1058 l 661 1058 l 661 926 l 595 926 l 595 860 l 529 860 l 529 926 l 463 926 l 463 860 l 331 860 l 331 992 m 661 66 l 595 66 l 595 331 l 529 331 l 529 595 l 463 595 l 463 661 l 331 661 l 331 728 l 198 728 l 198 794 l 529 794 l 529 728 l 661 728 l 661 331 l 728 331 l 728 132 l 860 132 l 860 66 l 794 66 l 794 0 l 661 0 l 661 66 m 661 794 l 794 794 l 794 728 l 661 728 l 661 794 m 132 728 l 198 728 l 198 661 l 132 661 l 132 728 m 794 728 l 860 728 l 860 661 l 794 661 l 794 728 m 66 661 l 132 661 l 132 595 l 66 595 l 66 661 m 265 595 l 463 595 l 463 463 l 397 463 l 397 331 l 331 331 l 331 529 l 265 529 l 265 595 m 198 529 l 265 529 l 265 463 l 198 463 l 198 529 m 397 265 l 397 331 l 529 331 l 529 265 l 397 265 m 265 331 l 331 331 l 331 198 l 265 198 l 265 331 m 132 132 l 198 132 l 198 198 l 265 198 l 265 132 l 463 132 l 463 66 l 397 66 l 397 0 l 265 0 l 265 66 l 132 66 l 132 132 m 860 198 l 926 198 l 926 132 l 860 132 l 860 198 m 463 198 l 529 198 l 529 132 l 463 132 l 463 198 m 66 66 l 132 66 l 132 0 l 66 0 l 66 66 z "},"Æ":{"ha":1257,"x_min":66,"x_max":1257,"o":"m 992 794 l 1124 794 l 1124 728 l 1190 728 l 1190 661 l 1058 661 l 1058 728 l 992 728 l 992 794 m 529 265 l 397 265 l 397 331 l 529 331 l 529 595 l 463 595 l 463 661 l 331 661 l 331 728 l 198 728 l 198 794 l 529 794 l 529 728 l 661 728 l 661 794 l 794 794 l 794 728 l 728 728 l 728 661 l 661 661 l 661 198 l 728 198 l 728 132 l 794 132 l 794 66 l 1058 66 l 1058 0 l 661 0 l 661 66 l 595 66 l 595 132 l 529 132 l 529 265 m 1190 794 l 1257 794 l 1257 728 l 1190 728 l 1190 794 m 132 728 l 198 728 l 198 661 l 132 661 l 132 728 m 926 728 l 992 728 l 992 661 l 926 661 l 926 728 m 794 728 l 860 728 l 860 661 l 794 661 l 794 728 m 794 198 l 860 198 l 860 331 l 728 331 l 728 397 l 860 397 l 860 463 l 728 463 l 728 529 l 860 529 l 860 661 l 926 661 l 926 595 l 992 595 l 992 198 l 926 198 l 926 132 l 794 132 l 794 198 m 66 661 l 132 661 l 132 595 l 66 595 l 66 661 m 265 595 l 463 595 l 463 463 l 397 463 l 397 331 l 331 331 l 331 529 l 265 529 l 265 595 m 1058 595 l 1124 595 l 1124 331 l 1058 331 l 1058 595 m 198 529 l 265 529 l 265 463 l 198 463 l 198 529 m 265 331 l 331 331 l 331 198 l 265 198 l 265 331 m 132 132 l 198 132 l 198 198 l 265 198 l 265 132 l 397 132 l 397 66 l 331 66 l 331 0 l 198 0 l 198 66 l 132 66 l 132 132 m 397 198 l 463 198 l 463 132 l 397 132 l 397 198 m 1124 198 l 1190 198 l 1190 132 l 1124 132 l 1124 198 m 1058 132 l 1124 132 l 1124 66 l 1058 66 l 1058 132 m 66 66 l 132 66 l 132 0 l 66 0 l 66 66 z "},"B":{"ha":926,"x_min":66,"x_max":926,"o":"m 331 728 l 132 728 l 132 794 l 331 794 l 331 728 m 397 794 l 463 794 l 463 728 l 397 728 l 397 794 m 595 794 l 860 794 l 860 728 l 926 728 l 926 529 l 860 529 l 860 463 l 794 463 l 794 728 l 595 728 l 595 794 m 66 728 l 132 728 l 132 661 l 66 661 l 66 728 m 463 728 l 595 728 l 595 463 l 794 463 l 794 397 l 595 397 l 595 265 l 529 265 l 529 198 l 463 198 l 463 728 m 198 397 l 331 397 l 331 463 l 198 463 l 198 529 l 331 529 l 331 728 l 397 728 l 397 198 l 331 198 l 331 331 l 198 331 l 198 397 m 794 397 l 926 397 l 926 132 l 794 132 l 794 397 m 265 132 l 794 132 l 794 66 l 661 66 l 661 0 l 529 0 l 529 66 l 265 66 l 265 132 m 198 66 l 265 66 l 265 0 l 198 0 l 198 66 z "},"C":{"ha":794,"x_min":66,"x_max":794,"o":"m 728 794 l 794 794 l 794 728 l 728 728 l 728 794 m 595 728 l 529 728 l 529 794 l 661 794 l 661 728 l 728 728 l 728 661 l 595 661 l 595 728 m 265 794 l 331 794 l 331 728 l 265 728 l 265 794 m 331 198 l 397 198 l 397 331 l 265 331 l 265 397 l 397 397 l 397 463 l 265 463 l 265 529 l 397 529 l 397 661 l 463 661 l 463 728 l 529 728 l 529 198 l 463 198 l 463 132 l 331 132 l 331 198 m 198 728 l 265 728 l 265 661 l 198 661 l 198 728 m 595 595 l 661 595 l 661 198 l 595 198 l 595 595 m 728 198 l 794 198 l 794 132 l 728 132 l 728 198 m 132 198 l 66 198 l 66 529 l 132 529 l 132 661 l 198 661 l 198 198 l 265 198 l 265 132 l 331 132 l 331 66 l 595 66 l 595 132 l 728 132 l 728 66 l 661 66 l 661 0 l 265 0 l 265 66 l 132 66 l 132 198 z "},"Ć":{"ha":794,"x_min":66,"x_max":794,"o":"m 595 1058 l 595 992 l 529 992 l 529 926 l 463 926 l 463 860 l 397 860 l 397 992 l 463 992 l 463 1058 l 595 1058 m 265 794 l 331 794 l 331 728 l 265 728 l 265 794 m 728 794 l 794 794 l 794 728 l 728 728 l 728 794 m 595 728 l 529 728 l 529 794 l 661 794 l 661 728 l 728 728 l 728 661 l 595 661 l 595 728 m 198 728 l 265 728 l 265 661 l 198 661 l 198 728 m 331 198 l 397 198 l 397 331 l 265 331 l 265 397 l 397 397 l 397 463 l 265 463 l 265 529 l 397 529 l 397 661 l 463 661 l 463 728 l 529 728 l 529 198 l 463 198 l 463 132 l 331 132 l 331 198 m 595 595 l 661 595 l 661 198 l 595 198 l 595 595 m 728 198 l 794 198 l 794 132 l 728 132 l 728 198 m 132 198 l 66 198 l 66 529 l 132 529 l 132 661 l 198 661 l 198 198 l 265 198 l 265 132 l 331 132 l 331 66 l 595 66 l 595 132 l 728 132 l 728 66 l 661 66 l 661 0 l 265 0 l 265 66 l 132 66 l 132 198 z "},"Č":{"ha":794,"x_min":66,"x_max":794,"o":"m 463 860 l 463 926 l 397 926 l 397 992 l 331 992 l 331 1058 l 463 1058 l 463 992 l 529 992 l 529 1058 l 661 1058 l 661 992 l 595 992 l 595 926 l 529 926 l 529 860 l 463 860 m 728 794 l 794 794 l 794 728 l 728 728 l 728 794 m 595 728 l 529 728 l 529 794 l 661 794 l 661 728 l 728 728 l 728 661 l 595 661 l 595 728 m 265 794 l 331 794 l 331 728 l 265 728 l 265 794 m 331 198 l 397 198 l 397 331 l 265 331 l 265 397 l 397 397 l 397 463 l 265 463 l 265 529 l 397 529 l 397 661 l 463 661 l 463 728 l 529 728 l 529 198 l 463 198 l 463 132 l 331 132 l 331 198 m 198 728 l 265 728 l 265 661 l 198 661 l 198 728 m 595 595 l 661 595 l 661 198 l 595 198 l 595 595 m 728 198 l 794 198 l 794 132 l 728 132 l 728 198 m 132 198 l 66 198 l 66 529 l 132 529 l 132 661 l 198 661 l 198 198 l 265 198 l 265 132 l 331 132 l 331 66 l 595 66 l 595 132 l 728 132 l 728 66 l 661 66 l 661 0 l 265 0 l 265 66 l 132 66 l 132 198 z "},"Ç":{"ha":794,"x_min":66,"x_max":794,"o":"m 265 794 l 331 794 l 331 728 l 265 728 l 265 794 m 728 794 l 794 794 l 794 728 l 728 728 l 728 794 m 595 728 l 529 728 l 529 794 l 661 794 l 661 728 l 728 728 l 728 661 l 595 661 l 595 728 m 198 728 l 265 728 l 265 661 l 198 661 l 198 728 m 331 198 l 397 198 l 397 331 l 265 331 l 265 397 l 397 397 l 397 463 l 265 463 l 265 529 l 397 529 l 397 661 l 463 661 l 463 728 l 529 728 l 529 198 l 463 198 l 463 132 l 331 132 l 331 198 m 132 198 l 66 198 l 66 529 l 132 529 l 132 661 l 198 661 l 198 198 l 265 198 l 265 132 l 331 132 l 331 66 l 595 66 l 595 132 l 728 132 l 728 66 l 661 66 l 661 0 l 529 0 l 529 -132 l 463 -132 l 463 -66 l 397 -66 l 397 0 l 265 0 l 265 66 l 132 66 l 132 198 m 595 595 l 661 595 l 661 198 l 595 198 l 595 595 m 728 198 l 794 198 l 794 132 l 728 132 l 728 198 m 397 -132 l 463 -132 l 463 -198 l 397 -198 l 397 -132 z "},"Ċ":{"ha":794,"x_min":66,"x_max":794,"o":"m 397 992 l 529 992 l 529 860 l 397 860 l 397 992 m 265 794 l 331 794 l 331 728 l 265 728 l 265 794 m 728 794 l 794 794 l 794 728 l 728 728 l 728 794 m 595 728 l 529 728 l 529 794 l 661 794 l 661 728 l 728 728 l 728 661 l 595 661 l 595 728 m 198 728 l 265 728 l 265 661 l 198 661 l 198 728 m 331 198 l 397 198 l 397 331 l 265 331 l 265 397 l 397 397 l 397 463 l 265 463 l 265 529 l 397 529 l 397 661 l 463 661 l 463 728 l 529 728 l 529 198 l 463 198 l 463 132 l 331 132 l 331 198 m 595 595 l 661 595 l 661 198 l 595 198 l 595 595 m 728 198 l 794 198 l 794 132 l 728 132 l 728 198 m 132 198 l 66 198 l 66 529 l 132 529 l 132 661 l 198 661 l 198 198 l 265 198 l 265 132 l 331 132 l 331 66 l 595 66 l 595 132 l 728 132 l 728 66 l 661 66 l 661 0 l 265 0 l 265 66 l 132 66 l 132 198 z "},"D":{"ha":728,"x_min":66,"x_max":728,"o":"m 198 728 l 66 728 l 66 794 l 661 794 l 661 728 l 728 728 l 728 198 l 661 198 l 661 132 l 595 132 l 595 661 l 463 661 l 463 198 l 397 198 l 397 661 l 198 661 l 198 728 m 198 331 l 66 331 l 66 397 l 198 397 l 198 463 l 66 463 l 66 529 l 198 529 l 198 595 l 331 595 l 331 198 l 198 198 l 198 331 m 132 132 l 595 132 l 595 66 l 529 66 l 529 0 l 265 0 l 265 66 l 132 66 l 132 132 m 66 66 l 132 66 l 132 0 l 66 0 l 66 66 z "},"Ð":{"ha":661,"x_min":0,"x_max":661,"o":"m 0 463 l 132 463 l 132 595 l 265 595 l 265 463 l 331 463 l 331 661 l 132 661 l 132 728 l 0 728 l 0 794 l 595 794 l 595 728 l 661 728 l 661 198 l 595 198 l 595 132 l 529 132 l 529 661 l 397 661 l 397 463 l 463 463 l 463 397 l 397 397 l 397 198 l 331 198 l 331 397 l 265 397 l 265 198 l 132 198 l 132 397 l 0 397 l 0 463 m 66 132 l 529 132 l 529 66 l 463 66 l 463 0 l 198 0 l 198 66 l 66 66 l 66 132 m 0 66 l 66 66 l 66 0 l 0 0 l 0 66 z "},"Ď":{"ha":728,"x_min":66,"x_max":728,"o":"m 397 860 l 397 926 l 331 926 l 331 992 l 265 992 l 265 1058 l 397 1058 l 397 992 l 463 992 l 463 1058 l 595 1058 l 595 992 l 529 992 l 529 926 l 463 926 l 463 860 l 397 860 m 198 728 l 66 728 l 66 794 l 661 794 l 661 728 l 728 728 l 728 198 l 661 198 l 661 132 l 595 132 l 595 661 l 463 661 l 463 198 l 397 198 l 397 661 l 198 661 l 198 728 m 198 331 l 66 331 l 66 397 l 198 397 l 198 463 l 66 463 l 66 529 l 198 529 l 198 595 l 331 595 l 331 198 l 198 198 l 198 331 m 132 132 l 595 132 l 595 66 l 529 66 l 529 0 l 265 0 l 265 66 l 132 66 l 132 132 m 66 66 l 132 66 l 132 0 l 66 0 l 66 66 z "},"Đ":{"ha":661,"x_min":0,"x_max":661,"o":"m 0 463 l 132 463 l 132 595 l 265 595 l 265 463 l 331 463 l 331 661 l 132 661 l 132 728 l 0 728 l 0 794 l 595 794 l 595 728 l 661 728 l 661 198 l 595 198 l 595 132 l 529 132 l 529 661 l 397 661 l 397 463 l 463 463 l 463 397 l 397 397 l 397 198 l 331 198 l 331 397 l 265 397 l 265 198 l 132 198 l 132 397 l 0 397 l 0 463 m 66 132 l 529 132 l 529 66 l 463 66 l 463 0 l 198 0 l 198 66 l 66 66 l 66 132 m 0 66 l 66 66 l 66 0 l 0 0 l 0 66 z "},"E":{"ha":794,"x_min":66,"x_max":794,"o":"m 595 728 l 529 728 l 529 794 l 661 794 l 661 728 l 728 728 l 728 661 l 595 661 l 595 728 m 728 794 l 794 794 l 794 728 l 728 728 l 728 794 m 265 794 l 331 794 l 331 728 l 265 728 l 265 794 m 463 728 l 529 728 l 529 661 l 463 661 l 463 728 m 198 728 l 265 728 l 265 661 l 198 661 l 198 728 m 331 198 l 397 198 l 397 331 l 265 331 l 265 397 l 397 397 l 397 463 l 265 463 l 265 529 l 397 529 l 397 661 l 463 661 l 463 595 l 529 595 l 529 198 l 463 198 l 463 132 l 331 132 l 331 198 m 132 198 l 66 198 l 66 529 l 132 529 l 132 661 l 198 661 l 198 198 l 265 198 l 265 132 l 331 132 l 331 66 l 595 66 l 595 0 l 265 0 l 265 66 l 132 66 l 132 198 m 595 595 l 661 595 l 661 331 l 595 331 l 595 595 m 661 198 l 728 198 l 728 132 l 661 132 l 661 198 m 595 132 l 661 132 l 661 66 l 595 66 l 595 132 z "},"É":{"ha":794,"x_min":66,"x_max":794,"o":"m 529 1058 l 529 992 l 463 992 l 463 926 l 397 926 l 397 860 l 331 860 l 331 992 l 397 992 l 397 1058 l 529 1058 m 728 794 l 794 794 l 794 728 l 728 728 l 728 794 m 265 794 l 331 794 l 331 728 l 265 728 l 265 794 m 595 728 l 529 728 l 529 794 l 661 794 l 661 728 l 728 728 l 728 661 l 595 661 l 595 728 m 198 728 l 265 728 l 265 661 l 198 661 l 198 728 m 463 728 l 529 728 l 529 661 l 463 661 l 463 728 m 132 198 l 66 198 l 66 529 l 132 529 l 132 661 l 198 661 l 198 198 l 265 198 l 265 132 l 331 132 l 331 66 l 595 66 l 595 0 l 265 0 l 265 66 l 132 66 l 132 198 m 331 198 l 397 198 l 397 331 l 265 331 l 265 397 l 397 397 l 397 463 l 265 463 l 265 529 l 397 529 l 397 661 l 463 661 l 463 595 l 529 595 l 529 198 l 463 198 l 463 132 l 331 132 l 331 198 m 595 595 l 661 595 l 661 331 l 595 331 l 595 595 m 661 198 l 728 198 l 728 132 l 661 132 l 661 198 m 595 132 l 661 132 l 661 66 l 595 66 l 595 132 z "},"Ě":{"ha":794,"x_min":66,"x_max":794,"o":"m 397 860 l 397 926 l 331 926 l 331 992 l 265 992 l 265 1058 l 397 1058 l 397 992 l 463 992 l 463 1058 l 595 1058 l 595 992 l 529 992 l 529 926 l 463 926 l 463 860 l 397 860 m 728 794 l 794 794 l 794 728 l 728 728 l 728 794 m 595 728 l 529 728 l 529 794 l 661 794 l 661 728 l 728 728 l 728 661 l 595 661 l 595 728 m 265 794 l 331 794 l 331 728 l 265 728 l 265 794 m 463 728 l 529 728 l 529 661 l 463 661 l 463 728 m 198 728 l 265 728 l 265 661 l 198 661 l 198 728 m 331 198 l 397 198 l 397 331 l 265 331 l 265 397 l 397 397 l 397 463 l 265 463 l 265 529 l 397 529 l 397 661 l 463 661 l 463 595 l 529 595 l 529 198 l 463 198 l 463 132 l 331 132 l 331 198 m 132 198 l 66 198 l 66 529 l 132 529 l 132 661 l 198 661 l 198 198 l 265 198 l 265 132 l 331 132 l 331 66 l 595 66 l 595 0 l 265 0 l 265 66 l 132 66 l 132 198 m 595 595 l 661 595 l 661 331 l 595 331 l 595 595 m 661 198 l 728 198 l 728 132 l 661 132 l 661 198 m 595 132 l 661 132 l 661 66 l 595 66 l 595 132 z "},"Ê":{"ha":794,"x_min":66,"x_max":794,"o":"m 265 926 l 331 926 l 331 992 l 397 992 l 397 1058 l 463 1058 l 463 992 l 529 992 l 529 926 l 595 926 l 595 860 l 463 860 l 463 926 l 397 926 l 397 860 l 265 860 l 265 926 m 728 794 l 794 794 l 794 728 l 728 728 l 728 794 m 595 728 l 529 728 l 529 794 l 661 794 l 661 728 l 728 728 l 728 661 l 595 661 l 595 728 m 265 794 l 331 794 l 331 728 l 265 728 l 265 794 m 463 728 l 529 728 l 529 661 l 463 661 l 463 728 m 198 728 l 265 728 l 265 661 l 198 661 l 198 728 m 331 198 l 397 198 l 397 331 l 265 331 l 265 397 l 397 397 l 397 463 l 265 463 l 265 529 l 397 529 l 397 661 l 463 661 l 463 595 l 529 595 l 529 198 l 463 198 l 463 132 l 331 132 l 331 198 m 132 198 l 66 198 l 66 529 l 132 529 l 132 661 l 198 661 l 198 198 l 265 198 l 265 132 l 331 132 l 331 66 l 595 66 l 595 0 l 265 0 l 265 66 l 132 66 l 132 198 m 595 595 l 661 595 l 661 331 l 595 331 l 595 595 m 661 198 l 728 198 l 728 132 l 661 132 l 661 198 m 595 132 l 661 132 l 661 66 l 595 66 l 595 132 z "},"Ë":{"ha":794,"x_min":66,"x_max":794,"o":"m 463 992 l 595 992 l 595 860 l 463 860 l 463 992 m 265 992 l 397 992 l 397 860 l 265 860 l 265 992 m 728 794 l 794 794 l 794 728 l 728 728 l 728 794 m 595 728 l 529 728 l 529 794 l 661 794 l 661 728 l 728 728 l 728 661 l 595 661 l 595 728 m 265 794 l 331 794 l 331 728 l 265 728 l 265 794 m 463 728 l 529 728 l 529 661 l 463 661 l 463 728 m 198 728 l 265 728 l 265 661 l 198 661 l 198 728 m 331 198 l 397 198 l 397 331 l 265 331 l 265 397 l 397 397 l 397 463 l 265 463 l 265 529 l 397 529 l 397 661 l 463 661 l 463 595 l 529 595 l 529 198 l 463 198 l 463 132 l 331 132 l 331 198 m 132 198 l 66 198 l 66 529 l 132 529 l 132 661 l 198 661 l 198 198 l 265 198 l 265 132 l 331 132 l 331 66 l 595 66 l 595 0 l 265 0 l 265 66 l 132 66 l 132 198 m 595 595 l 661 595 l 661 331 l 595 331 l 595 595 m 661 198 l 728 198 l 728 132 l 661 132 l 661 198 m 595 132 l 661 132 l 661 66 l 595 66 l 595 132 z "},"Ė":{"ha":794,"x_min":66,"x_max":794,"o":"m 331 992 l 463 992 l 463 860 l 331 860 l 331 992 m 728 794 l 794 794 l 794 728 l 728 728 l 728 794 m 595 728 l 529 728 l 529 794 l 661 794 l 661 728 l 728 728 l 728 661 l 595 661 l 595 728 m 265 794 l 331 794 l 331 728 l 265 728 l 265 794 m 198 728 l 265 728 l 265 661 l 198 661 l 198 728 m 463 728 l 529 728 l 529 661 l 463 661 l 463 728 m 132 198 l 66 198 l 66 529 l 132 529 l 132 661 l 198 661 l 198 198 l 265 198 l 265 132 l 331 132 l 331 66 l 595 66 l 595 0 l 265 0 l 265 66 l 132 66 l 132 198 m 331 198 l 397 198 l 397 331 l 265 331 l 265 397 l 397 397 l 397 463 l 265 463 l 265 529 l 397 529 l 397 661 l 463 661 l 463 595 l 529 595 l 529 198 l 463 198 l 463 132 l 331 132 l 331 198 m 595 595 l 661 595 l 661 331 l 595 331 l 595 595 m 661 198 l 728 198 l 728 132 l 661 132 l 661 198 m 595 132 l 661 132 l 661 66 l 595 66 l 595 132 z "},"È":{"ha":794,"x_min":66,"x_max":794,"o":"m 331 1058 l 463 1058 l 463 992 l 529 992 l 529 860 l 463 860 l 463 926 l 397 926 l 397 992 l 331 992 l 331 1058 m 728 794 l 794 794 l 794 728 l 728 728 l 728 794 m 265 794 l 331 794 l 331 728 l 265 728 l 265 794 m 595 728 l 529 728 l 529 794 l 661 794 l 661 728 l 728 728 l 728 661 l 595 661 l 595 728 m 198 728 l 265 728 l 265 661 l 198 661 l 198 728 m 463 728 l 529 728 l 529 661 l 463 661 l 463 728 m 132 198 l 66 198 l 66 529 l 132 529 l 132 661 l 198 661 l 198 198 l 265 198 l 265 132 l 331 132 l 331 66 l 595 66 l 595 0 l 265 0 l 265 66 l 132 66 l 132 198 m 331 198 l 397 198 l 397 331 l 265 331 l 265 397 l 397 397 l 397 463 l 265 463 l 265 529 l 397 529 l 397 661 l 463 661 l 463 595 l 529 595 l 529 198 l 463 198 l 463 132 l 331 132 l 331 198 m 595 595 l 661 595 l 661 331 l 595 331 l 595 595 m 661 198 l 728 198 l 728 132 l 661 132 l 661 198 m 595 132 l 661 132 l 661 66 l 595 66 l 595 132 z "},"Ē":{"ha":794,"x_min":66,"x_max":794,"o":"m 265 992 l 529 992 l 529 860 l 265 860 l 265 992 m 728 794 l 794 794 l 794 728 l 728 728 l 728 794 m 595 728 l 529 728 l 529 794 l 661 794 l 661 728 l 728 728 l 728 661 l 595 661 l 595 728 m 265 794 l 331 794 l 331 728 l 265 728 l 265 794 m 463 728 l 529 728 l 529 661 l 463 661 l 463 728 m 198 728 l 265 728 l 265 661 l 198 661 l 198 728 m 331 198 l 397 198 l 397 331 l 265 331 l 265 397 l 397 397 l 397 463 l 265 463 l 265 529 l 397 529 l 397 661 l 463 661 l 463 595 l 529 595 l 529 198 l 463 198 l 463 132 l 331 132 l 331 198 m 132 198 l 66 198 l 66 529 l 132 529 l 132 661 l 198 661 l 198 198 l 265 198 l 265 132 l 331 132 l 331 66 l 595 66 l 595 0 l 265 0 l 265 66 l 132 66 l 132 198 m 595 595 l 661 595 l 661 331 l 595 331 l 595 595 m 661 198 l 728 198 l 728 132 l 661 132 l 661 198 m 595 132 l 661 132 l 661 66 l 595 66 l 595 132 z "},"Ę":{"ha":794,"x_min":66,"x_max":794,"o":"m 728 794 l 794 794 l 794 728 l 728 728 l 728 794 m 265 794 l 331 794 l 331 728 l 265 728 l 265 794 m 595 728 l 529 728 l 529 794 l 661 794 l 661 728 l 728 728 l 728 661 l 595 661 l 595 728 m 463 728 l 529 728 l 529 661 l 463 661 l 463 728 m 198 728 l 265 728 l 265 661 l 198 661 l 198 728 m 331 198 l 397 198 l 397 331 l 265 331 l 265 397 l 397 397 l 397 463 l 265 463 l 265 529 l 397 529 l 397 661 l 463 661 l 463 595 l 529 595 l 529 198 l 463 198 l 463 132 l 331 132 l 331 198 m 132 198 l 66 198 l 66 529 l 132 529 l 132 661 l 198 661 l 198 198 l 265 198 l 265 132 l 331 132 l 331 66 l 595 66 l 595 0 l 463 0 l 463 -66 l 397 -66 l 397 0 l 265 0 l 265 66 l 132 66 l 132 198 m 595 595 l 661 595 l 661 331 l 595 331 l 595 595 m 661 198 l 728 198 l 728 132 l 661 132 l 661 198 m 595 132 l 661 132 l 661 66 l 595 66 l 595 132 m 331 -66 l 397 -66 l 397 -132 l 463 -132 l 463 -198 l 331 -198 l 331 -66 z "},"F":{"ha":926,"x_min":66,"x_max":926,"o":"m 661 463 l 794 463 l 794 397 l 661 397 l 661 132 l 595 132 l 595 66 l 529 66 l 529 661 l 595 661 l 595 728 l 661 728 l 661 794 l 926 794 l 926 728 l 860 728 l 860 661 l 661 661 l 661 463 m 198 794 l 331 794 l 331 728 l 397 728 l 397 661 l 265 661 l 265 728 l 198 728 l 198 794 m 397 794 l 463 794 l 463 728 l 397 728 l 397 794 m 463 728 l 529 728 l 529 661 l 463 661 l 463 728 m 132 728 l 198 728 l 198 661 l 132 661 l 132 728 m 132 132 l 397 132 l 397 397 l 265 397 l 265 463 l 397 463 l 397 661 l 463 661 l 463 66 l 529 66 l 529 0 l 265 0 l 265 66 l 132 66 l 132 132 m 198 397 l 265 397 l 265 331 l 198 331 l 198 397 m 66 66 l 132 66 l 132 0 l 66 0 l 66 66 z "},"G":{"ha":860,"x_min":66,"x_max":860,"o":"m 728 794 l 794 794 l 794 728 l 728 728 l 728 794 m 265 794 l 463 794 l 463 728 l 265 728 l 265 794 m 198 728 l 265 728 l 265 661 l 198 661 l 198 728 m 265 66 l 132 66 l 132 198 l 66 198 l 66 595 l 132 595 l 132 661 l 198 661 l 198 198 l 265 198 l 265 132 l 331 132 l 331 66 l 661 66 l 661 0 l 265 0 l 265 66 m 661 595 l 728 595 l 728 529 l 661 529 l 661 595 m 265 397 l 397 397 l 397 463 l 265 463 l 265 529 l 397 529 l 397 661 l 463 661 l 463 728 l 529 728 l 529 794 l 661 794 l 661 728 l 728 728 l 728 661 l 529 661 l 529 463 l 595 463 l 595 529 l 661 529 l 661 397 l 529 397 l 529 198 l 397 198 l 397 331 l 265 331 l 265 397 m 728 529 l 794 529 l 794 463 l 860 463 l 860 198 l 794 198 l 794 132 l 728 132 l 728 529 m 595 265 l 661 265 l 661 132 l 595 132 l 595 265 m 661 132 l 728 132 l 728 66 l 661 66 l 661 132 z "},"Ğ":{"ha":860,"x_min":66,"x_max":860,"o":"m 331 1058 l 397 1058 l 397 992 l 595 992 l 595 1058 l 661 1058 l 661 926 l 595 926 l 595 860 l 397 860 l 397 926 l 331 926 l 331 1058 m 265 794 l 463 794 l 463 728 l 265 728 l 265 794 m 265 397 l 397 397 l 397 463 l 265 463 l 265 529 l 397 529 l 397 661 l 463 661 l 463 728 l 529 728 l 529 794 l 661 794 l 661 728 l 728 728 l 728 661 l 529 661 l 529 463 l 595 463 l 595 529 l 661 529 l 661 397 l 529 397 l 529 198 l 397 198 l 397 331 l 265 331 l 265 397 m 728 794 l 794 794 l 794 728 l 728 728 l 728 794 m 198 728 l 265 728 l 265 661 l 198 661 l 198 728 m 265 66 l 132 66 l 132 198 l 66 198 l 66 595 l 132 595 l 132 661 l 198 661 l 198 198 l 265 198 l 265 132 l 331 132 l 331 66 l 661 66 l 661 0 l 265 0 l 265 66 m 661 595 l 728 595 l 728 529 l 661 529 l 661 595 m 728 529 l 794 529 l 794 463 l 860 463 l 860 198 l 794 198 l 794 132 l 728 132 l 728 529 m 595 265 l 661 265 l 661 132 l 595 132 l 595 265 m 661 132 l 728 132 l 728 66 l 661 66 l 661 132 z "},"Ģ":{"ha":860,"x_min":66,"x_max":860,"o":"m 728 794 l 794 794 l 794 728 l 728 728 l 728 794 m 265 794 l 463 794 l 463 728 l 265 728 l 265 794 m 198 728 l 265 728 l 265 661 l 198 661 l 198 728 m 265 66 l 132 66 l 132 198 l 66 198 l 66 595 l 132 595 l 132 661 l 198 661 l 198 198 l 265 198 l 265 132 l 331 132 l 331 66 l 661 66 l 661 0 l 265 0 l 265 66 m 661 595 l 728 595 l 728 529 l 661 529 l 661 595 m 728 529 l 794 529 l 794 463 l 860 463 l 860 198 l 794 198 l 794 132 l 728 132 l 728 529 m 265 397 l 397 397 l 397 463 l 265 463 l 265 529 l 397 529 l 397 661 l 463 661 l 463 728 l 529 728 l 529 794 l 661 794 l 661 728 l 728 728 l 728 661 l 529 661 l 529 463 l 595 463 l 595 529 l 661 529 l 661 397 l 529 397 l 529 198 l 397 198 l 397 331 l 265 331 l 265 397 m 595 265 l 661 265 l 661 132 l 595 132 l 595 265 m 661 132 l 728 132 l 728 66 l 661 66 l 661 132 m 397 -66 l 529 -66 l 529 -265 l 463 -265 l 463 -198 l 397 -198 l 397 -66 m 397 -265 l 463 -265 l 463 -331 l 397 -331 l 397 -265 z "},"Ġ":{"ha":860,"x_min":66,"x_max":860,"o":"m 397 992 l 529 992 l 529 860 l 397 860 l 397 992 m 265 794 l 463 794 l 463 728 l 265 728 l 265 794 m 728 794 l 794 794 l 794 728 l 728 728 l 728 794 m 198 728 l 265 728 l 265 661 l 198 661 l 198 728 m 265 66 l 132 66 l 132 198 l 66 198 l 66 595 l 132 595 l 132 661 l 198 661 l 198 198 l 265 198 l 265 132 l 331 132 l 331 66 l 661 66 l 661 0 l 265 0 l 265 66 m 661 595 l 728 595 l 728 529 l 661 529 l 661 595 m 728 529 l 794 529 l 794 463 l 860 463 l 860 198 l 794 198 l 794 132 l 728 132 l 728 529 m 265 397 l 397 397 l 397 463 l 265 463 l 265 529 l 397 529 l 397 661 l 463 661 l 463 728 l 529 728 l 529 794 l 661 794 l 661 728 l 728 728 l 728 661 l 529 661 l 529 463 l 595 463 l 595 529 l 661 529 l 661 397 l 529 397 l 529 198 l 397 198 l 397 331 l 265 331 l 265 397 m 595 265 l 661 265 l 661 132 l 595 132 l 595 265 m 661 132 l 728 132 l 728 66 l 661 66 l 661 132 z "},"H":{"ha":926,"x_min":66,"x_max":926,"o":"m 794 794 l 860 794 l 860 728 l 794 728 l 794 794 m 331 661 l 198 661 l 198 728 l 132 728 l 132 794 l 265 794 l 265 728 l 331 728 l 331 661 m 595 397 l 661 397 l 661 331 l 595 331 l 595 198 l 463 198 l 463 661 l 529 661 l 529 728 l 595 728 l 595 794 l 728 794 l 728 728 l 794 728 l 794 661 l 595 661 l 595 397 m 331 794 l 397 794 l 397 728 l 331 728 l 331 794 m 397 728 l 463 728 l 463 661 l 397 661 l 397 728 m 66 728 l 132 728 l 132 661 l 66 661 l 66 728 m 198 397 l 331 397 l 331 463 l 198 463 l 198 529 l 331 529 l 331 661 l 397 661 l 397 198 l 331 198 l 331 331 l 198 331 l 198 397 m 661 529 l 860 529 l 860 463 l 926 463 l 926 132 l 860 132 l 860 0 l 794 0 l 794 463 l 728 463 l 728 397 l 661 397 l 661 529 m 661 198 l 728 198 l 728 132 l 661 132 l 661 198 m 265 132 l 661 132 l 661 66 l 595 66 l 595 0 l 463 0 l 463 66 l 265 66 l 265 132 m 198 66 l 265 66 l 265 0 l 198 0 l 198 66 m 728 0 l 794 0 l 794 -66 l 728 -66 l 728 0 m 661 -66 l 728 -66 l 728 -132 l 661 -132 l 661 -66 m 529 -66 l 595 -66 l 595 -132 l 529 -132 l 529 -66 m 595 -132 l 661 -132 l 661 -198 l 595 -198 l 595 -132 z "},"Ħ":{"ha":992,"x_min":66,"x_max":992,"o":"m 926 794 l 992 794 l 992 728 l 926 728 l 926 794 m 331 661 l 198 661 l 198 728 l 132 728 l 132 794 l 265 794 l 265 728 l 331 728 l 331 661 m 331 794 l 397 794 l 397 728 l 331 728 l 331 794 m 794 794 l 860 794 l 860 728 l 794 728 l 794 794 m 66 728 l 132 728 l 132 661 l 66 661 l 66 728 m 595 463 l 794 463 l 794 661 l 860 661 l 860 728 l 926 728 l 926 66 l 860 66 l 860 0 l 794 0 l 794 397 l 595 397 l 595 198 l 463 198 l 463 661 l 529 661 l 529 728 l 595 728 l 595 794 l 728 794 l 728 728 l 794 728 l 794 661 l 595 661 l 595 463 m 397 728 l 463 728 l 463 661 l 397 661 l 397 728 m 331 661 l 397 661 l 397 198 l 331 198 l 331 661 m 661 198 l 728 198 l 728 132 l 661 132 l 661 198 m 265 132 l 661 132 l 661 66 l 595 66 l 595 0 l 463 0 l 463 66 l 265 66 l 265 132 m 198 66 l 265 66 l 265 0 l 198 0 l 198 66 z "},"I":{"ha":794,"x_min":66,"x_max":794,"o":"m 331 728 l 132 728 l 132 794 l 463 794 l 463 728 l 595 728 l 595 661 l 331 661 l 331 728 m 595 794 l 661 794 l 661 728 l 595 728 l 595 794 m 728 794 l 794 794 l 794 728 l 728 728 l 728 794 m 66 728 l 132 728 l 132 661 l 66 661 l 66 728 m 595 661 l 661 661 l 661 728 l 728 728 l 728 132 l 661 132 l 661 66 l 595 66 l 595 661 m 331 331 l 463 331 l 463 397 l 331 397 l 331 463 l 463 463 l 463 595 l 529 595 l 529 132 l 463 132 l 463 265 l 331 265 l 331 331 m 198 132 l 463 132 l 463 66 l 595 66 l 595 0 l 331 0 l 331 66 l 198 66 l 198 132 m 132 66 l 198 66 l 198 0 l 132 0 l 132 66 z "},"Ĳ":{"ha":1587,"x_min":66,"x_max":1587,"o":"m 926 794 l 1257 794 l 1257 728 l 1389 728 l 1389 661 l 1124 661 l 1124 728 l 926 728 l 926 794 m 331 728 l 132 728 l 132 794 l 463 794 l 463 728 l 595 728 l 595 661 l 331 661 l 331 728 m 1521 794 l 1587 794 l 1587 728 l 1521 728 l 1521 794 m 1389 794 l 1455 794 l 1455 728 l 1389 728 l 1389 794 m 595 794 l 661 794 l 661 728 l 595 728 l 595 794 m 728 794 l 794 794 l 794 728 l 728 728 l 728 794 m 66 728 l 132 728 l 132 661 l 66 661 l 66 728 m 1389 661 l 1455 661 l 1455 728 l 1521 728 l 1521 -66 l 1455 -66 l 1455 -132 l 1389 -132 l 1389 661 m 595 661 l 661 661 l 661 728 l 728 728 l 728 132 l 661 132 l 661 66 l 595 66 l 595 661 m 860 728 l 926 728 l 926 661 l 860 661 l 860 728 m 331 331 l 463 331 l 463 397 l 331 397 l 331 463 l 463 463 l 463 595 l 529 595 l 529 132 l 463 132 l 463 265 l 331 265 l 331 331 m 1124 331 l 1257 331 l 1257 397 l 1124 397 l 1124 463 l 1257 463 l 1257 595 l 1323 595 l 1323 -66 l 1257 -66 l 1257 265 l 1124 265 l 1124 331 m 198 132 l 463 132 l 463 66 l 595 66 l 595 0 l 331 0 l 331 66 l 198 66 l 198 132 m 132 66 l 198 66 l 198 0 l 132 0 l 132 66 m 992 -66 l 1257 -66 l 1257 -132 l 1389 -132 l 1389 -198 l 1124 -198 l 1124 -132 l 992 -132 l 992 -66 m 926 -132 l 992 -132 l 992 -198 l 926 -198 l 926 -132 z "},"Í":{"ha":794,"x_min":66,"x_max":794,"o":"m 661 1058 l 661 992 l 595 992 l 595 926 l 529 926 l 529 860 l 463 860 l 463 992 l 529 992 l 529 1058 l 661 1058 m 331 728 l 132 728 l 132 794 l 463 794 l 463 728 l 595 728 l 595 661 l 331 661 l 331 728 m 595 794 l 661 794 l 661 728 l 595 728 l 595 794 m 728 794 l 794 794 l 794 728 l 728 728 l 728 794 m 595 661 l 661 661 l 661 728 l 728 728 l 728 132 l 661 132 l 661 66 l 595 66 l 595 661 m 66 728 l 132 728 l 132 661 l 66 661 l 66 728 m 331 331 l 463 331 l 463 397 l 331 397 l 331 463 l 463 463 l 463 595 l 529 595 l 529 132 l 463 132 l 463 265 l 331 265 l 331 331 m 198 132 l 463 132 l 463 66 l 595 66 l 595 0 l 331 0 l 331 66 l 198 66 l 198 132 m 132 66 l 198 66 l 198 0 l 132 0 l 132 66 z "},"Î":{"ha":794,"x_min":66,"x_max":794,"o":"m 397 926 l 463 926 l 463 992 l 529 992 l 529 1058 l 595 1058 l 595 992 l 661 992 l 661 926 l 728 926 l 728 860 l 595 860 l 595 926 l 529 926 l 529 860 l 397 860 l 397 926 m 331 728 l 132 728 l 132 794 l 463 794 l 463 728 l 595 728 l 595 661 l 331 661 l 331 728 m 595 794 l 661 794 l 661 728 l 595 728 l 595 794 m 728 794 l 794 794 l 794 728 l 728 728 l 728 794 m 66 728 l 132 728 l 132 661 l 66 661 l 66 728 m 595 661 l 661 661 l 661 728 l 728 728 l 728 132 l 661 132 l 661 66 l 595 66 l 595 661 m 331 331 l 463 331 l 463 397 l 331 397 l 331 463 l 463 463 l 463 595 l 529 595 l 529 132 l 463 132 l 463 265 l 331 265 l 331 331 m 198 132 l 463 132 l 463 66 l 595 66 l 595 0 l 331 0 l 331 66 l 198 66 l 198 132 m 132 66 l 198 66 l 198 0 l 132 0 l 132 66 z "},"Ï":{"ha":794,"x_min":66,"x_max":794,"o":"m 595 992 l 728 992 l 728 860 l 595 860 l 595 992 m 397 992 l 529 992 l 529 860 l 397 860 l 397 992 m 331 728 l 132 728 l 132 794 l 463 794 l 463 728 l 595 728 l 595 661 l 331 661 l 331 728 m 595 794 l 661 794 l 661 728 l 595 728 l 595 794 m 728 794 l 794 794 l 794 728 l 728 728 l 728 794 m 66 728 l 132 728 l 132 661 l 66 661 l 66 728 m 595 661 l 661 661 l 661 728 l 728 728 l 728 132 l 661 132 l 661 66 l 595 66 l 595 661 m 331 331 l 463 331 l 463 397 l 331 397 l 331 463 l 463 463 l 463 595 l 529 595 l 529 132 l 463 132 l 463 265 l 331 265 l 331 331 m 198 132 l 463 132 l 463 66 l 595 66 l 595 0 l 331 0 l 331 66 l 198 66 l 198 132 m 132 66 l 198 66 l 198 0 l 132 0 l 132 66 z "},"İ":{"ha":794,"x_min":66,"x_max":794,"o":"m 463 992 l 595 992 l 595 860 l 463 860 l 463 992 m 331 728 l 132 728 l 132 794 l 463 794 l 463 728 l 595 728 l 595 661 l 331 661 l 331 728 m 728 794 l 794 794 l 794 728 l 728 728 l 728 794 m 595 794 l 661 794 l 661 728 l 595 728 l 595 794 m 595 661 l 661 661 l 661 728 l 728 728 l 728 132 l 661 132 l 661 66 l 595 66 l 595 661 m 66 728 l 132 728 l 132 661 l 66 661 l 66 728 m 331 331 l 463 331 l 463 397 l 331 397 l 331 463 l 463 463 l 463 595 l 529 595 l 529 132 l 463 132 l 463 265 l 331 265 l 331 331 m 198 132 l 463 132 l 463 66 l 595 66 l 595 0 l 331 0 l 331 66 l 198 66 l 198 132 m 132 66 l 198 66 l 198 0 l 132 0 l 132 66 z "},"Ì":{"ha":794,"x_min":66,"x_max":794,"o":"m 463 1058 l 595 1058 l 595 992 l 661 992 l 661 860 l 595 860 l 595 926 l 529 926 l 529 992 l 463 992 l 463 1058 m 331 728 l 132 728 l 132 794 l 463 794 l 463 728 l 595 728 l 595 661 l 331 661 l 331 728 m 595 794 l 661 794 l 661 728 l 595 728 l 595 794 m 728 794 l 794 794 l 794 728 l 728 728 l 728 794 m 595 661 l 661 661 l 661 728 l 728 728 l 728 132 l 661 132 l 661 66 l 595 66 l 595 661 m 66 728 l 132 728 l 132 661 l 66 661 l 66 728 m 331 331 l 463 331 l 463 397 l 331 397 l 331 463 l 463 463 l 463 595 l 529 595 l 529 132 l 463 132 l 463 265 l 331 265 l 331 331 m 198 132 l 463 132 l 463 66 l 595 66 l 595 0 l 331 0 l 331 66 l 198 66 l 198 132 m 132 66 l 198 66 l 198 0 l 132 0 l 132 66 z "},"Ī":{"ha":794,"x_min":66,"x_max":794,"o":"m 397 992 l 661 992 l 661 860 l 397 860 l 397 992 m 331 728 l 132 728 l 132 794 l 463 794 l 463 728 l 595 728 l 595 661 l 331 661 l 331 728 m 595 794 l 661 794 l 661 728 l 595 728 l 595 794 m 728 794 l 794 794 l 794 728 l 728 728 l 728 794 m 66 728 l 132 728 l 132 661 l 66 661 l 66 728 m 595 661 l 661 661 l 661 728 l 728 728 l 728 132 l 661 132 l 661 66 l 595 66 l 595 661 m 331 331 l 463 331 l 463 397 l 331 397 l 331 463 l 463 463 l 463 595 l 529 595 l 529 132 l 463 132 l 463 265 l 331 265 l 331 331 m 198 132 l 463 132 l 463 66 l 595 66 l 595 0 l 331 0 l 331 66 l 198 66 l 198 132 m 132 66 l 198 66 l 198 0 l 132 0 l 132 66 z "},"Į":{"ha":794,"x_min":66,"x_max":794,"o":"m 331 728 l 132 728 l 132 794 l 463 794 l 463 728 l 595 728 l 595 661 l 331 661 l 331 728 m 595 794 l 661 794 l 661 728 l 595 728 l 595 794 m 728 794 l 794 794 l 794 728 l 728 728 l 728 794 m 66 728 l 132 728 l 132 661 l 66 661 l 66 728 m 595 661 l 661 661 l 661 728 l 728 728 l 728 132 l 661 132 l 661 66 l 595 66 l 595 661 m 331 331 l 463 331 l 463 397 l 331 397 l 331 463 l 463 463 l 463 595 l 529 595 l 529 132 l 463 132 l 463 265 l 331 265 l 331 331 m 198 132 l 463 132 l 463 66 l 595 66 l 595 0 l 463 0 l 463 -66 l 397 -66 l 397 0 l 331 0 l 331 66 l 198 66 l 198 132 m 132 66 l 198 66 l 198 0 l 132 0 l 132 66 m 331 -66 l 397 -66 l 397 -132 l 463 -132 l 463 -198 l 331 -198 l 331 -66 z "},"J":{"ha":794,"x_min":66,"x_max":794,"o":"m 331 728 l 132 728 l 132 794 l 463 794 l 463 728 l 595 728 l 595 661 l 331 661 l 331 728 m 595 794 l 661 794 l 661 728 l 595 728 l 595 794 m 728 794 l 794 794 l 794 728 l 728 728 l 728 794 m 66 728 l 132 728 l 132 661 l 66 661 l 66 728 m 595 661 l 661 661 l 661 728 l 728 728 l 728 -66 l 661 -66 l 661 -132 l 595 -132 l 595 661 m 331 331 l 463 331 l 463 397 l 331 397 l 331 463 l 463 463 l 463 595 l 529 595 l 529 -66 l 463 -66 l 463 265 l 331 265 l 331 331 m 198 -66 l 463 -66 l 463 -132 l 595 -132 l 595 -198 l 331 -198 l 331 -132 l 198 -132 l 198 -66 m 132 -132 l 198 -132 l 198 -198 l 132 -198 l 132 -132 z "},"K":{"ha":992,"x_min":66,"x_max":992,"o":"m 331 661 l 198 661 l 198 728 l 132 728 l 132 794 l 265 794 l 265 728 l 331 728 l 331 661 m 331 794 l 397 794 l 397 728 l 331 728 l 331 794 m 595 463 l 661 463 l 661 397 l 595 397 l 595 198 l 463 198 l 463 661 l 529 661 l 529 728 l 661 728 l 661 794 l 728 794 l 728 728 l 794 728 l 794 661 l 595 661 l 595 463 m 66 728 l 132 728 l 132 661 l 66 661 l 66 728 m 397 728 l 463 728 l 463 661 l 397 661 l 397 728 m 198 397 l 331 397 l 331 463 l 198 463 l 198 529 l 331 529 l 331 661 l 397 661 l 397 198 l 331 198 l 331 331 l 198 331 l 198 397 m 728 595 l 860 595 l 860 529 l 926 529 l 926 397 l 860 397 l 860 331 l 794 331 l 794 529 l 728 529 l 728 595 m 661 529 l 728 529 l 728 463 l 661 463 l 661 529 m 661 331 l 794 331 l 794 265 l 661 265 l 661 331 m 794 265 l 860 265 l 860 198 l 926 198 l 926 66 l 992 66 l 992 0 l 860 0 l 860 66 l 794 66 l 794 265 m 595 198 l 661 198 l 661 132 l 595 132 l 595 198 m 265 132 l 595 132 l 595 66 l 529 66 l 529 0 l 331 0 l 331 66 l 265 66 l 265 132 m 198 66 l 265 66 l 265 0 l 198 0 l 198 66 z "},"Ķ":{"ha":992,"x_min":66,"x_max":992,"o":"m 331 661 l 198 661 l 198 728 l 132 728 l 132 794 l 265 794 l 265 728 l 331 728 l 331 661 m 331 794 l 397 794 l 397 728 l 331 728 l 331 794 m 595 463 l 661 463 l 661 397 l 595 397 l 595 198 l 463 198 l 463 661 l 529 661 l 529 728 l 661 728 l 661 794 l 728 794 l 728 728 l 794 728 l 794 661 l 595 661 l 595 463 m 66 728 l 132 728 l 132 661 l 66 661 l 66 728 m 397 728 l 463 728 l 463 661 l 397 661 l 397 728 m 198 397 l 331 397 l 331 463 l 198 463 l 198 529 l 331 529 l 331 661 l 397 661 l 397 198 l 331 198 l 331 331 l 198 331 l 198 397 m 728 595 l 860 595 l 860 529 l 926 529 l 926 397 l 860 397 l 860 331 l 794 331 l 794 529 l 728 529 l 728 595 m 661 529 l 728 529 l 728 463 l 661 463 l 661 529 m 661 331 l 794 331 l 794 265 l 661 265 l 661 331 m 794 265 l 860 265 l 860 198 l 926 198 l 926 66 l 992 66 l 992 0 l 860 0 l 860 66 l 794 66 l 794 265 m 595 198 l 661 198 l 661 132 l 595 132 l 595 198 m 265 132 l 595 132 l 595 66 l 529 66 l 529 0 l 331 0 l 331 66 l 265 66 l 265 132 m 198 66 l 265 66 l 265 0 l 198 0 l 198 66 m 595 -66 l 728 -66 l 728 -265 l 661 -265 l 661 -198 l 595 -198 l 595 -66 m 595 -265 l 661 -265 l 661 -331 l 595 -331 l 595 -265 z "},"L":{"ha":860,"x_min":66,"x_max":860,"o":"m 331 661 l 198 661 l 198 728 l 132 728 l 132 794 l 265 794 l 265 728 l 331 728 l 331 661 m 331 794 l 397 794 l 397 728 l 331 728 l 331 794 m 66 728 l 132 728 l 132 661 l 66 661 l 66 728 m 198 397 l 331 397 l 331 463 l 198 463 l 198 529 l 331 529 l 331 661 l 397 661 l 397 728 l 529 728 l 529 661 l 463 661 l 463 198 l 331 198 l 331 331 l 198 331 l 198 397 m 595 728 l 661 728 l 661 661 l 595 661 l 595 728 m 265 132 l 529 132 l 529 661 l 595 661 l 595 132 l 794 132 l 794 66 l 728 66 l 728 0 l 595 0 l 595 66 l 529 66 l 529 0 l 331 0 l 331 66 l 265 66 l 265 132 m 794 198 l 860 198 l 860 132 l 794 132 l 794 198 m 198 66 l 265 66 l 265 0 l 198 0 l 198 66 z "},"Ĺ":{"ha":860,"x_min":66,"x_max":860,"o":"m 595 1058 l 595 992 l 529 992 l 529 926 l 463 926 l 463 860 l 397 860 l 397 992 l 463 992 l 463 1058 l 595 1058 m 331 661 l 198 661 l 198 728 l 132 728 l 132 794 l 265 794 l 265 728 l 331 728 l 331 661 m 331 794 l 397 794 l 397 728 l 331 728 l 331 794 m 595 728 l 661 728 l 661 661 l 595 661 l 595 728 m 198 397 l 331 397 l 331 463 l 198 463 l 198 529 l 331 529 l 331 661 l 397 661 l 397 728 l 529 728 l 529 661 l 463 661 l 463 198 l 331 198 l 331 331 l 198 331 l 198 397 m 66 728 l 132 728 l 132 661 l 66 661 l 66 728 m 265 132 l 529 132 l 529 661 l 595 661 l 595 132 l 794 132 l 794 66 l 728 66 l 728 0 l 595 0 l 595 66 l 529 66 l 529 0 l 331 0 l 331 66 l 265 66 l 265 132 m 794 198 l 860 198 l 860 132 l 794 132 l 794 198 m 198 66 l 265 66 l 265 0 l 198 0 l 198 66 z "},"Ľ":{"ha":860,"x_min":66,"x_max":860,"o":"m 728 860 l 860 860 l 860 661 l 794 661 l 794 728 l 728 728 l 728 860 m 331 661 l 198 661 l 198 728 l 132 728 l 132 794 l 265 794 l 265 728 l 331 728 l 331 661 m 331 794 l 397 794 l 397 728 l 331 728 l 331 794 m 198 397 l 331 397 l 331 463 l 198 463 l 198 529 l 331 529 l 331 661 l 397 661 l 397 728 l 529 728 l 529 661 l 463 661 l 463 198 l 331 198 l 331 331 l 198 331 l 198 397 m 595 728 l 661 728 l 661 661 l 595 661 l 595 728 m 66 728 l 132 728 l 132 661 l 66 661 l 66 728 m 265 132 l 529 132 l 529 661 l 595 661 l 595 132 l 794 132 l 794 66 l 728 66 l 728 0 l 595 0 l 595 66 l 529 66 l 529 0 l 331 0 l 331 66 l 265 66 l 265 132 m 728 661 l 794 661 l 794 595 l 728 595 l 728 661 m 794 198 l 860 198 l 860 132 l 794 132 l 794 198 m 198 66 l 265 66 l 265 0 l 198 0 l 198 66 z "},"Ļ":{"ha":860,"x_min":66,"x_max":860,"o":"m 331 661 l 198 661 l 198 728 l 132 728 l 132 794 l 265 794 l 265 728 l 331 728 l 331 661 m 331 794 l 397 794 l 397 728 l 331 728 l 331 794 m 66 728 l 132 728 l 132 661 l 66 661 l 66 728 m 198 397 l 331 397 l 331 463 l 198 463 l 198 529 l 331 529 l 331 661 l 397 661 l 397 728 l 529 728 l 529 661 l 463 661 l 463 198 l 331 198 l 331 331 l 198 331 l 198 397 m 595 728 l 661 728 l 661 661 l 595 661 l 595 728 m 265 132 l 529 132 l 529 661 l 595 661 l 595 132 l 794 132 l 794 66 l 728 66 l 728 0 l 595 0 l 595 66 l 529 66 l 529 0 l 331 0 l 331 66 l 265 66 l 265 132 m 794 198 l 860 198 l 860 132 l 794 132 l 794 198 m 198 66 l 265 66 l 265 0 l 198 0 l 198 66 m 397 -66 l 529 -66 l 529 -265 l 463 -265 l 463 -198 l 397 -198 l 397 -66 m 397 -265 l 463 -265 l 463 -331 l 397 -331 l 397 -265 z "},"Ł":{"ha":860,"x_min":66,"x_max":860,"o":"m 331 661 l 198 661 l 198 728 l 132 728 l 132 794 l 265 794 l 265 728 l 331 728 l 331 661 m 331 794 l 397 794 l 397 728 l 331 728 l 331 794 m 66 728 l 132 728 l 132 661 l 66 661 l 66 728 m 265 132 l 529 132 l 529 331 l 463 331 l 463 198 l 331 198 l 331 265 l 265 265 l 265 198 l 198 198 l 198 331 l 265 331 l 265 397 l 331 397 l 331 661 l 397 661 l 397 728 l 529 728 l 529 661 l 463 661 l 463 463 l 529 463 l 529 661 l 595 661 l 595 595 l 728 595 l 728 529 l 661 529 l 661 463 l 595 463 l 595 132 l 794 132 l 794 66 l 728 66 l 728 0 l 595 0 l 595 66 l 529 66 l 529 0 l 331 0 l 331 66 l 265 66 l 265 132 m 595 728 l 661 728 l 661 661 l 595 661 l 595 728 m 794 198 l 860 198 l 860 132 l 794 132 l 794 198 m 198 66 l 265 66 l 265 0 l 198 0 l 198 66 z "},"M":{"ha":992,"x_min":66,"x_max":992,"o":"m 132 397 l 265 397 l 265 463 l 132 463 l 132 529 l 265 529 l 265 661 l 132 661 l 132 728 l 66 728 l 66 794 l 198 794 l 198 728 l 265 728 l 265 794 l 331 794 l 331 728 l 463 728 l 463 794 l 595 794 l 595 728 l 728 728 l 728 794 l 860 794 l 860 728 l 992 728 l 992 661 l 926 661 l 926 132 l 992 132 l 992 66 l 926 66 l 926 0 l 860 0 l 860 66 l 794 66 l 794 661 l 661 661 l 661 463 l 728 463 l 728 397 l 661 397 l 661 132 l 728 132 l 728 66 l 661 66 l 661 0 l 529 0 l 529 66 l 463 66 l 463 132 l 529 132 l 529 397 l 463 397 l 463 463 l 529 463 l 529 661 l 397 661 l 397 265 l 331 265 l 331 198 l 265 198 l 265 331 l 132 331 l 132 397 m 66 132 l 198 132 l 198 198 l 265 198 l 265 132 l 397 132 l 397 66 l 331 66 l 331 0 l 198 0 l 198 66 l 66 66 l 66 132 m 397 198 l 463 198 l 463 132 l 397 132 l 397 198 z "},"N":{"ha":926,"x_min":66,"x_max":926,"o":"m 860 794 l 926 794 l 926 728 l 860 728 l 860 794 m 728 66 l 661 66 l 661 728 l 595 728 l 595 794 l 728 794 l 728 728 l 860 728 l 860 661 l 794 661 l 794 66 l 860 66 l 860 0 l 728 0 l 728 66 m 198 397 l 331 397 l 331 463 l 198 463 l 198 529 l 331 529 l 331 661 l 66 661 l 66 728 l 198 728 l 198 794 l 397 794 l 397 728 l 463 728 l 463 661 l 529 661 l 529 595 l 463 595 l 463 198 l 331 198 l 331 331 l 198 331 l 198 397 m 529 728 l 595 728 l 595 661 l 529 661 l 529 728 m 595 132 l 529 132 l 529 595 l 595 595 l 595 132 m 132 132 l 265 132 l 265 198 l 331 198 l 331 132 l 529 132 l 529 66 l 463 66 l 463 0 l 331 0 l 331 66 l 132 66 l 132 132 m 860 132 l 926 132 l 926 66 l 860 66 l 860 132 m 66 66 l 132 66 l 132 0 l 66 0 l 66 66 z "},"Ń":{"ha":926,"x_min":66,"x_max":926,"o":"m 661 1058 l 661 992 l 595 992 l 595 926 l 529 926 l 529 860 l 463 860 l 463 992 l 529 992 l 529 1058 l 661 1058 m 198 397 l 331 397 l 331 463 l 198 463 l 198 529 l 331 529 l 331 661 l 66 661 l 66 728 l 198 728 l 198 794 l 397 794 l 397 728 l 463 728 l 463 661 l 529 661 l 529 595 l 463 595 l 463 198 l 331 198 l 331 331 l 198 331 l 198 397 m 860 794 l 926 794 l 926 728 l 860 728 l 860 794 m 728 66 l 661 66 l 661 728 l 595 728 l 595 794 l 728 794 l 728 728 l 860 728 l 860 661 l 794 661 l 794 66 l 860 66 l 860 0 l 728 0 l 728 66 m 529 728 l 595 728 l 595 661 l 529 661 l 529 728 m 595 132 l 529 132 l 529 595 l 595 595 l 595 132 m 132 132 l 265 132 l 265 198 l 331 198 l 331 132 l 529 132 l 529 66 l 463 66 l 463 0 l 331 0 l 331 66 l 132 66 l 132 132 m 860 132 l 926 132 l 926 66 l 860 66 l 860 132 m 66 66 l 132 66 l 132 0 l 66 0 l 66 66 z "},"Ň":{"ha":926,"x_min":66,"x_max":926,"o":"m 529 860 l 529 926 l 463 926 l 463 992 l 397 992 l 397 1058 l 529 1058 l 529 992 l 595 992 l 595 1058 l 728 1058 l 728 992 l 661 992 l 661 926 l 595 926 l 595 860 l 529 860 m 198 397 l 331 397 l 331 463 l 198 463 l 198 529 l 331 529 l 331 661 l 66 661 l 66 728 l 198 728 l 198 794 l 397 794 l 397 728 l 463 728 l 463 661 l 529 661 l 529 595 l 463 595 l 463 198 l 331 198 l 331 331 l 198 331 l 198 397 m 860 794 l 926 794 l 926 728 l 860 728 l 860 794 m 728 66 l 661 66 l 661 728 l 595 728 l 595 794 l 728 794 l 728 728 l 860 728 l 860 661 l 794 661 l 794 66 l 860 66 l 860 0 l 728 0 l 728 66 m 529 728 l 595 728 l 595 661 l 529 661 l 529 728 m 595 132 l 529 132 l 529 595 l 595 595 l 595 132 m 132 132 l 265 132 l 265 198 l 331 198 l 331 132 l 529 132 l 529 66 l 463 66 l 463 0 l 331 0 l 331 66 l 132 66 l 132 132 m 860 132 l 926 132 l 926 66 l 860 66 l 860 132 m 66 66 l 132 66 l 132 0 l 66 0 l 66 66 z "},"Ņ":{"ha":926,"x_min":66,"x_max":926,"o":"m 198 397 l 331 397 l 331 463 l 198 463 l 198 529 l 331 529 l 331 661 l 66 661 l 66 728 l 198 728 l 198 794 l 397 794 l 397 728 l 463 728 l 463 661 l 529 661 l 529 595 l 463 595 l 463 198 l 331 198 l 331 331 l 198 331 l 198 397 m 728 66 l 661 66 l 661 728 l 595 728 l 595 794 l 728 794 l 728 728 l 860 728 l 860 661 l 794 661 l 794 66 l 860 66 l 860 0 l 728 0 l 728 66 m 860 794 l 926 794 l 926 728 l 860 728 l 860 794 m 529 728 l 595 728 l 595 661 l 529 661 l 529 728 m 595 132 l 529 132 l 529 595 l 595 595 l 595 132 m 132 132 l 265 132 l 265 198 l 331 198 l 331 132 l 529 132 l 529 66 l 463 66 l 463 0 l 331 0 l 331 66 l 132 66 l 132 132 m 860 132 l 926 132 l 926 66 l 860 66 l 860 132 m 66 66 l 132 66 l 132 0 l 66 0 l 66 66 m 397 -66 l 529 -66 l 529 -265 l 463 -265 l 463 -198 l 397 -198 l 397 -66 m 397 -265 l 463 -265 l 463 -331 l 397 -331 l 397 -265 z "},"Ñ":{"ha":926,"x_min":66,"x_max":926,"o":"m 397 992 l 463 992 l 463 1058 l 529 1058 l 529 992 l 595 992 l 595 1058 l 728 1058 l 728 926 l 661 926 l 661 860 l 595 860 l 595 926 l 529 926 l 529 860 l 397 860 l 397 992 m 198 397 l 331 397 l 331 463 l 198 463 l 198 529 l 331 529 l 331 661 l 66 661 l 66 728 l 198 728 l 198 794 l 397 794 l 397 728 l 463 728 l 463 661 l 529 661 l 529 595 l 463 595 l 463 198 l 331 198 l 331 331 l 198 331 l 198 397 m 860 794 l 926 794 l 926 728 l 860 728 l 860 794 m 728 66 l 661 66 l 661 728 l 595 728 l 595 794 l 728 794 l 728 728 l 860 728 l 860 661 l 794 661 l 794 66 l 860 66 l 860 0 l 728 0 l 728 66 m 529 728 l 595 728 l 595 661 l 529 661 l 529 728 m 595 132 l 529 132 l 529 595 l 595 595 l 595 132 m 132 132 l 265 132 l 265 198 l 331 198 l 331 132 l 529 132 l 529 66 l 463 66 l 463 0 l 331 0 l 331 66 l 132 66 l 132 132 m 860 132 l 926 132 l 926 66 l 860 66 l 860 132 m 66 66 l 132 66 l 132 0 l 66 0 l 66 66 z "},"Ŋ":{"ha":860,"x_min":66,"x_max":860,"o":"m 794 794 l 860 794 l 860 728 l 794 728 l 794 794 m 595 -66 l 661 -66 l 661 728 l 595 728 l 595 794 l 728 794 l 728 728 l 794 728 l 794 -66 l 728 -66 l 728 -132 l 595 -132 l 595 -66 m 198 397 l 331 397 l 331 463 l 198 463 l 198 529 l 331 529 l 331 661 l 66 661 l 66 728 l 198 728 l 198 794 l 397 794 l 397 728 l 463 728 l 463 661 l 529 661 l 529 595 l 463 595 l 463 198 l 331 198 l 331 331 l 198 331 l 198 397 m 529 728 l 595 728 l 595 661 l 529 661 l 529 728 m 595 132 l 529 132 l 529 595 l 595 595 l 595 132 m 132 132 l 265 132 l 265 198 l 331 198 l 331 132 l 529 132 l 529 66 l 463 66 l 463 0 l 331 0 l 331 66 l 132 66 l 132 132 m 66 66 l 132 66 l 132 0 l 66 0 l 66 66 z "},"O":{"ha":926,"x_min":66,"x_max":926,"o":"m 728 198 l 794 198 l 794 661 l 595 661 l 595 198 l 463 198 l 463 661 l 529 661 l 529 728 l 728 728 l 728 794 l 860 794 l 860 728 l 926 728 l 926 198 l 860 198 l 860 132 l 728 132 l 728 198 m 331 661 l 198 661 l 198 728 l 132 728 l 132 794 l 463 794 l 463 728 l 331 728 l 331 661 m 66 728 l 132 728 l 132 661 l 66 661 l 66 728 m 198 397 l 331 397 l 331 463 l 198 463 l 198 529 l 331 529 l 331 661 l 397 661 l 397 198 l 331 198 l 331 331 l 198 331 l 198 397 m 265 132 l 397 132 l 397 198 l 463 198 l 463 132 l 728 132 l 728 66 l 661 66 l 661 0 l 397 0 l 397 66 l 265 66 l 265 132 m 198 66 l 265 66 l 265 0 l 198 0 l 198 66 z "},"Ó":{"ha":926,"x_min":66,"x_max":926,"o":"m 728 1058 l 728 992 l 661 992 l 661 926 l 595 926 l 595 860 l 529 860 l 529 992 l 595 992 l 595 1058 l 728 1058 m 331 661 l 198 661 l 198 728 l 132 728 l 132 794 l 463 794 l 463 728 l 331 728 l 331 661 m 728 198 l 794 198 l 794 661 l 595 661 l 595 198 l 463 198 l 463 661 l 529 661 l 529 728 l 728 728 l 728 794 l 860 794 l 860 728 l 926 728 l 926 198 l 860 198 l 860 132 l 728 132 l 728 198 m 66 728 l 132 728 l 132 661 l 66 661 l 66 728 m 198 397 l 331 397 l 331 463 l 198 463 l 198 529 l 331 529 l 331 661 l 397 661 l 397 198 l 331 198 l 331 331 l 198 331 l 198 397 m 265 132 l 397 132 l 397 198 l 463 198 l 463 132 l 728 132 l 728 66 l 661 66 l 661 0 l 397 0 l 397 66 l 265 66 l 265 132 m 198 66 l 265 66 l 265 0 l 198 0 l 198 66 z "},"Ô":{"ha":926,"x_min":66,"x_max":926,"o":"m 463 926 l 529 926 l 529 992 l 595 992 l 595 1058 l 661 1058 l 661 992 l 728 992 l 728 926 l 794 926 l 794 860 l 661 860 l 661 926 l 595 926 l 595 860 l 463 860 l 463 926 m 331 661 l 198 661 l 198 728 l 132 728 l 132 794 l 463 794 l 463 728 l 331 728 l 331 661 m 728 198 l 794 198 l 794 661 l 595 661 l 595 198 l 463 198 l 463 661 l 529 661 l 529 728 l 728 728 l 728 794 l 860 794 l 860 728 l 926 728 l 926 198 l 860 198 l 860 132 l 728 132 l 728 198 m 66 728 l 132 728 l 132 661 l 66 661 l 66 728 m 198 397 l 331 397 l 331 463 l 198 463 l 198 529 l 331 529 l 331 661 l 397 661 l 397 198 l 331 198 l 331 331 l 198 331 l 198 397 m 265 132 l 397 132 l 397 198 l 463 198 l 463 132 l 728 132 l 728 66 l 661 66 l 661 0 l 397 0 l 397 66 l 265 66 l 265 132 m 198 66 l 265 66 l 265 0 l 198 0 l 198 66 z "},"Ö":{"ha":926,"x_min":66,"x_max":926,"o":"m 661 992 l 794 992 l 794 860 l 661 860 l 661 992 m 463 992 l 595 992 l 595 860 l 463 860 l 463 992 m 331 661 l 198 661 l 198 728 l 132 728 l 132 794 l 463 794 l 463 728 l 331 728 l 331 661 m 728 198 l 794 198 l 794 661 l 595 661 l 595 198 l 463 198 l 463 661 l 529 661 l 529 728 l 728 728 l 728 794 l 860 794 l 860 728 l 926 728 l 926 198 l 860 198 l 860 132 l 728 132 l 728 198 m 66 728 l 132 728 l 132 661 l 66 661 l 66 728 m 198 397 l 331 397 l 331 463 l 198 463 l 198 529 l 331 529 l 331 661 l 397 661 l 397 198 l 331 198 l 331 331 l 198 331 l 198 397 m 265 132 l 397 132 l 397 198 l 463 198 l 463 132 l 728 132 l 728 66 l 661 66 l 661 0 l 397 0 l 397 66 l 265 66 l 265 132 m 198 66 l 265 66 l 265 0 l 198 0 l 198 66 z "},"Ò":{"ha":926,"x_min":66,"x_max":926,"o":"m 529 1058 l 661 1058 l 661 992 l 728 992 l 728 860 l 661 860 l 661 926 l 595 926 l 595 992 l 529 992 l 529 1058 m 331 661 l 198 661 l 198 728 l 132 728 l 132 794 l 463 794 l 463 728 l 331 728 l 331 661 m 728 198 l 794 198 l 794 661 l 595 661 l 595 198 l 463 198 l 463 661 l 529 661 l 529 728 l 728 728 l 728 794 l 860 794 l 860 728 l 926 728 l 926 198 l 860 198 l 860 132 l 728 132 l 728 198 m 66 728 l 132 728 l 132 661 l 66 661 l 66 728 m 198 397 l 331 397 l 331 463 l 198 463 l 198 529 l 331 529 l 331 661 l 397 661 l 397 198 l 331 198 l 331 331 l 198 331 l 198 397 m 265 132 l 397 132 l 397 198 l 463 198 l 463 132 l 728 132 l 728 66 l 661 66 l 661 0 l 397 0 l 397 66 l 265 66 l 265 132 m 198 66 l 265 66 l 265 0 l 198 0 l 198 66 z "},"Ő":{"ha":926,"x_min":66,"x_max":926,"o":"m 794 1058 l 794 992 l 728 992 l 728 926 l 661 926 l 661 860 l 595 860 l 595 992 l 661 992 l 661 1058 l 794 1058 m 595 1058 l 595 992 l 529 992 l 529 926 l 463 926 l 463 860 l 397 860 l 397 992 l 463 992 l 463 1058 l 595 1058 m 331 661 l 198 661 l 198 728 l 132 728 l 132 794 l 463 794 l 463 728 l 331 728 l 331 661 m 728 198 l 794 198 l 794 661 l 595 661 l 595 198 l 463 198 l 463 661 l 529 661 l 529 728 l 728 728 l 728 794 l 860 794 l 860 728 l 926 728 l 926 198 l 860 198 l 860 132 l 728 132 l 728 198 m 66 728 l 132 728 l 132 661 l 66 661 l 66 728 m 198 397 l 331 397 l 331 463 l 198 463 l 198 529 l 331 529 l 331 661 l 397 661 l 397 198 l 331 198 l 331 331 l 198 331 l 198 397 m 265 132 l 397 132 l 397 198 l 463 198 l 463 132 l 728 132 l 728 66 l 661 66 l 661 0 l 397 0 l 397 66 l 265 66 l 265 132 m 198 66 l 265 66 l 265 0 l 198 0 l 198 66 z "},"Ō":{"ha":926,"x_min":66,"x_max":926,"o":"m 463 992 l 728 992 l 728 860 l 463 860 l 463 992 m 331 661 l 198 661 l 198 728 l 132 728 l 132 794 l 463 794 l 463 728 l 331 728 l 331 661 m 728 198 l 794 198 l 794 661 l 595 661 l 595 198 l 463 198 l 463 661 l 529 661 l 529 728 l 728 728 l 728 794 l 860 794 l 860 728 l 926 728 l 926 198 l 860 198 l 860 132 l 728 132 l 728 198 m 66 728 l 132 728 l 132 661 l 66 661 l 66 728 m 198 397 l 331 397 l 331 463 l 198 463 l 198 529 l 331 529 l 331 661 l 397 661 l 397 198 l 331 198 l 331 331 l 198 331 l 198 397 m 265 132 l 397 132 l 397 198 l 463 198 l 463 132 l 728 132 l 728 66 l 661 66 l 661 0 l 397 0 l 397 66 l 265 66 l 265 132 m 198 66 l 265 66 l 265 0 l 198 0 l 198 66 z "},"Ø":{"ha":992,"x_min":66,"x_max":992,"o":"m 331 661 l 198 661 l 198 728 l 132 728 l 132 794 l 463 794 l 463 728 l 331 728 l 331 661 m 728 198 l 794 198 l 794 463 l 728 463 l 728 397 l 661 397 l 661 331 l 595 331 l 595 198 l 463 198 l 463 661 l 529 661 l 529 728 l 728 728 l 728 794 l 860 794 l 860 728 l 926 728 l 926 198 l 860 198 l 860 132 l 728 132 l 728 198 m 926 794 l 992 794 l 992 728 l 926 728 l 926 794 m 66 728 l 132 728 l 132 661 l 66 661 l 66 728 m 198 66 l 265 66 l 265 132 l 331 132 l 331 331 l 198 331 l 198 397 l 331 397 l 331 463 l 198 463 l 198 529 l 331 529 l 331 661 l 397 661 l 397 198 l 463 198 l 463 132 l 728 132 l 728 66 l 661 66 l 661 0 l 397 0 l 397 66 l 331 66 l 331 0 l 198 0 l 198 66 m 595 463 l 661 463 l 661 529 l 728 529 l 728 595 l 794 595 l 794 661 l 595 661 l 595 463 z "},"Õ":{"ha":926,"x_min":66,"x_max":926,"o":"m 463 992 l 529 992 l 529 1058 l 595 1058 l 595 992 l 661 992 l 661 1058 l 794 1058 l 794 926 l 728 926 l 728 860 l 661 860 l 661 926 l 595 926 l 595 860 l 463 860 l 463 992 m 331 661 l 198 661 l 198 728 l 132 728 l 132 794 l 463 794 l 463 728 l 331 728 l 331 661 m 728 198 l 794 198 l 794 661 l 595 661 l 595 198 l 463 198 l 463 661 l 529 661 l 529 728 l 728 728 l 728 794 l 860 794 l 860 728 l 926 728 l 926 198 l 860 198 l 860 132 l 728 132 l 728 198 m 66 728 l 132 728 l 132 661 l 66 661 l 66 728 m 198 397 l 331 397 l 331 463 l 198 463 l 198 529 l 331 529 l 331 661 l 397 661 l 397 198 l 331 198 l 331 331 l 198 331 l 198 397 m 265 132 l 397 132 l 397 198 l 463 198 l 463 132 l 728 132 l 728 66 l 661 66 l 661 0 l 397 0 l 397 66 l 265 66 l 265 132 m 198 66 l 265 66 l 265 0 l 198 0 l 198 66 z "},"Œ":{"ha":1389,"x_min":66,"x_max":1389,"o":"m 661 198 l 728 198 l 728 661 l 595 661 l 595 198 l 463 198 l 463 661 l 529 661 l 529 728 l 661 728 l 661 794 l 794 794 l 794 728 l 926 728 l 926 661 l 860 661 l 860 198 l 926 198 l 926 132 l 992 132 l 992 66 l 1190 66 l 1190 0 l 926 0 l 926 66 l 794 66 l 794 132 l 661 132 l 661 198 m 331 661 l 198 661 l 198 728 l 132 728 l 132 794 l 463 794 l 463 728 l 331 728 l 331 661 m 1323 794 l 1389 794 l 1389 728 l 1323 728 l 1323 794 m 1124 794 l 1257 794 l 1257 728 l 1323 728 l 1323 661 l 1190 661 l 1190 728 l 1124 728 l 1124 794 m 926 794 l 992 794 l 992 728 l 926 728 l 926 794 m 66 728 l 132 728 l 132 661 l 66 661 l 66 728 m 1058 728 l 1124 728 l 1124 661 l 1058 661 l 1058 728 m 926 397 l 992 397 l 992 463 l 926 463 l 926 529 l 992 529 l 992 661 l 1058 661 l 1058 595 l 1124 595 l 1124 198 l 1058 198 l 1058 132 l 992 132 l 992 331 l 926 331 l 926 397 m 198 397 l 331 397 l 331 463 l 198 463 l 198 529 l 331 529 l 331 661 l 397 661 l 397 198 l 331 198 l 331 331 l 198 331 l 198 397 m 1190 595 l 1257 595 l 1257 331 l 1190 331 l 1190 595 m 265 132 l 397 132 l 397 198 l 463 198 l 463 132 l 661 132 l 661 66 l 595 66 l 595 0 l 397 0 l 397 66 l 265 66 l 265 132 m 1257 198 l 1323 198 l 1323 132 l 1257 132 l 1257 198 m 1190 132 l 1257 132 l 1257 66 l 1190 66 l 1190 132 m 198 66 l 265 66 l 265 0 l 198 0 l 198 66 z "},"P":{"ha":860,"x_min":66,"x_max":860,"o":"m 66 794 l 132 794 l 132 728 l 66 728 l 66 794 m 198 132 l 331 132 l 331 331 l 198 331 l 198 397 l 331 397 l 331 463 l 198 463 l 198 529 l 331 529 l 331 661 l 132 661 l 132 728 l 198 728 l 198 794 l 397 794 l 397 728 l 463 728 l 463 661 l 529 661 l 529 595 l 463 595 l 463 66 l 529 66 l 529 595 l 595 595 l 595 132 l 661 132 l 661 661 l 529 661 l 529 728 l 794 728 l 794 132 l 728 132 l 728 66 l 595 66 l 595 0 l 463 0 l 463 -132 l 397 -132 l 397 -198 l 331 -198 l 331 66 l 198 66 l 198 132 m 794 794 l 860 794 l 860 728 l 794 728 l 794 794 m 132 66 l 198 66 l 198 0 l 132 0 l 132 66 z "},"Þ":{"ha":860,"x_min":66,"x_max":860,"o":"m 66 794 l 132 794 l 132 728 l 66 728 l 66 794 m 794 661 l 860 661 l 860 595 l 794 595 l 794 661 m 661 529 l 595 529 l 595 198 l 661 198 l 661 529 m 132 66 l 198 66 l 198 0 l 132 0 l 132 66 m 463 132 l 529 132 l 529 463 l 463 463 l 463 132 m 198 132 l 331 132 l 331 331 l 198 331 l 198 397 l 331 397 l 331 463 l 198 463 l 198 529 l 331 529 l 331 661 l 132 661 l 132 728 l 198 728 l 198 794 l 397 794 l 397 728 l 463 728 l 463 529 l 529 529 l 529 595 l 794 595 l 794 198 l 728 198 l 728 132 l 595 132 l 595 66 l 463 66 l 463 -132 l 397 -132 l 397 -198 l 331 -198 l 331 66 l 198 66 l 198 132 z "},"Q":{"ha":992,"x_min":66,"x_max":992,"o":"m 463 661 l 529 661 l 529 728 l 728 728 l 728 794 l 860 794 l 860 728 l 926 728 l 926 265 l 860 265 l 860 198 l 794 198 l 794 661 l 595 661 l 595 198 l 463 198 l 463 661 m 331 661 l 198 661 l 198 728 l 132 728 l 132 794 l 463 794 l 463 728 l 331 728 l 331 661 m 926 794 l 992 794 l 992 728 l 926 728 l 926 794 m 66 728 l 132 728 l 132 661 l 66 661 l 66 728 m 198 397 l 331 397 l 331 463 l 198 463 l 198 529 l 331 529 l 331 661 l 397 661 l 397 198 l 331 198 l 331 331 l 198 331 l 198 397 m 661 265 l 728 265 l 728 198 l 661 198 l 661 265 m 728 198 l 794 198 l 794 132 l 728 132 l 728 198 m 265 132 l 397 132 l 397 198 l 463 198 l 463 132 l 728 132 l 728 66 l 661 66 l 661 0 l 397 0 l 397 66 l 265 66 l 265 132 m 794 132 l 860 132 l 860 66 l 926 66 l 926 0 l 992 0 l 992 -66 l 794 -66 l 794 132 m 198 66 l 265 66 l 265 0 l 198 0 l 198 66 z "},"R":{"ha":992,"x_min":66,"x_max":992,"o":"m 66 794 l 132 794 l 132 728 l 66 728 l 66 794 m 860 794 l 926 794 l 926 728 l 860 728 l 860 794 m 132 66 l 198 66 l 198 132 l 331 132 l 331 198 l 397 198 l 397 331 l 265 331 l 265 397 l 397 397 l 397 463 l 265 463 l 265 529 l 397 529 l 397 661 l 132 661 l 132 728 l 265 728 l 265 794 l 463 794 l 463 728 l 529 728 l 529 661 l 595 661 l 595 595 l 529 595 l 529 198 l 463 198 l 463 132 l 595 132 l 595 66 l 529 66 l 529 0 l 397 0 l 397 66 l 331 66 l 331 0 l 132 0 l 132 66 m 595 728 l 860 728 l 860 463 l 794 463 l 794 397 l 728 397 l 728 661 l 595 661 l 595 728 m 595 595 l 661 595 l 661 463 l 595 463 l 595 595 m 595 397 l 728 397 l 728 331 l 595 331 l 595 397 m 794 66 l 728 66 l 728 331 l 794 331 l 794 265 l 860 265 l 860 132 l 992 132 l 992 66 l 926 66 l 926 0 l 794 0 l 794 66 m 595 265 l 661 265 l 661 132 l 595 132 l 595 265 z "},"Ŕ":{"ha":992,"x_min":66,"x_max":992,"o":"m 661 1058 l 661 992 l 595 992 l 595 926 l 529 926 l 529 860 l 463 860 l 463 992 l 529 992 l 529 1058 l 661 1058 m 66 794 l 132 794 l 132 728 l 66 728 l 66 794 m 132 66 l 198 66 l 198 132 l 331 132 l 331 198 l 397 198 l 397 331 l 265 331 l 265 397 l 397 397 l 397 463 l 265 463 l 265 529 l 397 529 l 397 661 l 132 661 l 132 728 l 265 728 l 265 794 l 463 794 l 463 728 l 529 728 l 529 661 l 595 661 l 595 595 l 529 595 l 529 198 l 463 198 l 463 132 l 595 132 l 595 66 l 529 66 l 529 0 l 397 0 l 397 66 l 331 66 l 331 0 l 132 0 l 132 66 m 860 794 l 926 794 l 926 728 l 860 728 l 860 794 m 595 728 l 860 728 l 860 463 l 794 463 l 794 397 l 728 397 l 728 661 l 595 661 l 595 728 m 595 595 l 661 595 l 661 463 l 595 463 l 595 595 m 595 397 l 728 397 l 728 331 l 595 331 l 595 397 m 794 66 l 728 66 l 728 331 l 794 331 l 794 265 l 860 265 l 860 132 l 992 132 l 992 66 l 926 66 l 926 0 l 794 0 l 794 66 m 595 265 l 661 265 l 661 132 l 595 132 l 595 265 z "},"Ř":{"ha":992,"x_min":66,"x_max":992,"o":"m 529 860 l 529 926 l 463 926 l 463 992 l 397 992 l 397 1058 l 529 1058 l 529 992 l 595 992 l 595 1058 l 728 1058 l 728 992 l 661 992 l 661 926 l 595 926 l 595 860 l 529 860 m 132 66 l 198 66 l 198 132 l 331 132 l 331 198 l 397 198 l 397 331 l 265 331 l 265 397 l 397 397 l 397 463 l 265 463 l 265 529 l 397 529 l 397 661 l 132 661 l 132 728 l 265 728 l 265 794 l 463 794 l 463 728 l 529 728 l 529 661 l 595 661 l 595 595 l 529 595 l 529 198 l 463 198 l 463 132 l 595 132 l 595 66 l 529 66 l 529 0 l 397 0 l 397 66 l 331 66 l 331 0 l 132 0 l 132 66 m 860 794 l 926 794 l 926 728 l 860 728 l 860 794 m 66 794 l 132 794 l 132 728 l 66 728 l 66 794 m 595 728 l 860 728 l 860 463 l 794 463 l 794 397 l 728 397 l 728 661 l 595 661 l 595 728 m 595 595 l 661 595 l 661 463 l 595 463 l 595 595 m 595 397 l 728 397 l 728 331 l 595 331 l 595 397 m 794 66 l 728 66 l 728 331 l 794 331 l 794 265 l 860 265 l 860 132 l 992 132 l 992 66 l 926 66 l 926 0 l 794 0 l 794 66 m 595 265 l 661 265 l 661 132 l 595 132 l 595 265 z "},"Ŗ":{"ha":992,"x_min":66,"x_max":992,"o":"m 66 794 l 132 794 l 132 728 l 66 728 l 66 794 m 132 66 l 198 66 l 198 132 l 331 132 l 331 198 l 397 198 l 397 331 l 265 331 l 265 397 l 397 397 l 397 463 l 265 463 l 265 529 l 397 529 l 397 661 l 132 661 l 132 728 l 265 728 l 265 794 l 463 794 l 463 728 l 529 728 l 529 661 l 595 661 l 595 595 l 529 595 l 529 198 l 463 198 l 463 132 l 595 132 l 595 66 l 529 66 l 529 0 l 397 0 l 397 66 l 331 66 l 331 0 l 132 0 l 132 66 m 860 794 l 926 794 l 926 728 l 860 728 l 860 794 m 595 728 l 860 728 l 860 463 l 794 463 l 794 397 l 728 397 l 728 661 l 595 661 l 595 728 m 595 595 l 661 595 l 661 463 l 595 463 l 595 595 m 595 397 l 728 397 l 728 331 l 595 331 l 595 397 m 794 66 l 728 66 l 728 331 l 794 331 l 794 265 l 860 265 l 860 132 l 992 132 l 992 66 l 926 66 l 926 0 l 794 0 l 794 66 m 595 265 l 661 265 l 661 132 l 595 132 l 595 265 m 529 -66 l 661 -66 l 661 -265 l 595 -265 l 595 -198 l 529 -198 l 529 -66 m 529 -265 l 595 -265 l 595 -331 l 529 -331 l 529 -265 z "},"S":{"ha":860,"x_min":66,"x_max":860,"o":"m 265 794 l 661 794 l 661 728 l 794 728 l 794 661 l 728 661 l 728 595 l 661 595 l 661 661 l 529 661 l 529 728 l 265 728 l 265 794 m 794 794 l 860 794 l 860 728 l 794 728 l 794 794 m 331 529 l 265 529 l 265 595 l 198 595 l 198 728 l 265 728 l 265 661 l 331 661 l 331 595 l 463 595 l 463 529 l 661 529 l 661 463 l 794 463 l 794 397 l 860 397 l 860 198 l 794 198 l 794 265 l 728 265 l 728 331 l 661 331 l 661 397 l 463 397 l 463 463 l 331 463 l 331 529 m 265 397 l 198 397 l 198 463 l 132 463 l 132 595 l 198 595 l 198 529 l 265 529 l 265 463 l 331 463 l 331 397 l 463 397 l 463 331 l 661 331 l 661 265 l 728 265 l 728 198 l 529 198 l 529 265 l 397 265 l 397 331 l 265 331 l 265 397 m 132 132 l 265 132 l 265 198 l 463 198 l 463 132 l 728 132 l 728 198 l 794 198 l 794 66 l 529 66 l 529 0 l 331 0 l 331 66 l 132 66 l 132 132 m 66 66 l 132 66 l 132 0 l 66 0 l 66 66 z "},"Ś":{"ha":860,"x_min":66,"x_max":860,"o":"m 595 1058 l 595 992 l 529 992 l 529 926 l 463 926 l 463 860 l 397 860 l 397 992 l 463 992 l 463 1058 l 595 1058 m 265 794 l 661 794 l 661 728 l 794 728 l 794 661 l 728 661 l 728 595 l 661 595 l 661 661 l 529 661 l 529 728 l 265 728 l 265 794 m 794 794 l 860 794 l 860 728 l 794 728 l 794 794 m 331 529 l 265 529 l 265 595 l 198 595 l 198 728 l 265 728 l 265 661 l 331 661 l 331 595 l 463 595 l 463 529 l 661 529 l 661 463 l 794 463 l 794 397 l 860 397 l 860 198 l 794 198 l 794 265 l 728 265 l 728 331 l 661 331 l 661 397 l 463 397 l 463 463 l 331 463 l 331 529 m 265 397 l 198 397 l 198 463 l 132 463 l 132 595 l 198 595 l 198 529 l 265 529 l 265 463 l 331 463 l 331 397 l 463 397 l 463 331 l 661 331 l 661 265 l 728 265 l 728 198 l 529 198 l 529 265 l 397 265 l 397 331 l 265 331 l 265 397 m 132 132 l 265 132 l 265 198 l 463 198 l 463 132 l 728 132 l 728 198 l 794 198 l 794 66 l 529 66 l 529 0 l 331 0 l 331 66 l 132 66 l 132 132 m 66 66 l 132 66 l 132 0 l 66 0 l 66 66 z "},"Š":{"ha":860,"x_min":66,"x_max":860,"o":"m 463 860 l 463 926 l 397 926 l 397 992 l 331 992 l 331 1058 l 463 1058 l 463 992 l 529 992 l 529 1058 l 661 1058 l 661 992 l 595 992 l 595 926 l 529 926 l 529 860 l 463 860 m 265 794 l 661 794 l 661 728 l 794 728 l 794 661 l 728 661 l 728 595 l 661 595 l 661 661 l 529 661 l 529 728 l 265 728 l 265 794 m 794 794 l 860 794 l 860 728 l 794 728 l 794 794 m 331 529 l 265 529 l 265 595 l 198 595 l 198 728 l 265 728 l 265 661 l 331 661 l 331 595 l 463 595 l 463 529 l 661 529 l 661 463 l 794 463 l 794 397 l 860 397 l 860 198 l 794 198 l 794 265 l 728 265 l 728 331 l 661 331 l 661 397 l 463 397 l 463 463 l 331 463 l 331 529 m 265 397 l 198 397 l 198 463 l 132 463 l 132 595 l 198 595 l 198 529 l 265 529 l 265 463 l 331 463 l 331 397 l 463 397 l 463 331 l 661 331 l 661 265 l 728 265 l 728 198 l 529 198 l 529 265 l 397 265 l 397 331 l 265 331 l 265 397 m 132 132 l 265 132 l 265 198 l 463 198 l 463 132 l 728 132 l 728 198 l 794 198 l 794 66 l 529 66 l 529 0 l 331 0 l 331 66 l 132 66 l 132 132 m 66 66 l 132 66 l 132 0 l 66 0 l 66 66 z "},"Ş":{"ha":860,"x_min":66,"x_max":860,"o":"m 265 794 l 661 794 l 661 728 l 794 728 l 794 661 l 728 661 l 728 595 l 661 595 l 661 661 l 529 661 l 529 728 l 265 728 l 265 794 m 794 794 l 860 794 l 860 728 l 794 728 l 794 794 m 331 529 l 265 529 l 265 595 l 198 595 l 198 728 l 265 728 l 265 661 l 331 661 l 331 595 l 463 595 l 463 529 l 661 529 l 661 463 l 794 463 l 794 397 l 860 397 l 860 198 l 794 198 l 794 265 l 728 265 l 728 331 l 661 331 l 661 397 l 463 397 l 463 463 l 331 463 l 331 529 m 265 397 l 198 397 l 198 463 l 132 463 l 132 595 l 198 595 l 198 529 l 265 529 l 265 463 l 331 463 l 331 397 l 463 397 l 463 331 l 661 331 l 661 265 l 728 265 l 728 198 l 529 198 l 529 265 l 397 265 l 397 331 l 265 331 l 265 397 m 132 132 l 265 132 l 265 198 l 463 198 l 463 132 l 728 132 l 728 198 l 794 198 l 794 66 l 529 66 l 529 -132 l 463 -132 l 463 -66 l 397 -66 l 397 0 l 331 0 l 331 66 l 132 66 l 132 132 m 66 66 l 132 66 l 132 0 l 66 0 l 66 66 m 397 -132 l 463 -132 l 463 -198 l 397 -198 l 397 -132 z "},"Ș":{"ha":860,"x_min":66,"x_max":860,"o":"m 265 794 l 661 794 l 661 728 l 794 728 l 794 661 l 728 661 l 728 595 l 661 595 l 661 661 l 529 661 l 529 728 l 265 728 l 265 794 m 794 794 l 860 794 l 860 728 l 794 728 l 794 794 m 331 529 l 265 529 l 265 595 l 198 595 l 198 728 l 265 728 l 265 661 l 331 661 l 331 595 l 463 595 l 463 529 l 661 529 l 661 463 l 794 463 l 794 397 l 860 397 l 860 198 l 794 198 l 794 265 l 728 265 l 728 331 l 661 331 l 661 397 l 463 397 l 463 463 l 331 463 l 331 529 m 265 397 l 198 397 l 198 463 l 132 463 l 132 595 l 198 595 l 198 529 l 265 529 l 265 463 l 331 463 l 331 397 l 463 397 l 463 331 l 661 331 l 661 265 l 728 265 l 728 198 l 529 198 l 529 265 l 397 265 l 397 331 l 265 331 l 265 397 m 132 132 l 265 132 l 265 198 l 463 198 l 463 132 l 728 132 l 728 198 l 794 198 l 794 66 l 529 66 l 529 0 l 331 0 l 331 66 l 132 66 l 132 132 m 66 66 l 132 66 l 132 0 l 66 0 l 66 66 m 397 -66 l 529 -66 l 529 -265 l 463 -265 l 463 -198 l 397 -198 l 397 -66 m 397 -265 l 463 -265 l 463 -331 l 397 -331 l 397 -265 z "},"ẞ":{"ha":992,"x_min":66,"x_max":992,"o":"m 198 66 l 265 66 l 265 132 l 331 132 l 331 661 l 265 661 l 265 728 l 397 728 l 397 794 l 926 794 l 926 728 l 992 728 l 992 529 l 926 529 l 926 463 l 860 463 l 860 661 l 794 661 l 794 463 l 860 463 l 860 397 l 794 397 l 794 132 l 728 132 l 728 265 l 595 265 l 595 331 l 728 331 l 728 397 l 595 397 l 595 463 l 728 463 l 728 661 l 661 661 l 661 728 l 463 728 l 463 198 l 397 198 l 397 66 l 331 66 l 331 0 l 198 0 l 198 66 m 66 728 l 132 728 l 132 661 l 66 661 l 66 728 m 132 661 l 265 661 l 265 132 l 198 132 l 198 595 l 132 595 l 132 661 m 926 331 l 992 331 l 992 132 l 926 132 l 926 66 l 860 66 l 860 397 l 926 397 l 926 331 m 463 198 l 529 198 l 529 132 l 463 132 l 463 198 m 529 132 l 728 132 l 728 66 l 860 66 l 860 0 l 595 0 l 595 66 l 529 66 l 529 132 m 132 132 l 198 132 l 198 66 l 132 66 l 132 132 m 66 66 l 132 66 l 132 0 l 66 0 l 66 66 z "},"T":{"ha":926,"x_min":66,"x_max":992,"o":"m 529 198 l 595 198 l 595 331 l 463 331 l 463 397 l 595 397 l 595 463 l 463 463 l 463 529 l 595 529 l 595 595 l 661 595 l 661 661 l 463 661 l 463 728 l 198 728 l 198 794 l 661 794 l 661 728 l 926 728 l 926 661 l 860 661 l 860 132 l 794 132 l 794 661 l 728 661 l 728 198 l 661 198 l 661 132 l 529 132 l 529 198 m 926 794 l 992 794 l 992 728 l 926 728 l 926 794 m 132 728 l 198 728 l 198 661 l 132 661 l 132 728 m 66 661 l 132 661 l 132 595 l 66 595 l 66 661 m 265 661 l 331 661 l 331 595 l 265 595 l 265 661 m 265 529 l 132 529 l 132 595 l 265 595 l 265 529 m 331 198 l 265 198 l 265 529 l 331 529 l 331 595 l 463 595 l 463 529 l 397 529 l 397 198 l 463 198 l 463 132 l 529 132 l 529 66 l 728 66 l 728 0 l 463 0 l 463 66 l 331 66 l 331 198 m 728 132 l 794 132 l 794 66 l 728 66 l 728 132 z "},"Ť":{"ha":926,"x_min":66,"x_max":992,"o":"m 595 860 l 595 926 l 529 926 l 529 992 l 463 992 l 463 1058 l 595 1058 l 595 992 l 661 992 l 661 1058 l 794 1058 l 794 992 l 728 992 l 728 926 l 661 926 l 661 860 l 595 860 m 529 198 l 595 198 l 595 331 l 463 331 l 463 397 l 595 397 l 595 463 l 463 463 l 463 529 l 595 529 l 595 595 l 661 595 l 661 661 l 463 661 l 463 728 l 198 728 l 198 794 l 661 794 l 661 728 l 926 728 l 926 661 l 860 661 l 860 132 l 794 132 l 794 661 l 728 661 l 728 198 l 661 198 l 661 132 l 529 132 l 529 198 m 926 794 l 992 794 l 992 728 l 926 728 l 926 794 m 132 728 l 198 728 l 198 661 l 132 661 l 132 728 m 66 661 l 132 661 l 132 595 l 66 595 l 66 661 m 265 661 l 331 661 l 331 595 l 265 595 l 265 661 m 265 529 l 132 529 l 132 595 l 265 595 l 265 529 m 331 198 l 265 198 l 265 529 l 331 529 l 331 595 l 463 595 l 463 529 l 397 529 l 397 198 l 463 198 l 463 132 l 529 132 l 529 66 l 728 66 l 728 0 l 463 0 l 463 66 l 331 66 l 331 198 m 728 132 l 794 132 l 794 66 l 728 66 l 728 132 z "},"Ț":{"ha":926,"x_min":66,"x_max":992,"o":"m 529 198 l 595 198 l 595 331 l 463 331 l 463 397 l 595 397 l 595 463 l 463 463 l 463 529 l 595 529 l 595 595 l 661 595 l 661 661 l 463 661 l 463 728 l 198 728 l 198 794 l 661 794 l 661 728 l 926 728 l 926 661 l 860 661 l 860 132 l 794 132 l 794 661 l 728 661 l 728 198 l 661 198 l 661 132 l 529 132 l 529 198 m 926 794 l 992 794 l 992 728 l 926 728 l 926 794 m 132 728 l 198 728 l 198 661 l 132 661 l 132 728 m 66 661 l 132 661 l 132 595 l 66 595 l 66 661 m 265 661 l 331 661 l 331 595 l 265 595 l 265 661 m 331 198 l 265 198 l 265 529 l 331 529 l 331 595 l 463 595 l 463 529 l 397 529 l 397 198 l 463 198 l 463 132 l 529 132 l 529 66 l 728 66 l 728 0 l 463 0 l 463 66 l 331 66 l 331 198 m 265 529 l 132 529 l 132 595 l 265 595 l 265 529 m 728 132 l 794 132 l 794 66 l 728 66 l 728 132 m 529 -66 l 661 -66 l 661 -265 l 595 -265 l 595 -198 l 529 -198 l 529 -66 m 529 -265 l 595 -265 l 595 -331 l 529 -331 l 529 -265 z "},"U":{"ha":992,"x_min":66,"x_max":992,"o":"m 66 794 l 132 794 l 132 728 l 66 728 l 66 794 m 794 66 l 728 66 l 728 661 l 661 661 l 661 728 l 728 728 l 728 794 l 794 794 l 794 728 l 926 728 l 926 661 l 860 661 l 860 132 l 992 132 l 992 66 l 926 66 l 926 0 l 794 0 l 794 66 m 926 794 l 992 794 l 992 728 l 926 728 l 926 794 m 265 397 l 397 397 l 397 463 l 265 463 l 265 529 l 397 529 l 397 661 l 132 661 l 132 728 l 265 728 l 265 794 l 463 794 l 463 728 l 529 728 l 529 198 l 397 198 l 397 331 l 265 331 l 265 397 m 595 661 l 661 661 l 661 132 l 595 132 l 595 661 m 132 198 l 198 198 l 198 132 l 132 132 l 132 198 m 198 132 l 595 132 l 595 66 l 529 66 l 529 0 l 331 0 l 331 66 l 198 66 l 198 132 m 132 66 l 198 66 l 198 0 l 132 0 l 132 66 z "},"Ú":{"ha":992,"x_min":66,"x_max":992,"o":"m 728 1058 l 728 992 l 661 992 l 661 926 l 595 926 l 595 860 l 529 860 l 529 992 l 595 992 l 595 1058 l 728 1058 m 66 794 l 132 794 l 132 728 l 66 728 l 66 794 m 794 66 l 728 66 l 728 661 l 661 661 l 661 728 l 728 728 l 728 794 l 794 794 l 794 728 l 926 728 l 926 661 l 860 661 l 860 132 l 992 132 l 992 66 l 926 66 l 926 0 l 794 0 l 794 66 m 265 397 l 397 397 l 397 463 l 265 463 l 265 529 l 397 529 l 397 661 l 132 661 l 132 728 l 265 728 l 265 794 l 463 794 l 463 728 l 529 728 l 529 198 l 397 198 l 397 331 l 265 331 l 265 397 m 926 794 l 992 794 l 992 728 l 926 728 l 926 794 m 595 661 l 661 661 l 661 132 l 595 132 l 595 661 m 132 198 l 198 198 l 198 132 l 132 132 l 132 198 m 198 132 l 595 132 l 595 66 l 529 66 l 529 0 l 331 0 l 331 66 l 198 66 l 198 132 m 132 66 l 198 66 l 198 0 l 132 0 l 132 66 z "},"Ŭ":{"ha":992,"x_min":66,"x_max":992,"o":"m 463 1058 l 529 1058 l 529 992 l 728 992 l 728 1058 l 794 1058 l 794 926 l 728 926 l 728 860 l 529 860 l 529 926 l 463 926 l 463 1058 m 66 794 l 132 794 l 132 728 l 66 728 l 66 794 m 265 397 l 397 397 l 397 463 l 265 463 l 265 529 l 397 529 l 397 661 l 132 661 l 132 728 l 265 728 l 265 794 l 463 794 l 463 728 l 529 728 l 529 198 l 397 198 l 397 331 l 265 331 l 265 397 m 926 794 l 992 794 l 992 728 l 926 728 l 926 794 m 794 66 l 728 66 l 728 661 l 661 661 l 661 728 l 728 728 l 728 794 l 794 794 l 794 728 l 926 728 l 926 661 l 860 661 l 860 132 l 992 132 l 992 66 l 926 66 l 926 0 l 794 0 l 794 66 m 595 661 l 661 661 l 661 132 l 595 132 l 595 661 m 132 198 l 198 198 l 198 132 l 132 132 l 132 198 m 198 132 l 595 132 l 595 66 l 529 66 l 529 0 l 331 0 l 331 66 l 198 66 l 198 132 m 132 66 l 198 66 l 198 0 l 132 0 l 132 66 z "},"Û":{"ha":992,"x_min":66,"x_max":992,"o":"m 463 926 l 529 926 l 529 992 l 595 992 l 595 1058 l 661 1058 l 661 992 l 728 992 l 728 926 l 794 926 l 794 860 l 661 860 l 661 926 l 595 926 l 595 860 l 463 860 l 463 926 m 265 397 l 397 397 l 397 463 l 265 463 l 265 529 l 397 529 l 397 661 l 132 661 l 132 728 l 265 728 l 265 794 l 463 794 l 463 728 l 529 728 l 529 198 l 397 198 l 397 331 l 265 331 l 265 397 m 926 794 l 992 794 l 992 728 l 926 728 l 926 794 m 794 66 l 728 66 l 728 661 l 661 661 l 661 728 l 728 728 l 728 794 l 794 794 l 794 728 l 926 728 l 926 661 l 860 661 l 860 132 l 992 132 l 992 66 l 926 66 l 926 0 l 794 0 l 794 66 m 66 794 l 132 794 l 132 728 l 66 728 l 66 794 m 595 661 l 661 661 l 661 132 l 595 132 l 595 661 m 132 198 l 198 198 l 198 132 l 132 132 l 132 198 m 198 132 l 595 132 l 595 66 l 529 66 l 529 0 l 331 0 l 331 66 l 198 66 l 198 132 m 132 66 l 198 66 l 198 0 l 132 0 l 132 66 z "},"Ü":{"ha":992,"x_min":66,"x_max":992,"o":"m 661 992 l 794 992 l 794 860 l 661 860 l 661 992 m 463 992 l 595 992 l 595 860 l 463 860 l 463 992 m 265 397 l 397 397 l 397 463 l 265 463 l 265 529 l 397 529 l 397 661 l 132 661 l 132 728 l 265 728 l 265 794 l 463 794 l 463 728 l 529 728 l 529 198 l 397 198 l 397 331 l 265 331 l 265 397 m 926 794 l 992 794 l 992 728 l 926 728 l 926 794 m 794 66 l 728 66 l 728 661 l 661 661 l 661 728 l 728 728 l 728 794 l 794 794 l 794 728 l 926 728 l 926 661 l 860 661 l 860 132 l 992 132 l 992 66 l 926 66 l 926 0 l 794 0 l 794 66 m 66 794 l 132 794 l 132 728 l 66 728 l 66 794 m 595 661 l 661 661 l 661 132 l 595 132 l 595 661 m 132 198 l 198 198 l 198 132 l 132 132 l 132 198 m 198 132 l 595 132 l 595 66 l 529 66 l 529 0 l 331 0 l 331 66 l 198 66 l 198 132 m 132 66 l 198 66 l 198 0 l 132 0 l 132 66 z "},"Ù":{"ha":992,"x_min":66,"x_max":992,"o":"m 529 1058 l 661 1058 l 661 992 l 728 992 l 728 860 l 661 860 l 661 926 l 595 926 l 595 992 l 529 992 l 529 1058 m 66 794 l 132 794 l 132 728 l 66 728 l 66 794 m 794 66 l 728 66 l 728 661 l 661 661 l 661 728 l 728 728 l 728 794 l 794 794 l 794 728 l 926 728 l 926 661 l 860 661 l 860 132 l 992 132 l 992 66 l 926 66 l 926 0 l 794 0 l 794 66 m 265 397 l 397 397 l 397 463 l 265 463 l 265 529 l 397 529 l 397 661 l 132 661 l 132 728 l 265 728 l 265 794 l 463 794 l 463 728 l 529 728 l 529 198 l 397 198 l 397 331 l 265 331 l 265 397 m 926 794 l 992 794 l 992 728 l 926 728 l 926 794 m 595 661 l 661 661 l 661 132 l 595 132 l 595 661 m 132 198 l 198 198 l 198 132 l 132 132 l 132 198 m 198 132 l 595 132 l 595 66 l 529 66 l 529 0 l 331 0 l 331 66 l 198 66 l 198 132 m 132 66 l 198 66 l 198 0 l 132 0 l 132 66 z "},"Ű":{"ha":992,"x_min":66,"x_max":992,"o":"m 794 1058 l 794 992 l 728 992 l 728 926 l 661 926 l 661 860 l 595 860 l 595 992 l 661 992 l 661 1058 l 794 1058 m 595 1058 l 595 992 l 529 992 l 529 926 l 463 926 l 463 860 l 397 860 l 397 992 l 463 992 l 463 1058 l 595 1058 m 66 794 l 132 794 l 132 728 l 66 728 l 66 794 m 265 397 l 397 397 l 397 463 l 265 463 l 265 529 l 397 529 l 397 661 l 132 661 l 132 728 l 265 728 l 265 794 l 463 794 l 463 728 l 529 728 l 529 198 l 397 198 l 397 331 l 265 331 l 265 397 m 926 794 l 992 794 l 992 728 l 926 728 l 926 794 m 794 66 l 728 66 l 728 661 l 661 661 l 661 728 l 728 728 l 728 794 l 794 794 l 794 728 l 926 728 l 926 661 l 860 661 l 860 132 l 992 132 l 992 66 l 926 66 l 926 0 l 794 0 l 794 66 m 595 661 l 661 661 l 661 132 l 595 132 l 595 661 m 132 198 l 198 198 l 198 132 l 132 132 l 132 198 m 198 132 l 595 132 l 595 66 l 529 66 l 529 0 l 331 0 l 331 66 l 198 66 l 198 132 m 132 66 l 198 66 l 198 0 l 132 0 l 132 66 z "},"Ū":{"ha":992,"x_min":66,"x_max":992,"o":"m 463 992 l 728 992 l 728 860 l 463 860 l 463 992 m 265 397 l 397 397 l 397 463 l 265 463 l 265 529 l 397 529 l 397 661 l 132 661 l 132 728 l 265 728 l 265 794 l 463 794 l 463 728 l 529 728 l 529 198 l 397 198 l 397 331 l 265 331 l 265 397 m 926 794 l 992 794 l 992 728 l 926 728 l 926 794 m 794 66 l 728 66 l 728 661 l 661 661 l 661 728 l 728 728 l 728 794 l 794 794 l 794 728 l 926 728 l 926 661 l 860 661 l 860 132 l 992 132 l 992 66 l 926 66 l 926 0 l 794 0 l 794 66 m 66 794 l 132 794 l 132 728 l 66 728 l 66 794 m 595 661 l 661 661 l 661 132 l 595 132 l 595 661 m 132 198 l 198 198 l 198 132 l 132 132 l 132 198 m 198 132 l 595 132 l 595 66 l 529 66 l 529 0 l 331 0 l 331 66 l 198 66 l 198 132 m 132 66 l 198 66 l 198 0 l 132 0 l 132 66 z "},"Ų":{"ha":992,"x_min":66,"x_max":992,"o":"m 66 794 l 132 794 l 132 728 l 66 728 l 66 794 m 265 397 l 397 397 l 397 463 l 265 463 l 265 529 l 397 529 l 397 661 l 132 661 l 132 728 l 265 728 l 265 794 l 463 794 l 463 728 l 529 728 l 529 198 l 397 198 l 397 331 l 265 331 l 265 397 m 794 66 l 728 66 l 728 661 l 661 661 l 661 728 l 728 728 l 728 794 l 794 794 l 794 728 l 926 728 l 926 661 l 860 661 l 860 132 l 992 132 l 992 66 l 926 66 l 926 0 l 794 0 l 794 66 m 926 794 l 992 794 l 992 728 l 926 728 l 926 794 m 595 661 l 661 661 l 661 132 l 595 132 l 595 661 m 132 198 l 198 198 l 198 132 l 132 132 l 132 198 m 198 132 l 595 132 l 595 66 l 529 66 l 529 0 l 331 0 l 331 66 l 198 66 l 198 132 m 132 66 l 198 66 l 198 0 l 132 0 l 132 66 m 529 0 l 595 0 l 595 -66 l 529 -66 l 529 0 m 463 -66 l 529 -66 l 529 -132 l 595 -132 l 595 -198 l 463 -198 l 463 -66 z "},"Ů":{"ha":992,"x_min":66,"x_max":992,"o":"m 661 926 l 661 992 l 595 992 l 595 926 l 661 926 m 265 397 l 397 397 l 397 463 l 265 463 l 265 529 l 397 529 l 397 661 l 132 661 l 132 728 l 265 728 l 265 794 l 463 794 l 463 728 l 529 728 l 529 198 l 397 198 l 397 331 l 265 331 l 265 397 m 926 794 l 992 794 l 992 728 l 926 728 l 926 794 m 794 66 l 728 66 l 728 661 l 661 661 l 661 728 l 728 728 l 728 794 l 794 794 l 794 728 l 926 728 l 926 661 l 860 661 l 860 132 l 992 132 l 992 66 l 926 66 l 926 0 l 794 0 l 794 66 m 66 794 l 132 794 l 132 728 l 66 728 l 66 794 m 595 661 l 661 661 l 661 132 l 595 132 l 595 661 m 132 198 l 198 198 l 198 132 l 132 132 l 132 198 m 198 132 l 595 132 l 595 66 l 529 66 l 529 0 l 331 0 l 331 66 l 198 66 l 198 132 m 132 66 l 198 66 l 198 0 l 132 0 l 132 66 m 529 1058 l 728 1058 l 728 860 l 529 860 l 529 1058 z "},"V":{"ha":926,"x_min":66,"x_max":992,"o":"m 66 794 l 132 794 l 132 728 l 66 728 l 66 794 m 595 728 l 661 728 l 661 794 l 794 794 l 794 728 l 926 728 l 926 661 l 860 661 l 860 198 l 794 198 l 794 132 l 728 132 l 728 661 l 595 661 l 595 728 m 926 794 l 992 794 l 992 728 l 926 728 l 926 794 m 265 397 l 397 397 l 397 463 l 265 463 l 265 529 l 397 529 l 397 661 l 132 661 l 132 728 l 265 728 l 265 794 l 463 794 l 463 728 l 529 728 l 529 661 l 595 661 l 595 595 l 529 595 l 529 198 l 397 198 l 397 331 l 265 331 l 265 397 m 198 132 l 595 132 l 595 595 l 661 595 l 661 132 l 728 132 l 728 66 l 661 66 l 661 0 l 463 0 l 463 66 l 198 66 l 198 132 m 132 66 l 198 66 l 198 0 l 132 0 l 132 66 z "},"W":{"ha":992,"x_min":66,"x_max":992,"o":"m 132 397 l 265 397 l 265 463 l 132 463 l 132 529 l 265 529 l 265 661 l 66 661 l 66 728 l 132 728 l 132 794 l 331 794 l 331 728 l 397 728 l 397 794 l 595 794 l 595 728 l 728 728 l 728 794 l 860 794 l 860 728 l 926 728 l 926 132 l 860 132 l 860 66 l 728 66 l 728 0 l 595 0 l 595 66 l 529 66 l 529 132 l 463 132 l 463 198 l 529 198 l 529 661 l 397 661 l 397 198 l 265 198 l 265 331 l 132 331 l 132 397 m 926 794 l 992 794 l 992 728 l 926 728 l 926 794 m 132 132 l 198 132 l 198 198 l 265 198 l 265 132 l 463 132 l 463 66 l 397 66 l 397 0 l 265 0 l 265 66 l 132 66 l 132 132 m 66 66 l 132 66 l 132 0 l 66 0 l 66 66 m 661 132 l 794 132 l 794 661 l 661 661 l 661 132 z "},"Ẃ":{"ha":992,"x_min":66,"x_max":992,"o":"m 661 1058 l 661 992 l 595 992 l 595 926 l 529 926 l 529 860 l 463 860 l 463 992 l 529 992 l 529 1058 l 661 1058 m 926 794 l 992 794 l 992 728 l 926 728 l 926 794 m 661 132 l 794 132 l 794 661 l 661 661 l 661 132 m 132 132 l 198 132 l 198 198 l 265 198 l 265 132 l 463 132 l 463 66 l 397 66 l 397 0 l 265 0 l 265 66 l 132 66 l 132 132 m 66 66 l 132 66 l 132 0 l 66 0 l 66 66 m 132 397 l 265 397 l 265 463 l 132 463 l 132 529 l 265 529 l 265 661 l 66 661 l 66 728 l 132 728 l 132 794 l 331 794 l 331 728 l 397 728 l 397 794 l 595 794 l 595 728 l 728 728 l 728 794 l 860 794 l 860 728 l 926 728 l 926 132 l 860 132 l 860 66 l 728 66 l 728 0 l 595 0 l 595 66 l 529 66 l 529 132 l 463 132 l 463 198 l 529 198 l 529 661 l 397 661 l 397 198 l 265 198 l 265 331 l 132 331 l 132 397 z "},"Ŵ":{"ha":992,"x_min":66,"x_max":992,"o":"m 397 926 l 463 926 l 463 992 l 529 992 l 529 1058 l 595 1058 l 595 992 l 661 992 l 661 926 l 728 926 l 728 860 l 595 860 l 595 926 l 529 926 l 529 860 l 397 860 l 397 926 m 661 132 l 794 132 l 794 661 l 661 661 l 661 132 m 926 794 l 992 794 l 992 728 l 926 728 l 926 794 m 132 132 l 198 132 l 198 198 l 265 198 l 265 132 l 463 132 l 463 66 l 397 66 l 397 0 l 265 0 l 265 66 l 132 66 l 132 132 m 66 66 l 132 66 l 132 0 l 66 0 l 66 66 m 132 397 l 265 397 l 265 463 l 132 463 l 132 529 l 265 529 l 265 661 l 66 661 l 66 728 l 132 728 l 132 794 l 331 794 l 331 728 l 397 728 l 397 794 l 595 794 l 595 728 l 728 728 l 728 794 l 860 794 l 860 728 l 926 728 l 926 132 l 860 132 l 860 66 l 728 66 l 728 0 l 595 0 l 595 66 l 529 66 l 529 132 l 463 132 l 463 198 l 529 198 l 529 661 l 397 661 l 397 198 l 265 198 l 265 331 l 132 331 l 132 397 z "},"Ẅ":{"ha":992,"x_min":66,"x_max":992,"o":"m 595 992 l 728 992 l 728 860 l 595 860 l 595 992 m 397 992 l 529 992 l 529 860 l 397 860 l 397 992 m 661 132 l 794 132 l 794 661 l 661 661 l 661 132 m 926 794 l 992 794 l 992 728 l 926 728 l 926 794 m 132 132 l 198 132 l 198 198 l 265 198 l 265 132 l 463 132 l 463 66 l 397 66 l 397 0 l 265 0 l 265 66 l 132 66 l 132 132 m 66 66 l 132 66 l 132 0 l 66 0 l 66 66 m 132 397 l 265 397 l 265 463 l 132 463 l 132 529 l 265 529 l 265 661 l 66 661 l 66 728 l 132 728 l 132 794 l 331 794 l 331 728 l 397 728 l 397 794 l 595 794 l 595 728 l 728 728 l 728 794 l 860 794 l 860 728 l 926 728 l 926 132 l 860 132 l 860 66 l 728 66 l 728 0 l 595 0 l 595 66 l 529 66 l 529 132 l 463 132 l 463 198 l 529 198 l 529 661 l 397 661 l 397 198 l 265 198 l 265 331 l 132 331 l 132 397 z "},"Ẁ":{"ha":992,"x_min":66,"x_max":992,"o":"m 463 1058 l 595 1058 l 595 992 l 661 992 l 661 860 l 595 860 l 595 926 l 529 926 l 529 992 l 463 992 l 463 1058 m 926 794 l 992 794 l 992 728 l 926 728 l 926 794 m 661 132 l 794 132 l 794 661 l 661 661 l 661 132 m 132 132 l 198 132 l 198 198 l 265 198 l 265 132 l 463 132 l 463 66 l 397 66 l 397 0 l 265 0 l 265 66 l 132 66 l 132 132 m 66 66 l 132 66 l 132 0 l 66 0 l 66 66 m 132 397 l 265 397 l 265 463 l 132 463 l 132 529 l 265 529 l 265 661 l 66 661 l 66 728 l 132 728 l 132 794 l 331 794 l 331 728 l 397 728 l 397 794 l 595 794 l 595 728 l 728 728 l 728 794 l 860 794 l 860 728 l 926 728 l 926 132 l 860 132 l 860 66 l 728 66 l 728 0 l 595 0 l 595 66 l 529 66 l 529 132 l 463 132 l 463 198 l 529 198 l 529 661 l 397 661 l 397 198 l 265 198 l 265 331 l 132 331 l 132 397 z "},"X":{"ha":926,"x_min":66,"x_max":926,"o":"m 132 794 l 198 794 l 198 728 l 132 728 l 132 794 m 529 132 l 463 132 l 463 397 l 331 397 l 331 463 l 463 463 l 463 728 l 397 728 l 397 661 l 198 661 l 198 728 l 331 728 l 331 794 l 529 794 l 529 728 l 595 728 l 595 661 l 661 661 l 661 595 l 595 595 l 595 463 l 728 463 l 728 397 l 595 397 l 595 198 l 661 198 l 661 132 l 728 132 l 728 66 l 661 66 l 661 0 l 595 0 l 595 66 l 529 66 l 529 132 m 860 794 l 926 794 l 926 728 l 860 728 l 860 794 m 661 728 l 728 728 l 728 794 l 794 794 l 794 728 l 860 728 l 860 661 l 661 661 l 661 728 m 132 132 l 198 132 l 198 198 l 397 198 l 397 132 l 463 132 l 463 0 l 397 0 l 397 66 l 132 66 l 132 132 m 728 198 l 794 198 l 794 132 l 728 132 l 728 198 m 66 66 l 132 66 l 132 0 l 66 0 l 66 66 z "},"Y":{"ha":926,"x_min":66,"x_max":926,"o":"m 66 794 l 132 794 l 132 728 l 66 728 l 66 794 m 265 397 l 397 397 l 397 463 l 265 463 l 265 529 l 397 529 l 397 661 l 132 661 l 132 728 l 265 728 l 265 794 l 463 794 l 463 728 l 529 728 l 529 661 l 595 661 l 595 595 l 529 595 l 529 198 l 595 198 l 595 132 l 728 132 l 728 661 l 595 661 l 595 728 l 661 728 l 661 794 l 794 794 l 794 728 l 860 728 l 860 0 l 794 0 l 794 -66 l 728 -66 l 728 66 l 661 66 l 661 0 l 529 0 l 529 66 l 463 66 l 463 132 l 397 132 l 397 331 l 265 331 l 265 397 m 860 794 l 926 794 l 926 728 l 860 728 l 860 794 m 265 0 l 331 0 l 331 66 l 397 66 l 397 0 l 463 0 l 463 -66 l 728 -66 l 728 -132 l 397 -132 l 397 -66 l 265 -66 l 265 0 m 198 -66 l 265 -66 l 265 -132 l 198 -132 l 198 -66 z "},"Ý":{"ha":926,"x_min":66,"x_max":926,"o":"m 661 1058 l 661 992 l 595 992 l 595 926 l 529 926 l 529 860 l 463 860 l 463 992 l 529 992 l 529 1058 l 661 1058 m 66 794 l 132 794 l 132 728 l 66 728 l 66 794 m 265 397 l 397 397 l 397 463 l 265 463 l 265 529 l 397 529 l 397 661 l 132 661 l 132 728 l 265 728 l 265 794 l 463 794 l 463 728 l 529 728 l 529 661 l 595 661 l 595 595 l 529 595 l 529 198 l 595 198 l 595 132 l 728 132 l 728 661 l 595 661 l 595 728 l 661 728 l 661 794 l 794 794 l 794 728 l 860 728 l 860 0 l 794 0 l 794 -66 l 728 -66 l 728 66 l 661 66 l 661 0 l 529 0 l 529 66 l 463 66 l 463 132 l 397 132 l 397 331 l 265 331 l 265 397 m 860 794 l 926 794 l 926 728 l 860 728 l 860 794 m 265 0 l 331 0 l 331 66 l 397 66 l 397 0 l 463 0 l 463 -66 l 728 -66 l 728 -132 l 397 -132 l 397 -66 l 265 -66 l 265 0 m 198 -66 l 265 -66 l 265 -132 l 198 -132 l 198 -66 z "},"Ŷ":{"ha":926,"x_min":66,"x_max":926,"o":"m 397 926 l 463 926 l 463 992 l 529 992 l 529 1058 l 595 1058 l 595 992 l 661 992 l 661 926 l 728 926 l 728 860 l 595 860 l 595 926 l 529 926 l 529 860 l 397 860 l 397 926 m 265 397 l 397 397 l 397 463 l 265 463 l 265 529 l 397 529 l 397 661 l 132 661 l 132 728 l 265 728 l 265 794 l 463 794 l 463 728 l 529 728 l 529 661 l 595 661 l 595 595 l 529 595 l 529 198 l 595 198 l 595 132 l 728 132 l 728 661 l 595 661 l 595 728 l 661 728 l 661 794 l 794 794 l 794 728 l 860 728 l 860 0 l 794 0 l 794 -66 l 728 -66 l 728 66 l 661 66 l 661 0 l 529 0 l 529 66 l 463 66 l 463 132 l 397 132 l 397 331 l 265 331 l 265 397 m 860 794 l 926 794 l 926 728 l 860 728 l 860 794 m 66 794 l 132 794 l 132 728 l 66 728 l 66 794 m 265 0 l 331 0 l 331 66 l 397 66 l 397 0 l 463 0 l 463 -66 l 728 -66 l 728 -132 l 397 -132 l 397 -66 l 265 -66 l 265 0 m 198 -66 l 265 -66 l 265 -132 l 198 -132 l 198 -66 z "},"Ÿ":{"ha":926,"x_min":66,"x_max":926,"o":"m 595 992 l 728 992 l 728 860 l 595 860 l 595 992 m 397 992 l 529 992 l 529 860 l 397 860 l 397 992 m 265 397 l 397 397 l 397 463 l 265 463 l 265 529 l 397 529 l 397 661 l 132 661 l 132 728 l 265 728 l 265 794 l 463 794 l 463 728 l 529 728 l 529 661 l 595 661 l 595 595 l 529 595 l 529 198 l 595 198 l 595 132 l 728 132 l 728 661 l 595 661 l 595 728 l 661 728 l 661 794 l 794 794 l 794 728 l 860 728 l 860 0 l 794 0 l 794 -66 l 728 -66 l 728 66 l 661 66 l 661 0 l 529 0 l 529 66 l 463 66 l 463 132 l 397 132 l 397 331 l 265 331 l 265 397 m 860 794 l 926 794 l 926 728 l 860 728 l 860 794 m 66 794 l 132 794 l 132 728 l 66 728 l 66 794 m 265 0 l 331 0 l 331 66 l 397 66 l 397 0 l 463 0 l 463 -66 l 728 -66 l 728 -132 l 397 -132 l 397 -66 l 265 -66 l 265 0 m 198 -66 l 265 -66 l 265 -132 l 198 -132 l 198 -66 z "},"Ỳ":{"ha":926,"x_min":66,"x_max":926,"o":"m 463 1058 l 595 1058 l 595 992 l 661 992 l 661 860 l 595 860 l 595 926 l 529 926 l 529 992 l 463 992 l 463 1058 m 66 794 l 132 794 l 132 728 l 66 728 l 66 794 m 265 397 l 397 397 l 397 463 l 265 463 l 265 529 l 397 529 l 397 661 l 132 661 l 132 728 l 265 728 l 265 794 l 463 794 l 463 728 l 529 728 l 529 661 l 595 661 l 595 595 l 529 595 l 529 198 l 595 198 l 595 132 l 728 132 l 728 661 l 595 661 l 595 728 l 661 728 l 661 794 l 794 794 l 794 728 l 860 728 l 860 0 l 794 0 l 794 -66 l 728 -66 l 728 66 l 661 66 l 661 0 l 529 0 l 529 66 l 463 66 l 463 132 l 397 132 l 397 331 l 265 331 l 265 397 m 860 794 l 926 794 l 926 728 l 860 728 l 860 794 m 265 0 l 331 0 l 331 66 l 397 66 l 397 0 l 463 0 l 463 -66 l 728 -66 l 728 -132 l 397 -132 l 397 -66 l 265 -66 l 265 0 m 198 -66 l 265 -66 l 265 -132 l 198 -132 l 198 -66 z "},"Z":{"ha":794,"x_min":66,"x_max":794,"o":"m 132 728 l 198 728 l 198 794 l 794 794 l 794 728 l 728 728 l 728 661 l 661 661 l 661 595 l 595 595 l 595 661 l 132 661 l 132 728 m 66 661 l 132 661 l 132 463 l 66 463 l 66 661 m 529 595 l 595 595 l 595 529 l 529 529 l 529 595 m 198 397 l 265 397 l 265 463 l 463 463 l 463 529 l 529 529 l 529 463 l 661 463 l 661 397 l 595 397 l 595 331 l 397 331 l 397 265 l 331 265 l 331 331 l 198 331 l 198 397 m 132 463 l 198 463 l 198 397 l 132 397 l 132 463 m 265 265 l 331 265 l 331 198 l 265 198 l 265 265 m 66 66 l 132 66 l 132 132 l 198 132 l 198 198 l 265 198 l 265 132 l 728 132 l 728 66 l 661 66 l 661 0 l 66 0 l 66 66 m 728 198 l 794 198 l 794 132 l 728 132 l 728 198 z "},"Ź":{"ha":794,"x_min":66,"x_max":794,"o":"m 595 1058 l 595 992 l 529 992 l 529 926 l 463 926 l 463 860 l 397 860 l 397 992 l 463 992 l 463 1058 l 595 1058 m 132 728 l 198 728 l 198 794 l 794 794 l 794 728 l 728 728 l 728 661 l 661 661 l 661 595 l 595 595 l 595 661 l 132 661 l 132 728 m 66 661 l 132 661 l 132 463 l 66 463 l 66 661 m 529 595 l 595 595 l 595 529 l 529 529 l 529 595 m 198 397 l 265 397 l 265 463 l 463 463 l 463 529 l 529 529 l 529 463 l 661 463 l 661 397 l 595 397 l 595 331 l 397 331 l 397 265 l 331 265 l 331 331 l 198 331 l 198 397 m 132 463 l 198 463 l 198 397 l 132 397 l 132 463 m 265 265 l 331 265 l 331 198 l 265 198 l 265 265 m 66 66 l 132 66 l 132 132 l 198 132 l 198 198 l 265 198 l 265 132 l 728 132 l 728 66 l 661 66 l 661 0 l 66 0 l 66 66 m 728 198 l 794 198 l 794 132 l 728 132 l 728 198 z "},"Ž":{"ha":794,"x_min":66,"x_max":794,"o":"m 463 860 l 463 926 l 397 926 l 397 992 l 331 992 l 331 1058 l 463 1058 l 463 992 l 529 992 l 529 1058 l 661 1058 l 661 992 l 595 992 l 595 926 l 529 926 l 529 860 l 463 860 m 132 728 l 198 728 l 198 794 l 794 794 l 794 728 l 728 728 l 728 661 l 661 661 l 661 595 l 595 595 l 595 661 l 132 661 l 132 728 m 66 661 l 132 661 l 132 463 l 66 463 l 66 661 m 529 595 l 595 595 l 595 529 l 529 529 l 529 595 m 198 397 l 265 397 l 265 463 l 463 463 l 463 529 l 529 529 l 529 463 l 661 463 l 661 397 l 595 397 l 595 331 l 397 331 l 397 265 l 331 265 l 331 331 l 198 331 l 198 397 m 132 463 l 198 463 l 198 397 l 132 397 l 132 463 m 265 265 l 331 265 l 331 198 l 265 198 l 265 265 m 728 198 l 794 198 l 794 132 l 728 132 l 728 198 m 66 66 l 132 66 l 132 132 l 198 132 l 198 198 l 265 198 l 265 132 l 728 132 l 728 66 l 661 66 l 661 0 l 66 0 l 66 66 z "},"Ż":{"ha":794,"x_min":66,"x_max":794,"o":"m 397 992 l 529 992 l 529 860 l 397 860 l 397 992 m 132 728 l 198 728 l 198 794 l 794 794 l 794 728 l 728 728 l 728 661 l 661 661 l 661 595 l 595 595 l 595 661 l 132 661 l 132 728 m 66 661 l 132 661 l 132 463 l 66 463 l 66 661 m 529 595 l 595 595 l 595 529 l 529 529 l 529 595 m 198 397 l 265 397 l 265 463 l 463 463 l 463 529 l 529 529 l 529 463 l 661 463 l 661 397 l 595 397 l 595 331 l 397 331 l 397 265 l 331 265 l 331 331 l 198 331 l 198 397 m 132 463 l 198 463 l 198 397 l 132 397 l 132 463 m 265 265 l 331 265 l 331 198 l 265 198 l 265 265 m 66 66 l 132 66 l 132 132 l 198 132 l 198 198 l 265 198 l 265 132 l 728 132 l 728 66 l 661 66 l 661 0 l 66 0 l 66 66 m 728 198 l 794 198 l 794 132 l 728 132 l 728 198 z "},"a":{"ha":595,"x_min":66,"x_max":595,"o":"m 66 132 l 132 132 l 132 397 l 198 397 l 198 463 l 265 463 l 265 132 l 397 132 l 397 463 l 265 463 l 265 529 l 463 529 l 463 463 l 595 463 l 595 397 l 529 397 l 529 132 l 595 132 l 595 66 l 529 66 l 529 0 l 397 0 l 397 66 l 331 66 l 331 0 l 198 0 l 198 66 l 66 66 l 66 132 z "},"á":{"ha":595,"x_min":66,"x_max":595,"o":"m 265 794 l 331 794 l 331 860 l 463 860 l 463 794 l 397 794 l 397 728 l 331 728 l 331 661 l 265 661 l 265 794 m 66 132 l 132 132 l 132 397 l 198 397 l 198 463 l 265 463 l 265 132 l 397 132 l 397 463 l 265 463 l 265 529 l 463 529 l 463 463 l 595 463 l 595 397 l 529 397 l 529 132 l 595 132 l 595 66 l 529 66 l 529 0 l 397 0 l 397 66 l 331 66 l 331 0 l 198 0 l 198 66 l 66 66 l 66 132 z "},"ă":{"ha":595,"x_min":66,"x_max":595,"o":"m 198 860 l 265 860 l 265 794 l 463 794 l 463 860 l 529 860 l 529 728 l 463 728 l 463 661 l 265 661 l 265 728 l 198 728 l 198 860 m 66 132 l 132 132 l 132 397 l 198 397 l 198 463 l 265 463 l 265 132 l 397 132 l 397 463 l 265 463 l 265 529 l 463 529 l 463 463 l 595 463 l 595 397 l 529 397 l 529 132 l 595 132 l 595 66 l 529 66 l 529 0 l 397 0 l 397 66 l 331 66 l 331 0 l 198 0 l 198 66 l 66 66 l 66 132 z "},"â":{"ha":595,"x_min":66,"x_max":595,"o":"m 198 728 l 265 728 l 265 794 l 331 794 l 331 860 l 397 860 l 397 794 l 463 794 l 463 728 l 529 728 l 529 661 l 397 661 l 397 728 l 331 728 l 331 661 l 198 661 l 198 728 m 66 132 l 132 132 l 132 397 l 198 397 l 198 463 l 265 463 l 265 132 l 397 132 l 397 463 l 265 463 l 265 529 l 463 529 l 463 463 l 595 463 l 595 397 l 529 397 l 529 132 l 595 132 l 595 66 l 529 66 l 529 0 l 397 0 l 397 66 l 331 66 l 331 0 l 198 0 l 198 66 l 66 66 l 66 132 z "},"ä":{"ha":595,"x_min":66,"x_max":595,"o":"m 397 794 l 529 794 l 529 661 l 397 661 l 397 794 m 198 794 l 331 794 l 331 661 l 198 661 l 198 794 m 66 132 l 132 132 l 132 397 l 198 397 l 198 463 l 265 463 l 265 132 l 397 132 l 397 463 l 265 463 l 265 529 l 463 529 l 463 463 l 595 463 l 595 397 l 529 397 l 529 132 l 595 132 l 595 66 l 529 66 l 529 0 l 397 0 l 397 66 l 331 66 l 331 0 l 198 0 l 198 66 l 66 66 l 66 132 z "},"à":{"ha":595,"x_min":66,"x_max":595,"o":"m 265 860 l 397 860 l 397 794 l 463 794 l 463 661 l 397 661 l 397 728 l 331 728 l 331 794 l 265 794 l 265 860 m 66 132 l 132 132 l 132 397 l 198 397 l 198 463 l 265 463 l 265 132 l 397 132 l 397 463 l 265 463 l 265 529 l 463 529 l 463 463 l 595 463 l 595 397 l 529 397 l 529 132 l 595 132 l 595 66 l 529 66 l 529 0 l 397 0 l 397 66 l 331 66 l 331 0 l 198 0 l 198 66 l 66 66 l 66 132 z "},"ā":{"ha":595,"x_min":66,"x_max":595,"o":"m 198 794 l 463 794 l 463 661 l 198 661 l 198 794 m 66 132 l 132 132 l 132 397 l 198 397 l 198 463 l 265 463 l 265 132 l 397 132 l 397 463 l 265 463 l 265 529 l 463 529 l 463 463 l 595 463 l 595 397 l 529 397 l 529 132 l 595 132 l 595 66 l 529 66 l 529 0 l 397 0 l 397 66 l 331 66 l 331 0 l 198 0 l 198 66 l 66 66 l 66 132 z "},"ą":{"ha":595,"x_min":66,"x_max":595,"o":"m 66 132 l 132 132 l 132 397 l 198 397 l 198 463 l 265 463 l 265 132 l 397 132 l 397 463 l 265 463 l 265 529 l 463 529 l 463 463 l 595 463 l 595 397 l 529 397 l 529 132 l 595 132 l 595 66 l 529 66 l 529 0 l 397 0 l 397 66 l 331 66 l 331 0 l 198 0 l 198 66 l 66 66 l 66 132 m 331 0 l 397 0 l 397 -66 l 331 -66 l 331 0 m 265 -66 l 331 -66 l 331 -132 l 397 -132 l 397 -198 l 265 -198 l 265 -66 z "},"å":{"ha":595,"x_min":66,"x_max":595,"o":"m 265 860 l 463 860 l 463 661 l 265 661 l 265 860 m 66 132 l 132 132 l 132 397 l 198 397 l 198 463 l 265 463 l 265 132 l 397 132 l 397 463 l 265 463 l 265 529 l 463 529 l 463 463 l 595 463 l 595 397 l 529 397 l 529 132 l 595 132 l 595 66 l 529 66 l 529 0 l 397 0 l 397 66 l 331 66 l 331 0 l 198 0 l 198 66 l 66 66 l 66 132 m 397 794 l 331 794 l 331 728 l 397 728 l 397 794 z "},"ã":{"ha":595,"x_min":66,"x_max":595,"o":"m 198 794 l 265 794 l 265 860 l 331 860 l 331 794 l 397 794 l 397 860 l 529 860 l 529 728 l 463 728 l 463 661 l 397 661 l 397 728 l 331 728 l 331 661 l 198 661 l 198 794 m 66 132 l 132 132 l 132 397 l 198 397 l 198 463 l 265 463 l 265 132 l 397 132 l 397 463 l 265 463 l 265 529 l 463 529 l 463 463 l 595 463 l 595 397 l 529 397 l 529 132 l 595 132 l 595 66 l 529 66 l 529 0 l 397 0 l 397 66 l 331 66 l 331 0 l 198 0 l 198 66 l 66 66 l 66 132 z "},"æ":{"ha":794,"x_min":66,"x_max":794,"o":"m 529 529 l 728 529 l 728 463 l 794 463 l 794 331 l 661 331 l 661 397 l 595 397 l 595 463 l 529 463 l 529 529 m 66 132 l 132 132 l 132 397 l 198 397 l 198 463 l 265 463 l 265 132 l 397 132 l 397 463 l 265 463 l 265 529 l 463 529 l 463 463 l 529 463 l 529 331 l 661 331 l 661 265 l 529 265 l 529 132 l 661 132 l 661 66 l 529 66 l 529 0 l 397 0 l 397 66 l 331 66 l 331 0 l 198 0 l 198 66 l 66 66 l 66 132 z "},"b":{"ha":595,"x_min":66,"x_max":595,"o":"m 66 132 l 132 132 l 132 661 l 198 661 l 198 728 l 265 728 l 265 463 l 331 463 l 331 397 l 265 397 l 265 132 l 397 132 l 397 463 l 331 463 l 331 529 l 463 529 l 463 463 l 595 463 l 595 397 l 529 397 l 529 132 l 463 132 l 463 66 l 331 66 l 331 0 l 198 0 l 198 66 l 66 66 l 66 132 z "},"c":{"ha":463,"x_min":66,"x_max":463,"o":"m 265 529 l 463 529 l 463 397 l 331 397 l 331 463 l 265 463 l 265 529 m 66 132 l 132 132 l 132 397 l 198 397 l 198 463 l 265 463 l 265 132 l 397 132 l 397 66 l 265 66 l 265 0 l 132 0 l 132 66 l 66 66 l 66 132 z "},"ć":{"ha":463,"x_min":66,"x_max":463,"o":"m 198 794 l 265 794 l 265 860 l 397 860 l 397 794 l 331 794 l 331 728 l 265 728 l 265 661 l 198 661 l 198 794 m 265 529 l 463 529 l 463 397 l 331 397 l 331 463 l 265 463 l 265 529 m 66 132 l 132 132 l 132 397 l 198 397 l 198 463 l 265 463 l 265 132 l 397 132 l 397 66 l 265 66 l 265 0 l 132 0 l 132 66 l 66 66 l 66 132 z "},"č":{"ha":463,"x_min":66,"x_max":463,"o":"m 265 661 l 265 728 l 198 728 l 198 794 l 132 794 l 132 860 l 265 860 l 265 794 l 331 794 l 331 860 l 463 860 l 463 794 l 397 794 l 397 728 l 331 728 l 331 661 l 265 661 m 265 529 l 463 529 l 463 397 l 331 397 l 331 463 l 265 463 l 265 529 m 66 132 l 132 132 l 132 397 l 198 397 l 198 463 l 265 463 l 265 132 l 397 132 l 397 66 l 265 66 l 265 0 l 132 0 l 132 66 l 66 66 l 66 132 z "},"ç":{"ha":463,"x_min":66,"x_max":463,"o":"m 265 529 l 463 529 l 463 397 l 331 397 l 331 463 l 265 463 l 265 529 m 66 132 l 132 132 l 132 397 l 198 397 l 198 463 l 265 463 l 265 132 l 397 132 l 397 66 l 265 66 l 265 0 l 132 0 l 132 66 l 66 66 l 66 132 m 265 0 l 397 0 l 397 -132 l 331 -132 l 331 -66 l 265 -66 l 265 0 m 265 -132 l 331 -132 l 331 -198 l 265 -198 l 265 -132 z "},"ċ":{"ha":463,"x_min":66,"x_max":463,"o":"m 198 794 l 331 794 l 331 661 l 198 661 l 198 794 m 265 529 l 463 529 l 463 397 l 331 397 l 331 463 l 265 463 l 265 529 m 66 132 l 132 132 l 132 397 l 198 397 l 198 463 l 265 463 l 265 132 l 397 132 l 397 66 l 265 66 l 265 0 l 132 0 l 132 66 l 66 66 l 66 132 z "},"d":{"ha":529,"x_min":66,"x_max":529,"o":"m 66 132 l 132 132 l 132 463 l 198 463 l 198 529 l 265 529 l 265 132 l 397 132 l 397 463 l 331 463 l 331 529 l 265 529 l 265 595 l 198 595 l 198 661 l 132 661 l 132 794 l 198 794 l 198 728 l 331 728 l 331 661 l 397 661 l 397 595 l 463 595 l 463 529 l 529 529 l 529 132 l 463 132 l 463 66 l 331 66 l 331 0 l 198 0 l 198 66 l 66 66 l 66 132 z "},"ð":{"ha":529,"x_min":66,"x_max":529,"o":"m 66 132 l 132 132 l 132 463 l 198 463 l 198 529 l 265 529 l 265 132 l 397 132 l 397 463 l 331 463 l 331 529 l 265 529 l 265 595 l 132 595 l 132 529 l 66 529 l 66 661 l 132 661 l 132 794 l 198 794 l 198 728 l 265 728 l 265 794 l 331 794 l 331 860 l 397 860 l 397 728 l 331 728 l 331 661 l 397 661 l 397 595 l 463 595 l 463 529 l 529 529 l 529 132 l 463 132 l 463 66 l 331 66 l 331 0 l 198 0 l 198 66 l 66 66 l 66 132 z "},"ď":{"ha":595,"x_min":66,"x_max":595,"o":"m 463 926 l 595 926 l 595 728 l 529 728 l 529 794 l 463 794 l 463 926 m 463 728 l 529 728 l 529 661 l 463 661 l 463 728 m 66 132 l 132 132 l 132 463 l 198 463 l 198 529 l 265 529 l 265 132 l 397 132 l 397 463 l 331 463 l 331 529 l 265 529 l 265 595 l 198 595 l 198 661 l 132 661 l 132 794 l 198 794 l 198 728 l 331 728 l 331 661 l 397 661 l 397 595 l 463 595 l 463 529 l 529 529 l 529 132 l 463 132 l 463 66 l 331 66 l 331 0 l 198 0 l 198 66 l 66 66 l 66 132 z "},"đ":{"ha":595,"x_min":66,"x_max":595,"o":"m 66 132 l 132 132 l 132 397 l 198 397 l 198 463 l 265 463 l 265 132 l 397 132 l 397 397 l 331 397 l 331 463 l 397 463 l 397 595 l 265 595 l 265 661 l 397 661 l 397 728 l 463 728 l 463 794 l 529 794 l 529 661 l 595 661 l 595 595 l 529 595 l 529 132 l 463 132 l 463 66 l 331 66 l 331 0 l 265 0 l 265 66 l 66 66 l 66 132 m 265 529 l 331 529 l 331 463 l 265 463 l 265 529 z "},"e":{"ha":529,"x_min":66,"x_max":529,"o":"m 397 397 l 331 397 l 331 463 l 265 463 l 265 529 l 463 529 l 463 463 l 529 463 l 529 331 l 397 331 l 397 397 m 66 132 l 132 132 l 132 397 l 198 397 l 198 463 l 265 463 l 265 331 l 397 331 l 397 265 l 265 265 l 265 132 l 397 132 l 397 66 l 265 66 l 265 0 l 132 0 l 132 66 l 66 66 l 66 132 z "},"é":{"ha":529,"x_min":66,"x_max":529,"o":"m 265 794 l 331 794 l 331 860 l 463 860 l 463 794 l 397 794 l 397 728 l 331 728 l 331 661 l 265 661 l 265 794 m 397 397 l 331 397 l 331 463 l 265 463 l 265 529 l 463 529 l 463 463 l 529 463 l 529 331 l 397 331 l 397 397 m 66 132 l 132 132 l 132 397 l 198 397 l 198 463 l 265 463 l 265 331 l 397 331 l 397 265 l 265 265 l 265 132 l 397 132 l 397 66 l 265 66 l 265 0 l 132 0 l 132 66 l 66 66 l 66 132 z "},"ě":{"ha":529,"x_min":66,"x_max":529,"o":"m 331 661 l 331 728 l 265 728 l 265 794 l 198 794 l 198 860 l 331 860 l 331 794 l 397 794 l 397 860 l 529 860 l 529 794 l 463 794 l 463 728 l 397 728 l 397 661 l 331 661 m 397 397 l 331 397 l 331 463 l 265 463 l 265 529 l 463 529 l 463 463 l 529 463 l 529 331 l 397 331 l 397 397 m 66 132 l 132 132 l 132 397 l 198 397 l 198 463 l 265 463 l 265 331 l 397 331 l 397 265 l 265 265 l 265 132 l 397 132 l 397 66 l 265 66 l 265 0 l 132 0 l 132 66 l 66 66 l 66 132 z "},"ê":{"ha":529,"x_min":66,"x_max":529,"o":"m 198 728 l 265 728 l 265 794 l 331 794 l 331 860 l 397 860 l 397 794 l 463 794 l 463 728 l 529 728 l 529 661 l 397 661 l 397 728 l 331 728 l 331 661 l 198 661 l 198 728 m 397 397 l 331 397 l 331 463 l 265 463 l 265 529 l 463 529 l 463 463 l 529 463 l 529 331 l 397 331 l 397 397 m 66 132 l 132 132 l 132 397 l 198 397 l 198 463 l 265 463 l 265 331 l 397 331 l 397 265 l 265 265 l 265 132 l 397 132 l 397 66 l 265 66 l 265 0 l 132 0 l 132 66 l 66 66 l 66 132 z "},"ë":{"ha":529,"x_min":66,"x_max":529,"o":"m 397 794 l 529 794 l 529 661 l 397 661 l 397 794 m 198 794 l 331 794 l 331 661 l 198 661 l 198 794 m 397 397 l 331 397 l 331 463 l 265 463 l 265 529 l 463 529 l 463 463 l 529 463 l 529 331 l 397 331 l 397 397 m 66 132 l 132 132 l 132 397 l 198 397 l 198 463 l 265 463 l 265 331 l 397 331 l 397 265 l 265 265 l 265 132 l 397 132 l 397 66 l 265 66 l 265 0 l 132 0 l 132 66 l 66 66 l 66 132 z "},"ė":{"ha":529,"x_min":66,"x_max":529,"o":"m 265 794 l 397 794 l 397 661 l 265 661 l 265 794 m 397 397 l 331 397 l 331 463 l 265 463 l 265 529 l 463 529 l 463 463 l 529 463 l 529 331 l 397 331 l 397 397 m 66 132 l 132 132 l 132 397 l 198 397 l 198 463 l 265 463 l 265 331 l 397 331 l 397 265 l 265 265 l 265 132 l 397 132 l 397 66 l 265 66 l 265 0 l 132 0 l 132 66 l 66 66 l 66 132 z "},"è":{"ha":529,"x_min":66,"x_max":529,"o":"m 265 860 l 397 860 l 397 794 l 463 794 l 463 661 l 397 661 l 397 728 l 331 728 l 331 794 l 265 794 l 265 860 m 397 397 l 331 397 l 331 463 l 265 463 l 265 529 l 463 529 l 463 463 l 529 463 l 529 331 l 397 331 l 397 397 m 66 132 l 132 132 l 132 397 l 198 397 l 198 463 l 265 463 l 265 331 l 397 331 l 397 265 l 265 265 l 265 132 l 397 132 l 397 66 l 265 66 l 265 0 l 132 0 l 132 66 l 66 66 l 66 132 z "},"ē":{"ha":529,"x_min":66,"x_max":529,"o":"m 198 794 l 463 794 l 463 661 l 198 661 l 198 794 m 397 397 l 331 397 l 331 463 l 265 463 l 265 529 l 463 529 l 463 463 l 529 463 l 529 331 l 397 331 l 397 397 m 66 132 l 132 132 l 132 397 l 198 397 l 198 463 l 265 463 l 265 331 l 397 331 l 397 265 l 265 265 l 265 132 l 397 132 l 397 66 l 265 66 l 265 0 l 132 0 l 132 66 l 66 66 l 66 132 z "},"ę":{"ha":529,"x_min":66,"x_max":529,"o":"m 397 397 l 331 397 l 331 463 l 265 463 l 265 529 l 463 529 l 463 463 l 529 463 l 529 331 l 397 331 l 397 397 m 66 132 l 132 132 l 132 397 l 198 397 l 198 463 l 265 463 l 265 331 l 397 331 l 397 265 l 265 265 l 265 132 l 397 132 l 397 66 l 265 66 l 265 0 l 132 0 l 132 66 l 66 66 l 66 132 m 265 0 l 331 0 l 331 -66 l 265 -66 l 265 0 m 198 -66 l 265 -66 l 265 -132 l 331 -132 l 331 -198 l 198 -198 l 198 -66 z "},"f":{"ha":397,"x_min":66,"x_max":463,"o":"m 331 728 l 265 728 l 265 794 l 463 794 l 463 661 l 331 661 l 331 728 m 66 132 l 132 132 l 132 463 l 66 463 l 66 529 l 132 529 l 132 661 l 198 661 l 198 728 l 265 728 l 265 529 l 397 529 l 397 463 l 265 463 l 265 132 l 331 132 l 331 66 l 265 66 l 265 0 l 132 0 l 132 66 l 66 66 l 66 132 z "},"g":{"ha":595,"x_min":66,"x_max":595,"o":"m 66 132 l 132 132 l 132 397 l 198 397 l 198 463 l 265 463 l 265 132 l 397 132 l 397 397 l 331 397 l 331 463 l 265 463 l 265 529 l 463 529 l 463 463 l 595 463 l 595 397 l 529 397 l 529 66 l 595 66 l 595 -66 l 529 -66 l 529 -132 l 463 -132 l 463 66 l 331 66 l 331 0 l 198 0 l 198 66 l 66 66 l 66 132 m 265 -66 l 397 -66 l 397 -132 l 463 -132 l 463 -198 l 331 -198 l 331 -132 l 265 -132 l 265 -66 m 198 -132 l 265 -132 l 265 -198 l 198 -198 l 198 -132 z "},"ğ":{"ha":595,"x_min":66,"x_max":595,"o":"m 198 860 l 265 860 l 265 794 l 463 794 l 463 860 l 529 860 l 529 728 l 463 728 l 463 661 l 265 661 l 265 728 l 198 728 l 198 860 m 66 132 l 132 132 l 132 397 l 198 397 l 198 463 l 265 463 l 265 132 l 397 132 l 397 397 l 331 397 l 331 463 l 265 463 l 265 529 l 463 529 l 463 463 l 595 463 l 595 397 l 529 397 l 529 66 l 595 66 l 595 -66 l 529 -66 l 529 -132 l 463 -132 l 463 66 l 331 66 l 331 0 l 198 0 l 198 66 l 66 66 l 66 132 m 265 -66 l 397 -66 l 397 -132 l 463 -132 l 463 -198 l 331 -198 l 331 -132 l 265 -132 l 265 -66 m 198 -132 l 265 -132 l 265 -198 l 198 -198 l 198 -132 z "},"ģ":{"ha":595,"x_min":66,"x_max":595,"o":"m 397 860 l 331 860 l 331 926 l 397 926 l 397 860 m 397 661 l 265 661 l 265 860 l 331 860 l 331 794 l 397 794 l 397 661 m 66 132 l 132 132 l 132 397 l 198 397 l 198 463 l 265 463 l 265 132 l 397 132 l 397 397 l 331 397 l 331 463 l 265 463 l 265 529 l 463 529 l 463 463 l 595 463 l 595 397 l 529 397 l 529 66 l 595 66 l 595 -66 l 529 -66 l 529 -132 l 463 -132 l 463 66 l 331 66 l 331 0 l 198 0 l 198 66 l 66 66 l 66 132 m 265 -66 l 397 -66 l 397 -132 l 463 -132 l 463 -198 l 331 -198 l 331 -132 l 265 -132 l 265 -66 m 198 -132 l 265 -132 l 265 -198 l 198 -198 l 198 -132 z "},"ġ":{"ha":595,"x_min":66,"x_max":595,"o":"m 265 794 l 397 794 l 397 661 l 265 661 l 265 794 m 66 132 l 132 132 l 132 397 l 198 397 l 198 463 l 265 463 l 265 132 l 397 132 l 397 397 l 331 397 l 331 463 l 265 463 l 265 529 l 463 529 l 463 463 l 595 463 l 595 397 l 529 397 l 529 66 l 595 66 l 595 -66 l 529 -66 l 529 -132 l 463 -132 l 463 66 l 331 66 l 331 0 l 198 0 l 198 66 l 66 66 l 66 132 m 265 -66 l 397 -66 l 397 -132 l 463 -132 l 463 -198 l 331 -198 l 331 -132 l 265 -132 l 265 -66 m 198 -132 l 265 -132 l 265 -198 l 198 -198 l 198 -132 z "},"h":{"ha":595,"x_min":66,"x_max":595,"o":"m 66 132 l 132 132 l 132 728 l 198 728 l 198 794 l 265 794 l 265 463 l 331 463 l 331 397 l 265 397 l 265 132 l 331 132 l 331 66 l 265 66 l 265 0 l 132 0 l 132 66 l 66 66 l 66 132 m 265 -66 l 331 -66 l 331 0 l 397 0 l 397 463 l 331 463 l 331 529 l 463 529 l 463 463 l 595 463 l 595 397 l 529 397 l 529 0 l 463 0 l 463 -66 l 397 -66 l 397 -132 l 331 -132 l 331 -198 l 265 -198 l 265 -66 z "},"ħ":{"ha":595,"x_min":66,"x_max":595,"o":"m 66 132 l 132 132 l 132 595 l 66 595 l 66 661 l 132 661 l 132 728 l 198 728 l 198 794 l 265 794 l 265 661 l 397 661 l 397 595 l 265 595 l 265 463 l 331 463 l 331 397 l 265 397 l 265 132 l 331 132 l 331 66 l 265 66 l 265 0 l 132 0 l 132 66 l 66 66 l 66 132 m 265 -66 l 331 -66 l 331 0 l 397 0 l 397 463 l 331 463 l 331 529 l 463 529 l 463 463 l 595 463 l 595 397 l 529 397 l 529 0 l 463 0 l 463 -66 l 397 -66 l 397 -132 l 331 -132 l 331 -198 l 265 -198 l 265 -66 z "},"i":{"ha":331,"x_min":66,"x_max":331,"o":"m 132 794 l 265 794 l 265 661 l 132 661 l 132 794 m 66 132 l 132 132 l 132 397 l 66 397 l 66 463 l 132 463 l 132 529 l 265 529 l 265 463 l 331 463 l 331 397 l 265 397 l 265 132 l 331 132 l 331 66 l 265 66 l 265 0 l 132 0 l 132 66 l 66 66 l 66 132 z "},"ı":{"ha":331,"x_min":66,"x_max":331,"o":"m 66 132 l 132 132 l 132 397 l 66 397 l 66 463 l 132 463 l 132 529 l 265 529 l 265 463 l 331 463 l 331 397 l 265 397 l 265 132 l 331 132 l 331 66 l 265 66 l 265 0 l 132 0 l 132 66 l 66 66 l 66 132 z "},"í":{"ha":331,"x_min":66,"x_max":331,"o":"m 132 794 l 198 794 l 198 860 l 331 860 l 331 794 l 265 794 l 265 728 l 198 728 l 198 661 l 132 661 l 132 794 m 66 132 l 132 132 l 132 397 l 66 397 l 66 463 l 132 463 l 132 529 l 265 529 l 265 463 l 331 463 l 331 397 l 265 397 l 265 132 l 331 132 l 331 66 l 265 66 l 265 0 l 132 0 l 132 66 l 66 66 l 66 132 z "},"î":{"ha":331,"x_min":66,"x_max":397,"o":"m 66 728 l 132 728 l 132 794 l 198 794 l 198 860 l 265 860 l 265 794 l 331 794 l 331 728 l 397 728 l 397 661 l 265 661 l 265 728 l 198 728 l 198 661 l 66 661 l 66 728 m 66 132 l 132 132 l 132 397 l 66 397 l 66 463 l 132 463 l 132 529 l 265 529 l 265 463 l 331 463 l 331 397 l 265 397 l 265 132 l 331 132 l 331 66 l 265 66 l 265 0 l 132 0 l 132 66 l 66 66 l 66 132 z "},"ï":{"ha":331,"x_min":66,"x_max":397,"o":"m 66 794 l 198 794 l 198 661 l 66 661 l 66 794 m 265 794 l 397 794 l 397 661 l 265 661 l 265 794 m 66 132 l 132 132 l 132 397 l 66 397 l 66 463 l 132 463 l 132 529 l 265 529 l 265 463 l 331 463 l 331 397 l 265 397 l 265 132 l 331 132 l 331 66 l 265 66 l 265 0 l 132 0 l 132 66 l 66 66 l 66 132 z "},"ì":{"ha":331,"x_min":66,"x_max":331,"o":"m 132 860 l 265 860 l 265 794 l 331 794 l 331 661 l 265 661 l 265 728 l 198 728 l 198 794 l 132 794 l 132 860 m 66 132 l 132 132 l 132 397 l 66 397 l 66 463 l 132 463 l 132 529 l 265 529 l 265 463 l 331 463 l 331 397 l 265 397 l 265 132 l 331 132 l 331 66 l 265 66 l 265 0 l 132 0 l 132 66 l 66 66 l 66 132 z "},"ĳ":{"ha":661,"x_min":66,"x_max":661,"o":"m 463 794 l 595 794 l 595 661 l 463 661 l 463 794 m 132 794 l 265 794 l 265 661 l 132 661 l 132 794 m 331 -132 l 397 -132 l 397 -66 l 463 -66 l 463 397 l 397 397 l 397 463 l 463 463 l 463 529 l 595 529 l 595 463 l 661 463 l 661 397 l 595 397 l 595 -66 l 529 -66 l 529 -132 l 463 -132 l 463 -198 l 331 -198 l 331 -132 m 66 132 l 132 132 l 132 397 l 66 397 l 66 463 l 132 463 l 132 529 l 265 529 l 265 463 l 331 463 l 331 397 l 265 397 l 265 132 l 331 132 l 331 66 l 265 66 l 265 0 l 132 0 l 132 66 l 66 66 l 66 132 z "},"ī":{"ha":331,"x_min":66,"x_max":331,"o":"m 66 794 l 331 794 l 331 661 l 66 661 l 66 794 m 66 132 l 132 132 l 132 397 l 66 397 l 66 463 l 132 463 l 132 529 l 265 529 l 265 463 l 331 463 l 331 397 l 265 397 l 265 132 l 331 132 l 331 66 l 265 66 l 265 0 l 132 0 l 132 66 l 66 66 l 66 132 z "},"į":{"ha":331,"x_min":66,"x_max":331,"o":"m 132 794 l 265 794 l 265 661 l 132 661 l 132 794 m 66 132 l 132 132 l 132 397 l 66 397 l 66 463 l 132 463 l 132 529 l 265 529 l 265 463 l 331 463 l 331 397 l 265 397 l 265 132 l 331 132 l 331 66 l 265 66 l 265 -66 l 198 -66 l 198 0 l 132 0 l 132 66 l 66 66 l 66 132 m 132 -66 l 198 -66 l 198 -132 l 265 -132 l 265 -198 l 132 -198 l 132 -66 z "},"j":{"ha":331,"x_min":0,"x_max":331,"o":"m 132 794 l 265 794 l 265 661 l 132 661 l 132 794 m 66 -66 l 132 -66 l 132 397 l 66 397 l 66 463 l 132 463 l 132 529 l 265 529 l 265 463 l 331 463 l 331 397 l 265 397 l 265 -66 l 198 -66 l 198 -132 l 132 -132 l 132 -198 l 0 -198 l 0 -132 l 66 -132 l 66 -66 z "},"ȷ":{"ha":463,"x_min":66,"x_max":463,"o":"m 198 463 l 265 463 l 265 529 l 397 529 l 397 463 l 463 463 l 463 397 l 397 397 l 397 -66 l 331 -66 l 331 -132 l 265 -132 l 265 397 l 198 397 l 198 463 m 66 -66 l 198 -66 l 198 -132 l 265 -132 l 265 -198 l 132 -198 l 132 -132 l 66 -132 l 66 -66 z "},"k":{"ha":595,"x_min":66,"x_max":595,"o":"m 66 132 l 132 132 l 132 728 l 198 728 l 198 794 l 265 794 l 265 463 l 331 463 l 331 397 l 265 397 l 265 331 l 397 331 l 397 265 l 265 265 l 265 132 l 331 132 l 331 66 l 265 66 l 265 0 l 132 0 l 132 66 l 66 66 l 66 132 m 529 529 l 595 529 l 595 463 l 529 463 l 529 529 m 397 463 l 331 463 l 331 529 l 463 529 l 463 463 l 529 463 l 529 331 l 397 331 l 397 463 m 463 66 l 397 66 l 397 265 l 463 265 l 463 132 l 595 132 l 595 66 l 529 66 l 529 0 l 463 0 l 463 66 z "},"ķ":{"ha":595,"x_min":66,"x_max":595,"o":"m 66 132 l 132 132 l 132 728 l 198 728 l 198 794 l 265 794 l 265 463 l 331 463 l 331 397 l 265 397 l 265 331 l 397 331 l 397 265 l 265 265 l 265 132 l 331 132 l 331 66 l 265 66 l 265 0 l 132 0 l 132 66 l 66 66 l 66 132 m 397 463 l 331 463 l 331 529 l 463 529 l 463 463 l 529 463 l 529 331 l 397 331 l 397 463 m 529 529 l 595 529 l 595 463 l 529 463 l 529 529 m 463 66 l 397 66 l 397 265 l 463 265 l 463 132 l 595 132 l 595 66 l 529 66 l 529 0 l 463 0 l 463 66 m 265 -66 l 397 -66 l 397 -265 l 331 -265 l 331 -198 l 265 -198 l 265 -66 m 265 -265 l 331 -265 l 331 -331 l 265 -331 l 265 -265 z "},"l":{"ha":331,"x_min":66,"x_max":331,"o":"m 66 132 l 132 132 l 132 728 l 198 728 l 198 794 l 265 794 l 265 132 l 331 132 l 331 66 l 265 66 l 265 0 l 132 0 l 132 66 l 66 66 l 66 132 z "},"ĺ":{"ha":331,"x_min":66,"x_max":331,"o":"m 331 1058 l 331 992 l 265 992 l 265 926 l 198 926 l 198 860 l 132 860 l 132 992 l 198 992 l 198 1058 l 331 1058 m 66 132 l 132 132 l 132 728 l 198 728 l 198 794 l 265 794 l 265 132 l 331 132 l 331 66 l 265 66 l 265 0 l 132 0 l 132 66 l 66 66 l 66 132 z "},"ľ":{"ha":463,"x_min":66,"x_max":463,"o":"m 331 860 l 463 860 l 463 661 l 397 661 l 397 728 l 331 728 l 331 860 m 66 132 l 132 132 l 132 728 l 198 728 l 198 794 l 265 794 l 265 132 l 331 132 l 331 66 l 265 66 l 265 0 l 132 0 l 132 66 l 66 66 l 66 132 m 331 661 l 397 661 l 397 595 l 331 595 l 331 661 z "},"ļ":{"ha":331,"x_min":66,"x_max":331,"o":"m 66 132 l 132 132 l 132 728 l 198 728 l 198 794 l 265 794 l 265 132 l 331 132 l 331 66 l 265 66 l 265 0 l 132 0 l 132 66 l 66 66 l 66 132 m 132 -66 l 265 -66 l 265 -265 l 198 -265 l 198 -198 l 132 -198 l 132 -66 m 132 -265 l 198 -265 l 198 -331 l 132 -331 l 132 -265 z "},"ł":{"ha":463,"x_min":66,"x_max":463,"o":"m 132 132 l 198 132 l 198 265 l 66 265 l 66 331 l 132 331 l 132 397 l 198 397 l 198 728 l 265 728 l 265 794 l 331 794 l 331 595 l 463 595 l 463 529 l 397 529 l 397 463 l 331 463 l 331 132 l 397 132 l 397 66 l 331 66 l 331 0 l 198 0 l 198 66 l 132 66 l 132 132 z "},"m":{"ha":926,"x_min":66,"x_max":926,"o":"m 132 132 l 198 132 l 198 397 l 66 397 l 66 463 l 132 463 l 132 529 l 265 529 l 265 463 l 397 463 l 397 529 l 529 529 l 529 463 l 661 463 l 661 529 l 794 529 l 794 463 l 926 463 l 926 397 l 860 397 l 860 132 l 926 132 l 926 66 l 860 66 l 860 0 l 794 0 l 794 66 l 728 66 l 728 397 l 595 397 l 595 132 l 661 132 l 661 66 l 595 66 l 595 0 l 529 0 l 529 66 l 463 66 l 463 397 l 331 397 l 331 132 l 397 132 l 397 66 l 331 66 l 331 0 l 198 0 l 198 66 l 132 66 l 132 132 z "},"n":{"ha":661,"x_min":66,"x_max":661,"o":"m 132 132 l 198 132 l 198 397 l 66 397 l 66 463 l 132 463 l 132 529 l 265 529 l 265 463 l 397 463 l 397 529 l 529 529 l 529 463 l 661 463 l 661 397 l 595 397 l 595 132 l 661 132 l 661 66 l 595 66 l 595 0 l 529 0 l 529 66 l 463 66 l 463 397 l 331 397 l 331 132 l 397 132 l 397 66 l 331 66 l 331 0 l 198 0 l 198 66 l 132 66 l 132 132 z "},"ń":{"ha":661,"x_min":66,"x_max":661,"o":"m 331 794 l 397 794 l 397 860 l 529 860 l 529 794 l 463 794 l 463 728 l 397 728 l 397 661 l 331 661 l 331 794 m 132 132 l 198 132 l 198 397 l 66 397 l 66 463 l 132 463 l 132 529 l 265 529 l 265 463 l 397 463 l 397 529 l 529 529 l 529 463 l 661 463 l 661 397 l 595 397 l 595 132 l 661 132 l 661 66 l 595 66 l 595 0 l 529 0 l 529 66 l 463 66 l 463 397 l 331 397 l 331 132 l 397 132 l 397 66 l 331 66 l 331 0 l 198 0 l 198 66 l 132 66 l 132 132 z "},"ň":{"ha":661,"x_min":66,"x_max":661,"o":"m 397 661 l 397 728 l 331 728 l 331 794 l 265 794 l 265 860 l 397 860 l 397 794 l 463 794 l 463 860 l 595 860 l 595 794 l 529 794 l 529 728 l 463 728 l 463 661 l 397 661 m 132 132 l 198 132 l 198 397 l 66 397 l 66 463 l 132 463 l 132 529 l 265 529 l 265 463 l 397 463 l 397 529 l 529 529 l 529 463 l 661 463 l 661 397 l 595 397 l 595 132 l 661 132 l 661 66 l 595 66 l 595 0 l 529 0 l 529 66 l 463 66 l 463 397 l 331 397 l 331 132 l 397 132 l 397 66 l 331 66 l 331 0 l 198 0 l 198 66 l 132 66 l 132 132 z "},"ņ":{"ha":661,"x_min":66,"x_max":661,"o":"m 132 132 l 198 132 l 198 397 l 66 397 l 66 463 l 132 463 l 132 529 l 265 529 l 265 463 l 397 463 l 397 529 l 529 529 l 529 463 l 661 463 l 661 397 l 595 397 l 595 132 l 661 132 l 661 66 l 595 66 l 595 0 l 529 0 l 529 66 l 463 66 l 463 397 l 331 397 l 331 132 l 397 132 l 397 66 l 331 66 l 331 0 l 198 0 l 198 66 l 132 66 l 132 132 m 331 -66 l 463 -66 l 463 -265 l 397 -265 l 397 -198 l 331 -198 l 331 -66 m 331 -265 l 397 -265 l 397 -331 l 331 -331 l 331 -265 z "},"ñ":{"ha":661,"x_min":66,"x_max":661,"o":"m 265 794 l 331 794 l 331 860 l 397 860 l 397 794 l 463 794 l 463 860 l 595 860 l 595 728 l 529 728 l 529 661 l 463 661 l 463 728 l 397 728 l 397 661 l 265 661 l 265 794 m 132 132 l 198 132 l 198 397 l 66 397 l 66 463 l 132 463 l 132 529 l 265 529 l 265 463 l 397 463 l 397 529 l 529 529 l 529 463 l 661 463 l 661 397 l 595 397 l 595 132 l 661 132 l 661 66 l 595 66 l 595 0 l 529 0 l 529 66 l 463 66 l 463 397 l 331 397 l 331 132 l 397 132 l 397 66 l 331 66 l 331 0 l 198 0 l 198 66 l 132 66 l 132 132 z "},"ŋ":{"ha":661,"x_min":66,"x_max":661,"o":"m 132 132 l 198 132 l 198 397 l 66 397 l 66 463 l 132 463 l 132 529 l 265 529 l 265 463 l 397 463 l 397 529 l 529 529 l 529 463 l 661 463 l 661 397 l 595 397 l 595 132 l 661 132 l 661 66 l 595 66 l 595 -66 l 529 -66 l 529 -132 l 397 -132 l 397 -66 l 463 -66 l 463 397 l 331 397 l 331 132 l 397 132 l 397 66 l 331 66 l 331 0 l 198 0 l 198 66 l 132 66 l 132 132 z "},"o":{"ha":595,"x_min":66,"x_max":595,"o":"m 66 132 l 132 132 l 132 397 l 198 397 l 198 463 l 265 463 l 265 132 l 397 132 l 397 397 l 331 397 l 331 463 l 265 463 l 265 529 l 463 529 l 463 463 l 595 463 l 595 397 l 529 397 l 529 132 l 463 132 l 463 66 l 331 66 l 331 0 l 198 0 l 198 66 l 66 66 l 66 132 z "},"ó":{"ha":595,"x_min":66,"x_max":595,"o":"m 265 794 l 331 794 l 331 860 l 463 860 l 463 794 l 397 794 l 397 728 l 331 728 l 331 661 l 265 661 l 265 794 m 66 132 l 132 132 l 132 397 l 198 397 l 198 463 l 265 463 l 265 132 l 397 132 l 397 397 l 331 397 l 331 463 l 265 463 l 265 529 l 463 529 l 463 463 l 595 463 l 595 397 l 529 397 l 529 132 l 463 132 l 463 66 l 331 66 l 331 0 l 198 0 l 198 66 l 66 66 l 66 132 z "},"ô":{"ha":595,"x_min":66,"x_max":595,"o":"m 198 728 l 265 728 l 265 794 l 331 794 l 331 860 l 397 860 l 397 794 l 463 794 l 463 728 l 529 728 l 529 661 l 397 661 l 397 728 l 331 728 l 331 661 l 198 661 l 198 728 m 66 132 l 132 132 l 132 397 l 198 397 l 198 463 l 265 463 l 265 132 l 397 132 l 397 397 l 331 397 l 331 463 l 265 463 l 265 529 l 463 529 l 463 463 l 595 463 l 595 397 l 529 397 l 529 132 l 463 132 l 463 66 l 331 66 l 331 0 l 198 0 l 198 66 l 66 66 l 66 132 z "},"ö":{"ha":595,"x_min":66,"x_max":595,"o":"m 397 794 l 529 794 l 529 661 l 397 661 l 397 794 m 198 794 l 331 794 l 331 661 l 198 661 l 198 794 m 66 132 l 132 132 l 132 397 l 198 397 l 198 463 l 265 463 l 265 132 l 397 132 l 397 397 l 331 397 l 331 463 l 265 463 l 265 529 l 463 529 l 463 463 l 595 463 l 595 397 l 529 397 l 529 132 l 463 132 l 463 66 l 331 66 l 331 0 l 198 0 l 198 66 l 66 66 l 66 132 z "},"ò":{"ha":595,"x_min":66,"x_max":595,"o":"m 265 860 l 397 860 l 397 794 l 463 794 l 463 661 l 397 661 l 397 728 l 331 728 l 331 794 l 265 794 l 265 860 m 66 132 l 132 132 l 132 397 l 198 397 l 198 463 l 265 463 l 265 132 l 397 132 l 397 397 l 331 397 l 331 463 l 265 463 l 265 529 l 463 529 l 463 463 l 595 463 l 595 397 l 529 397 l 529 132 l 463 132 l 463 66 l 331 66 l 331 0 l 198 0 l 198 66 l 66 66 l 66 132 z "},"ő":{"ha":595,"x_min":66,"x_max":595,"o":"m 331 794 l 397 794 l 397 860 l 529 860 l 529 794 l 463 794 l 463 728 l 397 728 l 397 661 l 331 661 l 331 794 m 132 794 l 198 794 l 198 860 l 331 860 l 331 794 l 265 794 l 265 728 l 198 728 l 198 661 l 132 661 l 132 794 m 66 132 l 132 132 l 132 397 l 198 397 l 198 463 l 265 463 l 265 132 l 397 132 l 397 397 l 331 397 l 331 463 l 265 463 l 265 529 l 463 529 l 463 463 l 595 463 l 595 397 l 529 397 l 529 132 l 463 132 l 463 66 l 331 66 l 331 0 l 198 0 l 198 66 l 66 66 l 66 132 z "},"ō":{"ha":595,"x_min":66,"x_max":595,"o":"m 198 794 l 463 794 l 463 661 l 198 661 l 198 794 m 66 132 l 132 132 l 132 397 l 198 397 l 198 463 l 265 463 l 265 132 l 397 132 l 397 397 l 331 397 l 331 463 l 265 463 l 265 529 l 463 529 l 463 463 l 595 463 l 595 397 l 529 397 l 529 132 l 463 132 l 463 66 l 331 66 l 331 0 l 198 0 l 198 66 l 66 66 l 66 132 z "},"ø":{"ha":595,"x_min":66,"x_max":595,"o":"m 331 331 l 397 331 l 397 397 l 331 397 l 331 463 l 265 463 l 265 529 l 463 529 l 463 463 l 529 463 l 529 529 l 595 529 l 595 397 l 529 397 l 529 132 l 463 132 l 463 66 l 397 66 l 397 265 l 331 265 l 331 331 m 66 132 l 132 132 l 132 397 l 198 397 l 198 463 l 265 463 l 265 265 l 331 265 l 331 198 l 265 198 l 265 132 l 331 132 l 331 66 l 397 66 l 397 0 l 198 0 l 198 66 l 132 66 l 132 0 l 66 0 l 66 132 z "},"õ":{"ha":595,"x_min":66,"x_max":595,"o":"m 198 794 l 265 794 l 265 860 l 331 860 l 331 794 l 397 794 l 397 860 l 529 860 l 529 728 l 463 728 l 463 661 l 397 661 l 397 728 l 331 728 l 331 661 l 198 661 l 198 794 m 66 132 l 132 132 l 132 397 l 198 397 l 198 463 l 265 463 l 265 132 l 397 132 l 397 397 l 331 397 l 331 463 l 265 463 l 265 529 l 463 529 l 463 463 l 595 463 l 595 397 l 529 397 l 529 132 l 463 132 l 463 66 l 331 66 l 331 0 l 198 0 l 198 66 l 66 66 l 66 132 z "},"œ":{"ha":794,"x_min":66,"x_max":794,"o":"m 529 529 l 728 529 l 728 463 l 794 463 l 794 331 l 661 331 l 661 397 l 595 397 l 595 463 l 529 463 l 529 529 m 66 132 l 132 132 l 132 397 l 198 397 l 198 463 l 265 463 l 265 132 l 397 132 l 397 397 l 331 397 l 331 463 l 265 463 l 265 529 l 463 529 l 463 463 l 529 463 l 529 331 l 661 331 l 661 265 l 529 265 l 529 132 l 661 132 l 661 66 l 529 66 l 529 0 l 397 0 l 397 66 l 331 66 l 331 0 l 198 0 l 198 66 l 66 66 l 66 132 z "},"p":{"ha":661,"x_min":66,"x_max":661,"o":"m 132 132 l 198 132 l 198 397 l 66 397 l 66 463 l 132 463 l 132 529 l 265 529 l 265 463 l 397 463 l 397 529 l 529 529 l 529 463 l 661 463 l 661 397 l 595 397 l 595 132 l 661 132 l 661 66 l 529 66 l 529 0 l 463 0 l 463 66 l 331 66 l 331 -132 l 265 -132 l 265 -198 l 198 -198 l 198 66 l 132 66 l 132 132 m 66 66 l 132 66 l 132 0 l 66 0 l 66 66 m 331 132 l 463 132 l 463 397 l 331 397 l 331 132 z "},"þ":{"ha":661,"x_min":66,"x_max":661,"o":"m 132 132 l 198 132 l 198 728 l 265 728 l 265 794 l 331 794 l 331 463 l 397 463 l 397 529 l 529 529 l 529 463 l 661 463 l 661 397 l 595 397 l 595 132 l 661 132 l 661 66 l 529 66 l 529 0 l 463 0 l 463 66 l 331 66 l 331 -132 l 265 -132 l 265 -198 l 198 -198 l 198 66 l 132 66 l 132 132 m 66 66 l 132 66 l 132 0 l 66 0 l 66 66 m 331 132 l 463 132 l 463 397 l 331 397 l 331 132 z "},"q":{"ha":595,"x_min":66,"x_max":595,"o":"m 66 132 l 132 132 l 132 397 l 198 397 l 198 463 l 265 463 l 265 132 l 397 132 l 397 463 l 265 463 l 265 529 l 463 529 l 463 463 l 595 463 l 595 397 l 529 397 l 529 132 l 595 132 l 595 66 l 529 66 l 529 -132 l 463 -132 l 463 -198 l 397 -198 l 397 66 l 331 66 l 331 0 l 265 0 l 265 66 l 66 66 l 66 132 z "},"r":{"ha":529,"x_min":66,"x_max":529,"o":"m 132 132 l 198 132 l 198 397 l 66 397 l 66 463 l 132 463 l 132 529 l 265 529 l 265 463 l 331 463 l 331 132 l 397 132 l 397 66 l 331 66 l 331 0 l 198 0 l 198 66 l 132 66 l 132 132 m 397 463 l 331 463 l 331 529 l 529 529 l 529 397 l 397 397 l 397 463 z "},"ŕ":{"ha":529,"x_min":66,"x_max":529,"o":"m 198 794 l 265 794 l 265 860 l 397 860 l 397 794 l 331 794 l 331 728 l 265 728 l 265 661 l 198 661 l 198 794 m 132 132 l 198 132 l 198 397 l 66 397 l 66 463 l 132 463 l 132 529 l 265 529 l 265 463 l 331 463 l 331 132 l 397 132 l 397 66 l 331 66 l 331 0 l 198 0 l 198 66 l 132 66 l 132 132 m 397 463 l 331 463 l 331 529 l 529 529 l 529 397 l 397 397 l 397 463 z "},"ř":{"ha":529,"x_min":66,"x_max":529,"o":"m 265 661 l 265 728 l 198 728 l 198 794 l 132 794 l 132 860 l 265 860 l 265 794 l 331 794 l 331 860 l 463 860 l 463 794 l 397 794 l 397 728 l 331 728 l 331 661 l 265 661 m 397 463 l 331 463 l 331 529 l 529 529 l 529 397 l 397 397 l 397 463 m 132 132 l 198 132 l 198 397 l 66 397 l 66 463 l 132 463 l 132 529 l 265 529 l 265 463 l 331 463 l 331 132 l 397 132 l 397 66 l 331 66 l 331 0 l 198 0 l 198 66 l 132 66 l 132 132 z "},"ŗ":{"ha":529,"x_min":66,"x_max":529,"o":"m 397 463 l 331 463 l 331 529 l 529 529 l 529 397 l 397 397 l 397 463 m 132 132 l 198 132 l 198 397 l 66 397 l 66 463 l 132 463 l 132 529 l 265 529 l 265 463 l 331 463 l 331 132 l 397 132 l 397 66 l 331 66 l 331 0 l 198 0 l 198 66 l 132 66 l 132 132 m 198 -66 l 331 -66 l 331 -265 l 265 -265 l 265 -198 l 198 -198 l 198 -66 m 198 -265 l 265 -265 l 265 -331 l 198 -331 l 198 -265 z "},"s":{"ha":529,"x_min":66,"x_max":529,"o":"m 463 595 l 529 595 l 529 463 l 463 463 l 463 595 m 463 397 l 529 397 l 529 331 l 463 331 l 463 397 m 132 132 l 198 132 l 198 198 l 132 198 l 132 397 l 198 397 l 198 463 l 265 463 l 265 529 l 397 529 l 397 463 l 463 463 l 463 397 l 265 397 l 265 265 l 331 265 l 331 198 l 265 198 l 265 132 l 397 132 l 397 265 l 331 265 l 331 331 l 463 331 l 463 265 l 529 265 l 529 132 l 463 132 l 463 66 l 397 66 l 397 0 l 265 0 l 265 66 l 132 66 l 132 132 m 66 66 l 132 66 l 132 0 l 66 0 l 66 66 z "},"ś":{"ha":529,"x_min":66,"x_max":529,"o":"m 265 794 l 331 794 l 331 860 l 463 860 l 463 794 l 397 794 l 397 728 l 331 728 l 331 661 l 265 661 l 265 794 m 463 595 l 529 595 l 529 463 l 463 463 l 463 595 m 463 397 l 529 397 l 529 331 l 463 331 l 463 397 m 132 132 l 198 132 l 198 198 l 132 198 l 132 397 l 198 397 l 198 463 l 265 463 l 265 529 l 397 529 l 397 463 l 463 463 l 463 397 l 265 397 l 265 265 l 331 265 l 331 198 l 265 198 l 265 132 l 397 132 l 397 265 l 331 265 l 331 331 l 463 331 l 463 265 l 529 265 l 529 132 l 463 132 l 463 66 l 397 66 l 397 0 l 265 0 l 265 66 l 132 66 l 132 132 m 66 66 l 132 66 l 132 0 l 66 0 l 66 66 z "},"š":{"ha":529,"x_min":66,"x_max":529,"o":"m 331 661 l 331 728 l 265 728 l 265 794 l 198 794 l 198 860 l 331 860 l 331 794 l 397 794 l 397 860 l 529 860 l 529 794 l 463 794 l 463 728 l 397 728 l 397 661 l 331 661 m 463 595 l 529 595 l 529 463 l 463 463 l 463 595 m 463 397 l 529 397 l 529 331 l 463 331 l 463 397 m 132 132 l 198 132 l 198 198 l 132 198 l 132 397 l 198 397 l 198 463 l 265 463 l 265 529 l 397 529 l 397 463 l 463 463 l 463 397 l 265 397 l 265 265 l 331 265 l 331 198 l 265 198 l 265 132 l 397 132 l 397 265 l 331 265 l 331 331 l 463 331 l 463 265 l 529 265 l 529 132 l 463 132 l 463 66 l 397 66 l 397 0 l 265 0 l 265 66 l 132 66 l 132 132 m 66 66 l 132 66 l 132 0 l 66 0 l 66 66 z "},"ş":{"ha":529,"x_min":66,"x_max":529,"o":"m 463 595 l 529 595 l 529 463 l 463 463 l 463 595 m 463 397 l 529 397 l 529 331 l 463 331 l 463 397 m 132 132 l 198 132 l 198 198 l 132 198 l 132 397 l 198 397 l 198 463 l 265 463 l 265 529 l 397 529 l 397 463 l 463 463 l 463 397 l 265 397 l 265 265 l 331 265 l 331 198 l 265 198 l 265 132 l 397 132 l 397 265 l 331 265 l 331 331 l 463 331 l 463 265 l 529 265 l 529 132 l 463 132 l 463 66 l 397 66 l 397 -132 l 331 -132 l 331 -66 l 265 -66 l 265 66 l 132 66 l 132 132 m 66 66 l 132 66 l 132 0 l 66 0 l 66 66 m 265 -132 l 331 -132 l 331 -198 l 265 -198 l 265 -132 z "},"ș":{"ha":529,"x_min":66,"x_max":529,"o":"m 463 595 l 529 595 l 529 463 l 463 463 l 463 595 m 132 132 l 198 132 l 198 198 l 132 198 l 132 397 l 198 397 l 198 463 l 265 463 l 265 529 l 397 529 l 397 463 l 463 463 l 463 397 l 265 397 l 265 265 l 331 265 l 331 198 l 265 198 l 265 132 l 397 132 l 397 265 l 331 265 l 331 331 l 463 331 l 463 265 l 529 265 l 529 132 l 463 132 l 463 66 l 397 66 l 397 0 l 265 0 l 265 66 l 132 66 l 132 132 m 463 397 l 529 397 l 529 331 l 463 331 l 463 397 m 66 66 l 132 66 l 132 0 l 66 0 l 66 66 m 265 -66 l 397 -66 l 397 -265 l 331 -265 l 331 -198 l 265 -198 l 265 -66 m 265 -265 l 331 -265 l 331 -331 l 265 -331 l 265 -265 z "},"ß":{"ha":728,"x_min":66,"x_max":661,"o":"m 331 132 l 463 132 l 463 331 l 397 331 l 397 397 l 331 397 l 331 463 l 397 463 l 397 529 l 463 529 l 463 661 l 397 661 l 397 728 l 265 728 l 265 794 l 529 794 l 529 728 l 595 728 l 595 529 l 529 529 l 529 463 l 463 463 l 463 397 l 661 397 l 661 331 l 595 331 l 595 66 l 529 66 l 529 0 l 397 0 l 397 66 l 331 66 l 331 132 m 66 132 l 132 132 l 132 661 l 198 661 l 198 728 l 265 728 l 265 0 l 132 0 l 132 66 l 66 66 l 66 132 z "},"t":{"ha":397,"x_min":66,"x_max":397,"o":"m 66 132 l 132 132 l 132 463 l 66 463 l 66 529 l 132 529 l 132 661 l 198 661 l 198 728 l 265 728 l 265 529 l 397 529 l 397 463 l 265 463 l 265 132 l 397 132 l 397 66 l 331 66 l 331 0 l 198 0 l 198 66 l 66 66 l 66 132 z "},"ť":{"ha":463,"x_min":66,"x_max":463,"o":"m 331 860 l 463 860 l 463 661 l 397 661 l 397 728 l 331 728 l 331 860 m 66 132 l 132 132 l 132 463 l 66 463 l 66 529 l 132 529 l 132 661 l 198 661 l 198 728 l 265 728 l 265 529 l 397 529 l 397 463 l 265 463 l 265 132 l 397 132 l 397 66 l 331 66 l 331 0 l 198 0 l 198 66 l 66 66 l 66 132 m 331 661 l 397 661 l 397 595 l 331 595 l 331 661 z "},"ț":{"ha":397,"x_min":66,"x_max":397,"o":"m 66 132 l 132 132 l 132 463 l 66 463 l 66 529 l 132 529 l 132 661 l 198 661 l 198 728 l 265 728 l 265 529 l 397 529 l 397 463 l 265 463 l 265 132 l 397 132 l 397 66 l 331 66 l 331 0 l 198 0 l 198 66 l 66 66 l 66 132 m 132 -66 l 265 -66 l 265 -265 l 198 -265 l 198 -198 l 132 -198 l 132 -66 m 132 -265 l 198 -265 l 198 -331 l 132 -331 l 132 -265 z "},"u":{"ha":728,"x_min":66,"x_max":728,"o":"m 132 132 l 198 132 l 198 397 l 66 397 l 66 463 l 132 463 l 132 529 l 265 529 l 265 463 l 331 463 l 331 132 l 463 132 l 463 397 l 397 397 l 397 463 l 463 463 l 463 529 l 595 529 l 595 463 l 661 463 l 661 397 l 595 397 l 595 132 l 728 132 l 728 66 l 661 66 l 661 0 l 529 0 l 529 66 l 397 66 l 397 0 l 265 0 l 265 66 l 132 66 l 132 132 z "},"ú":{"ha":728,"x_min":66,"x_max":728,"o":"m 265 794 l 331 794 l 331 860 l 463 860 l 463 794 l 397 794 l 397 728 l 331 728 l 331 661 l 265 661 l 265 794 m 132 132 l 198 132 l 198 397 l 66 397 l 66 463 l 132 463 l 132 529 l 265 529 l 265 463 l 331 463 l 331 132 l 463 132 l 463 397 l 397 397 l 397 463 l 463 463 l 463 529 l 595 529 l 595 463 l 661 463 l 661 397 l 595 397 l 595 132 l 728 132 l 728 66 l 661 66 l 661 0 l 529 0 l 529 66 l 397 66 l 397 0 l 265 0 l 265 66 l 132 66 l 132 132 z "},"ŭ":{"ha":728,"x_min":66,"x_max":728,"o":"m 198 860 l 265 860 l 265 794 l 463 794 l 463 860 l 529 860 l 529 728 l 463 728 l 463 661 l 265 661 l 265 728 l 198 728 l 198 860 m 132 132 l 198 132 l 198 397 l 66 397 l 66 463 l 132 463 l 132 529 l 265 529 l 265 463 l 331 463 l 331 132 l 463 132 l 463 397 l 397 397 l 397 463 l 463 463 l 463 529 l 595 529 l 595 463 l 661 463 l 661 397 l 595 397 l 595 132 l 728 132 l 728 66 l 661 66 l 661 0 l 529 0 l 529 66 l 397 66 l 397 0 l 265 0 l 265 66 l 132 66 l 132 132 z "},"û":{"ha":728,"x_min":66,"x_max":728,"o":"m 198 728 l 265 728 l 265 794 l 331 794 l 331 860 l 397 860 l 397 794 l 463 794 l 463 728 l 529 728 l 529 661 l 397 661 l 397 728 l 331 728 l 331 661 l 198 661 l 198 728 m 132 132 l 198 132 l 198 397 l 66 397 l 66 463 l 132 463 l 132 529 l 265 529 l 265 463 l 331 463 l 331 132 l 463 132 l 463 397 l 397 397 l 397 463 l 463 463 l 463 529 l 595 529 l 595 463 l 661 463 l 661 397 l 595 397 l 595 132 l 728 132 l 728 66 l 661 66 l 661 0 l 529 0 l 529 66 l 397 66 l 397 0 l 265 0 l 265 66 l 132 66 l 132 132 z "},"ü":{"ha":728,"x_min":66,"x_max":728,"o":"m 397 794 l 529 794 l 529 661 l 397 661 l 397 794 m 198 794 l 331 794 l 331 661 l 198 661 l 198 794 m 132 132 l 198 132 l 198 397 l 66 397 l 66 463 l 132 463 l 132 529 l 265 529 l 265 463 l 331 463 l 331 132 l 463 132 l 463 397 l 397 397 l 397 463 l 463 463 l 463 529 l 595 529 l 595 463 l 661 463 l 661 397 l 595 397 l 595 132 l 728 132 l 728 66 l 661 66 l 661 0 l 529 0 l 529 66 l 397 66 l 397 0 l 265 0 l 265 66 l 132 66 l 132 132 z "},"ù":{"ha":728,"x_min":66,"x_max":728,"o":"m 265 860 l 397 860 l 397 794 l 463 794 l 463 661 l 397 661 l 397 728 l 331 728 l 331 794 l 265 794 l 265 860 m 132 132 l 198 132 l 198 397 l 66 397 l 66 463 l 132 463 l 132 529 l 265 529 l 265 463 l 331 463 l 331 132 l 463 132 l 463 397 l 397 397 l 397 463 l 463 463 l 463 529 l 595 529 l 595 463 l 661 463 l 661 397 l 595 397 l 595 132 l 728 132 l 728 66 l 661 66 l 661 0 l 529 0 l 529 66 l 397 66 l 397 0 l 265 0 l 265 66 l 132 66 l 132 132 z "},"ű":{"ha":728,"x_min":66,"x_max":728,"o":"m 331 794 l 397 794 l 397 860 l 529 860 l 529 794 l 463 794 l 463 728 l 397 728 l 397 661 l 331 661 l 331 794 m 132 794 l 198 794 l 198 860 l 331 860 l 331 794 l 265 794 l 265 728 l 198 728 l 198 661 l 132 661 l 132 794 m 132 132 l 198 132 l 198 397 l 66 397 l 66 463 l 132 463 l 132 529 l 265 529 l 265 463 l 331 463 l 331 132 l 463 132 l 463 397 l 397 397 l 397 463 l 463 463 l 463 529 l 595 529 l 595 463 l 661 463 l 661 397 l 595 397 l 595 132 l 728 132 l 728 66 l 661 66 l 661 0 l 529 0 l 529 66 l 397 66 l 397 0 l 265 0 l 265 66 l 132 66 l 132 132 z "},"ū":{"ha":728,"x_min":66,"x_max":728,"o":"m 198 794 l 463 794 l 463 661 l 198 661 l 198 794 m 132 132 l 198 132 l 198 397 l 66 397 l 66 463 l 132 463 l 132 529 l 265 529 l 265 463 l 331 463 l 331 132 l 463 132 l 463 397 l 397 397 l 397 463 l 463 463 l 463 529 l 595 529 l 595 463 l 661 463 l 661 397 l 595 397 l 595 132 l 728 132 l 728 66 l 661 66 l 661 0 l 529 0 l 529 66 l 397 66 l 397 0 l 265 0 l 265 66 l 132 66 l 132 132 z "},"ų":{"ha":728,"x_min":66,"x_max":728,"o":"m 132 132 l 198 132 l 198 397 l 66 397 l 66 463 l 132 463 l 132 529 l 265 529 l 265 463 l 331 463 l 331 132 l 463 132 l 463 397 l 397 397 l 397 463 l 463 463 l 463 529 l 595 529 l 595 463 l 661 463 l 661 397 l 595 397 l 595 132 l 728 132 l 728 66 l 661 66 l 661 0 l 595 0 l 595 -66 l 529 -66 l 529 66 l 397 66 l 397 0 l 265 0 l 265 66 l 132 66 l 132 132 m 463 -66 l 529 -66 l 529 -132 l 595 -132 l 595 -198 l 463 -198 l 463 -66 z "},"ů":{"ha":728,"x_min":66,"x_max":728,"o":"m 265 860 l 463 860 l 463 661 l 265 661 l 265 860 m 132 132 l 198 132 l 198 397 l 66 397 l 66 463 l 132 463 l 132 529 l 265 529 l 265 463 l 331 463 l 331 132 l 463 132 l 463 397 l 397 397 l 397 463 l 463 463 l 463 529 l 595 529 l 595 463 l 661 463 l 661 397 l 595 397 l 595 132 l 728 132 l 728 66 l 661 66 l 661 0 l 529 0 l 529 66 l 397 66 l 397 0 l 265 0 l 265 66 l 132 66 l 132 132 m 397 794 l 331 794 l 331 728 l 397 728 l 397 794 z "},"v":{"ha":661,"x_min":66,"x_max":661,"o":"m 132 132 l 198 132 l 198 397 l 132 397 l 132 463 l 66 463 l 66 529 l 265 529 l 265 463 l 331 463 l 331 132 l 463 132 l 463 397 l 397 397 l 397 463 l 331 463 l 331 529 l 529 529 l 529 463 l 661 463 l 661 397 l 595 397 l 595 132 l 529 132 l 529 66 l 397 66 l 397 0 l 265 0 l 265 66 l 132 66 l 132 132 z "},"w":{"ha":926,"x_min":66,"x_max":926,"o":"m 132 132 l 198 132 l 198 397 l 132 397 l 132 463 l 66 463 l 66 529 l 265 529 l 265 463 l 331 463 l 331 132 l 397 132 l 397 66 l 331 66 l 331 0 l 198 0 l 198 66 l 132 66 l 132 132 m 529 66 l 463 66 l 463 397 l 397 397 l 397 463 l 331 463 l 331 529 l 529 529 l 529 463 l 595 463 l 595 132 l 728 132 l 728 397 l 661 397 l 661 463 l 595 463 l 595 529 l 794 529 l 794 463 l 926 463 l 926 397 l 860 397 l 860 132 l 794 132 l 794 66 l 661 66 l 661 0 l 529 0 l 529 66 z "},"ẃ":{"ha":926,"x_min":66,"x_max":926,"o":"m 397 794 l 463 794 l 463 860 l 595 860 l 595 794 l 529 794 l 529 728 l 463 728 l 463 661 l 397 661 l 397 794 m 132 132 l 198 132 l 198 397 l 132 397 l 132 463 l 66 463 l 66 529 l 265 529 l 265 463 l 331 463 l 331 132 l 397 132 l 397 66 l 331 66 l 331 0 l 198 0 l 198 66 l 132 66 l 132 132 m 529 66 l 463 66 l 463 397 l 397 397 l 397 463 l 331 463 l 331 529 l 529 529 l 529 463 l 595 463 l 595 132 l 728 132 l 728 397 l 661 397 l 661 463 l 595 463 l 595 529 l 794 529 l 794 463 l 926 463 l 926 397 l 860 397 l 860 132 l 794 132 l 794 66 l 661 66 l 661 0 l 529 0 l 529 66 z "},"ŵ":{"ha":926,"x_min":66,"x_max":926,"o":"m 331 728 l 397 728 l 397 794 l 463 794 l 463 860 l 529 860 l 529 794 l 595 794 l 595 728 l 661 728 l 661 661 l 529 661 l 529 728 l 463 728 l 463 661 l 331 661 l 331 728 m 132 132 l 198 132 l 198 397 l 132 397 l 132 463 l 66 463 l 66 529 l 265 529 l 265 463 l 331 463 l 331 132 l 397 132 l 397 66 l 331 66 l 331 0 l 198 0 l 198 66 l 132 66 l 132 132 m 529 66 l 463 66 l 463 397 l 397 397 l 397 463 l 331 463 l 331 529 l 529 529 l 529 463 l 595 463 l 595 132 l 728 132 l 728 397 l 661 397 l 661 463 l 595 463 l 595 529 l 794 529 l 794 463 l 926 463 l 926 397 l 860 397 l 860 132 l 794 132 l 794 66 l 661 66 l 661 0 l 529 0 l 529 66 z "},"ẅ":{"ha":926,"x_min":66,"x_max":926,"o":"m 529 794 l 661 794 l 661 661 l 529 661 l 529 794 m 331 794 l 463 794 l 463 661 l 331 661 l 331 794 m 132 132 l 198 132 l 198 397 l 132 397 l 132 463 l 66 463 l 66 529 l 265 529 l 265 463 l 331 463 l 331 132 l 397 132 l 397 66 l 331 66 l 331 0 l 198 0 l 198 66 l 132 66 l 132 132 m 529 66 l 463 66 l 463 397 l 397 397 l 397 463 l 331 463 l 331 529 l 529 529 l 529 463 l 595 463 l 595 132 l 728 132 l 728 397 l 661 397 l 661 463 l 595 463 l 595 529 l 794 529 l 794 463 l 926 463 l 926 397 l 860 397 l 860 132 l 794 132 l 794 66 l 661 66 l 661 0 l 529 0 l 529 66 z "},"ẁ":{"ha":926,"x_min":66,"x_max":926,"o":"m 397 860 l 529 860 l 529 794 l 595 794 l 595 661 l 529 661 l 529 728 l 463 728 l 463 794 l 397 794 l 397 860 m 132 132 l 198 132 l 198 397 l 132 397 l 132 463 l 66 463 l 66 529 l 265 529 l 265 463 l 331 463 l 331 132 l 397 132 l 397 66 l 331 66 l 331 0 l 198 0 l 198 66 l 132 66 l 132 132 m 529 66 l 463 66 l 463 397 l 397 397 l 397 463 l 331 463 l 331 529 l 529 529 l 529 463 l 595 463 l 595 132 l 728 132 l 728 397 l 661 397 l 661 463 l 595 463 l 595 529 l 794 529 l 794 463 l 926 463 l 926 397 l 860 397 l 860 132 l 794 132 l 794 66 l 661 66 l 661 0 l 529 0 l 529 66 z "},"x":{"ha":661,"x_min":66,"x_max":661,"o":"m 132 66 l 198 66 l 198 132 l 265 132 l 265 397 l 132 397 l 132 463 l 198 463 l 198 529 l 331 529 l 331 463 l 397 463 l 397 132 l 463 132 l 463 0 l 331 0 l 331 66 l 265 66 l 265 0 l 132 0 l 132 66 m 463 463 l 397 463 l 397 529 l 529 529 l 529 463 l 595 463 l 595 397 l 463 397 l 463 463 m 595 529 l 661 529 l 661 463 l 595 463 l 595 529 m 463 198 l 529 198 l 529 132 l 463 132 l 463 198 m 66 132 l 132 132 l 132 66 l 66 66 l 66 132 z "},"y":{"ha":661,"x_min":66,"x_max":661,"o":"m 66 0 l 132 0 l 132 66 l 198 66 l 198 397 l 66 397 l 66 463 l 132 463 l 132 529 l 265 529 l 265 463 l 397 463 l 397 529 l 529 529 l 529 463 l 661 463 l 661 397 l 595 397 l 595 132 l 529 132 l 529 0 l 265 0 l 265 -66 l 132 -66 l 132 -132 l 66 -132 l 66 0 m 132 -132 l 331 -132 l 331 -66 l 529 -66 l 529 -132 l 463 -132 l 463 -198 l 132 -198 l 132 -132 m 331 66 l 463 66 l 463 132 l 397 132 l 397 198 l 463 198 l 463 397 l 331 397 l 331 66 z "},"ý":{"ha":661,"x_min":66,"x_max":661,"o":"m 265 794 l 331 794 l 331 860 l 463 860 l 463 794 l 397 794 l 397 728 l 331 728 l 331 661 l 265 661 l 265 794 m 331 66 l 463 66 l 463 132 l 397 132 l 397 198 l 463 198 l 463 397 l 331 397 l 331 66 m 132 -132 l 331 -132 l 331 -66 l 529 -66 l 529 -132 l 463 -132 l 463 -198 l 132 -198 l 132 -132 m 66 0 l 132 0 l 132 66 l 198 66 l 198 397 l 66 397 l 66 463 l 132 463 l 132 529 l 265 529 l 265 463 l 397 463 l 397 529 l 529 529 l 529 463 l 661 463 l 661 397 l 595 397 l 595 132 l 529 132 l 529 0 l 265 0 l 265 -66 l 132 -66 l 132 -132 l 66 -132 l 66 0 z "},"ŷ":{"ha":661,"x_min":66,"x_max":661,"o":"m 198 728 l 265 728 l 265 794 l 331 794 l 331 860 l 397 860 l 397 794 l 463 794 l 463 728 l 529 728 l 529 661 l 397 661 l 397 728 l 331 728 l 331 661 l 198 661 l 198 728 m 331 66 l 463 66 l 463 132 l 397 132 l 397 198 l 463 198 l 463 397 l 331 397 l 331 66 m 132 -132 l 331 -132 l 331 -66 l 529 -66 l 529 -132 l 463 -132 l 463 -198 l 132 -198 l 132 -132 m 66 0 l 132 0 l 132 66 l 198 66 l 198 397 l 66 397 l 66 463 l 132 463 l 132 529 l 265 529 l 265 463 l 397 463 l 397 529 l 529 529 l 529 463 l 661 463 l 661 397 l 595 397 l 595 132 l 529 132 l 529 0 l 265 0 l 265 -66 l 132 -66 l 132 -132 l 66 -132 l 66 0 z "},"ÿ":{"ha":661,"x_min":66,"x_max":661,"o":"m 397 794 l 529 794 l 529 661 l 397 661 l 397 794 m 198 794 l 331 794 l 331 661 l 198 661 l 198 794 m 331 66 l 463 66 l 463 132 l 397 132 l 397 198 l 463 198 l 463 397 l 331 397 l 331 66 m 132 -132 l 331 -132 l 331 -66 l 529 -66 l 529 -132 l 463 -132 l 463 -198 l 132 -198 l 132 -132 m 66 0 l 132 0 l 132 66 l 198 66 l 198 397 l 66 397 l 66 463 l 132 463 l 132 529 l 265 529 l 265 463 l 397 463 l 397 529 l 529 529 l 529 463 l 661 463 l 661 397 l 595 397 l 595 132 l 529 132 l 529 0 l 265 0 l 265 -66 l 132 -66 l 132 -132 l 66 -132 l 66 0 z "},"ỳ":{"ha":661,"x_min":66,"x_max":661,"o":"m 265 860 l 397 860 l 397 794 l 463 794 l 463 661 l 397 661 l 397 728 l 331 728 l 331 794 l 265 794 l 265 860 m 331 66 l 463 66 l 463 132 l 397 132 l 397 198 l 463 198 l 463 397 l 331 397 l 331 66 m 132 -132 l 331 -132 l 331 -66 l 529 -66 l 529 -132 l 463 -132 l 463 -198 l 132 -198 l 132 -132 m 66 0 l 132 0 l 132 66 l 198 66 l 198 397 l 66 397 l 66 463 l 132 463 l 132 529 l 265 529 l 265 463 l 397 463 l 397 529 l 529 529 l 529 463 l 661 463 l 661 397 l 595 397 l 595 132 l 529 132 l 529 0 l 265 0 l 265 -66 l 132 -66 l 132 -132 l 66 -132 l 66 0 z "},"z":{"ha":595,"x_min":66,"x_max":595,"o":"m 66 463 l 132 463 l 132 529 l 397 529 l 397 463 l 529 463 l 529 397 l 463 397 l 463 331 l 397 331 l 397 397 l 132 397 l 132 331 l 66 331 l 66 463 m 529 529 l 595 529 l 595 463 l 529 463 l 529 529 m 331 331 l 397 331 l 397 265 l 331 265 l 331 331 m 265 265 l 331 265 l 331 198 l 265 198 l 265 265 m 132 132 l 198 132 l 198 198 l 265 198 l 265 132 l 529 132 l 529 198 l 595 198 l 595 66 l 529 66 l 529 0 l 265 0 l 265 66 l 132 66 l 132 132 m 66 66 l 132 66 l 132 0 l 66 0 l 66 66 z "},"ź":{"ha":595,"x_min":66,"x_max":595,"o":"m 265 794 l 331 794 l 331 860 l 463 860 l 463 794 l 397 794 l 397 728 l 331 728 l 331 661 l 265 661 l 265 794 m 529 529 l 595 529 l 595 463 l 529 463 l 529 529 m 66 463 l 132 463 l 132 529 l 397 529 l 397 463 l 529 463 l 529 397 l 463 397 l 463 331 l 397 331 l 397 397 l 132 397 l 132 331 l 66 331 l 66 463 m 331 331 l 397 331 l 397 265 l 331 265 l 331 331 m 265 265 l 331 265 l 331 198 l 265 198 l 265 265 m 132 132 l 198 132 l 198 198 l 265 198 l 265 132 l 529 132 l 529 198 l 595 198 l 595 66 l 529 66 l 529 0 l 265 0 l 265 66 l 132 66 l 132 132 m 66 66 l 132 66 l 132 0 l 66 0 l 66 66 z "},"ž":{"ha":595,"x_min":66,"x_max":595,"o":"m 331 661 l 331 728 l 265 728 l 265 794 l 198 794 l 198 860 l 331 860 l 331 794 l 397 794 l 397 860 l 529 860 l 529 794 l 463 794 l 463 728 l 397 728 l 397 661 l 331 661 m 66 463 l 132 463 l 132 529 l 397 529 l 397 463 l 529 463 l 529 397 l 463 397 l 463 331 l 397 331 l 397 397 l 132 397 l 132 331 l 66 331 l 66 463 m 529 529 l 595 529 l 595 463 l 529 463 l 529 529 m 331 331 l 397 331 l 397 265 l 331 265 l 331 331 m 265 265 l 331 265 l 331 198 l 265 198 l 265 265 m 132 132 l 198 132 l 198 198 l 265 198 l 265 132 l 529 132 l 529 198 l 595 198 l 595 66 l 529 66 l 529 0 l 265 0 l 265 66 l 132 66 l 132 132 m 66 66 l 132 66 l 132 0 l 66 0 l 66 66 z "},"ż":{"ha":595,"x_min":66,"x_max":595,"o":"m 265 794 l 397 794 l 397 661 l 265 661 l 265 794 m 66 463 l 132 463 l 132 529 l 397 529 l 397 463 l 529 463 l 529 397 l 463 397 l 463 331 l 397 331 l 397 397 l 132 397 l 132 331 l 66 331 l 66 463 m 529 529 l 595 529 l 595 463 l 529 463 l 529 529 m 331 331 l 397 331 l 397 265 l 331 265 l 331 331 m 265 265 l 331 265 l 331 198 l 265 198 l 265 265 m 132 132 l 198 132 l 198 198 l 265 198 l 265 132 l 529 132 l 529 198 l 595 198 l 595 66 l 529 66 l 529 0 l 265 0 l 265 66 l 132 66 l 132 132 m 66 66 l 132 66 l 132 0 l 66 0 l 66 66 z "},"ª":{"ha":595,"x_min":66,"x_max":595,"o":"m 66 132 l 132 132 l 132 397 l 198 397 l 198 463 l 265 463 l 265 132 l 397 132 l 397 463 l 265 463 l 265 529 l 463 529 l 463 463 l 595 463 l 595 397 l 529 397 l 529 132 l 595 132 l 595 66 l 529 66 l 529 0 l 397 0 l 397 66 l 331 66 l 331 0 l 198 0 l 198 66 l 66 66 l 66 132 z "},"º":{"ha":595,"x_min":66,"x_max":595,"o":"m 66 132 l 132 132 l 132 397 l 198 397 l 198 463 l 265 463 l 265 132 l 397 132 l 397 397 l 331 397 l 331 463 l 265 463 l 265 529 l 463 529 l 463 463 l 595 463 l 595 397 l 529 397 l 529 132 l 463 132 l 463 66 l 331 66 l 331 0 l 198 0 l 198 66 l 66 66 l 66 132 z "}," ":{"ha":66,"x_min":0,"x_max":0,"o":""}," ":{"ha":331,"x_min":0,"x_max":0,"o":""}," ":{"ha":331,"x_min":0,"x_max":0,"o":""},".":{"ha":198,"x_min":66,"x_max":198,"o":"m 66 132 l 198 132 l 198 0 l 66 0 l 66 132 z "},",":{"ha":198,"x_min":66,"x_max":198,"o":"m 66 132 l 198 132 l 198 -66 l 132 -66 l 132 0 l 66 0 l 66 132 m 66 -66 l 132 -66 l 132 -132 l 66 -132 l 66 -66 z "},":":{"ha":198,"x_min":66,"x_max":198,"o":"m 66 595 l 198 595 l 198 463 l 66 463 l 66 595 m 66 132 l 198 132 l 198 0 l 66 0 l 66 132 z "},";":{"ha":198,"x_min":66,"x_max":198,"o":"m 66 595 l 198 595 l 198 463 l 66 463 l 66 595 m 66 132 l 198 132 l 198 -66 l 132 -66 l 132 0 l 66 0 l 66 132 m 66 -66 l 132 -66 l 132 -132 l 66 -132 l 66 -66 z "},"…":{"ha":728,"x_min":66,"x_max":728,"o":"m 66 132 l 198 132 l 198 0 l 66 0 l 66 132 m 331 132 l 463 132 l 463 0 l 331 0 l 331 132 m 595 132 l 728 132 l 728 0 l 595 0 l 595 132 z "},"!":{"ha":331,"x_min":66,"x_max":331,"o":"m 66 728 l 132 728 l 132 794 l 265 794 l 265 728 l 331 728 l 331 661 l 265 661 l 265 265 l 198 265 l 198 198 l 132 198 l 132 661 l 66 661 l 66 728 m 132 132 l 265 132 l 265 0 l 132 0 l 132 132 z "},"¡":{"ha":265,"x_min":0,"x_max":265,"o":"m 66 661 l 66 794 l 198 794 l 198 661 l 66 661 m 66 0 l 66 66 l 0 66 l 0 132 l 66 132 l 66 529 l 132 529 l 132 595 l 198 595 l 198 132 l 265 132 l 265 66 l 198 66 l 198 0 l 66 0 z "},"?":{"ha":397,"x_min":66,"x_max":397,"o":"m 132 397 l 198 397 l 198 463 l 265 463 l 265 595 l 198 595 l 198 661 l 132 661 l 132 595 l 66 595 l 66 728 l 132 728 l 132 794 l 331 794 l 331 728 l 397 728 l 397 463 l 331 463 l 331 397 l 265 397 l 265 265 l 198 265 l 198 198 l 132 198 l 132 397 m 132 132 l 265 132 l 265 0 l 132 0 l 132 132 z "},"¿":{"ha":397,"x_min":66,"x_max":397,"o":"m 331 661 l 198 661 l 198 794 l 331 794 l 331 661 m 132 66 l 66 66 l 66 331 l 132 331 l 132 397 l 198 397 l 198 529 l 265 529 l 265 595 l 331 595 l 331 397 l 265 397 l 265 331 l 198 331 l 198 198 l 265 198 l 265 132 l 331 132 l 331 198 l 397 198 l 397 66 l 331 66 l 331 0 l 132 0 l 132 66 z "},"·":{"ha":198,"x_min":66,"x_max":198,"o":"m 66 463 l 198 463 l 198 331 l 66 331 l 66 463 z "},"•":{"ha":397,"x_min":66,"x_max":397,"o":"m 198 265 l 132 265 l 132 331 l 66 331 l 66 397 l 132 397 l 132 463 l 198 463 l 198 529 l 265 529 l 265 463 l 331 463 l 331 397 l 397 397 l 397 331 l 331 331 l 331 265 l 265 265 l 265 198 l 198 198 l 198 265 z "},"*":{"ha":529,"x_min":66,"x_max":529,"o":"m 66 661 l 198 661 l 198 728 l 265 728 l 265 860 l 331 860 l 331 728 l 397 728 l 397 661 l 529 661 l 529 595 l 397 595 l 397 529 l 331 529 l 331 397 l 265 397 l 265 529 l 198 529 l 198 595 l 66 595 l 66 661 m 397 794 l 463 794 l 463 728 l 397 728 l 397 794 m 132 794 l 198 794 l 198 728 l 132 728 l 132 794 m 132 529 l 198 529 l 198 463 l 132 463 l 132 529 m 397 529 l 463 529 l 463 463 l 397 463 l 397 529 z "},"#":{"ha":926,"x_min":66,"x_max":926,"o":"m 595 463 l 463 463 l 463 397 l 397 397 l 397 331 l 595 331 l 595 463 m 66 265 l 132 265 l 132 331 l 331 331 l 331 463 l 132 463 l 132 529 l 198 529 l 198 595 l 463 595 l 463 728 l 529 728 l 529 860 l 595 860 l 595 661 l 529 661 l 529 595 l 728 595 l 728 728 l 794 728 l 794 860 l 860 860 l 860 661 l 794 661 l 794 595 l 926 595 l 926 529 l 860 529 l 860 463 l 728 463 l 728 397 l 661 397 l 661 331 l 860 331 l 860 265 l 794 265 l 794 198 l 595 198 l 595 132 l 529 132 l 529 0 l 463 0 l 463 198 l 331 198 l 331 132 l 265 132 l 265 0 l 198 0 l 198 198 l 66 198 l 66 265 z "},"/":{"ha":463,"x_min":66,"x_max":463,"o":"m 66 198 l 132 198 l 132 331 l 198 331 l 198 463 l 265 463 l 265 595 l 331 595 l 331 728 l 397 728 l 397 860 l 463 860 l 463 661 l 397 661 l 397 529 l 331 529 l 331 397 l 265 397 l 265 265 l 198 265 l 198 132 l 132 132 l 132 0 l 66 0 l 66 198 z "},"\\":{"ha":463,"x_min":66,"x_max":463,"o":"m 397 132 l 331 132 l 331 265 l 265 265 l 265 397 l 198 397 l 198 529 l 132 529 l 132 661 l 66 661 l 66 860 l 132 860 l 132 728 l 198 728 l 198 595 l 265 595 l 265 463 l 331 463 l 331 331 l 397 331 l 397 198 l 463 198 l 463 0 l 397 0 l 397 132 z "},"-":{"ha":463,"x_min":66,"x_max":463,"o":"m 66 331 l 132 331 l 132 397 l 463 397 l 463 331 l 397 331 l 397 265 l 66 265 l 66 331 z "},"–":{"ha":661,"x_min":66,"x_max":661,"o":"m 66 331 l 132 331 l 132 397 l 661 397 l 661 331 l 595 331 l 595 265 l 66 265 l 66 331 z "},"—":{"ha":926,"x_min":66,"x_max":926,"o":"m 66 331 l 132 331 l 132 397 l 926 397 l 926 331 l 860 331 l 860 265 l 66 265 l 66 331 z "},"_":{"ha":661,"x_min":66,"x_max":661,"o":"m 66 -66 l 132 -66 l 132 0 l 661 0 l 661 -66 l 595 -66 l 595 -132 l 66 -132 l 66 -66 z "},"(":{"ha":397,"x_min":66,"x_max":397,"o":"m 198 265 l 265 265 l 265 132 l 331 132 l 331 0 l 265 0 l 265 -66 l 198 -66 l 198 66 l 132 66 l 132 198 l 66 198 l 66 463 l 132 463 l 132 595 l 198 595 l 198 728 l 265 728 l 265 794 l 331 794 l 331 860 l 397 860 l 397 728 l 331 728 l 331 661 l 265 661 l 265 529 l 198 529 l 198 265 z "},")":{"ha":397,"x_min":66,"x_max":397,"o":"m 66 66 l 132 66 l 132 132 l 198 132 l 198 265 l 265 265 l 265 529 l 198 529 l 198 661 l 132 661 l 132 794 l 198 794 l 198 860 l 265 860 l 265 728 l 331 728 l 331 595 l 397 595 l 397 331 l 331 331 l 331 198 l 265 198 l 265 66 l 198 66 l 198 0 l 132 0 l 132 -66 l 66 -66 l 66 66 z "},"{":{"ha":397,"x_min":66,"x_max":397,"o":"m 198 463 l 132 463 l 132 661 l 198 661 l 198 728 l 265 728 l 265 794 l 397 794 l 397 728 l 331 728 l 331 661 l 265 661 l 265 397 l 198 397 l 198 463 m 132 397 l 198 397 l 198 331 l 132 331 l 132 397 m 66 331 l 132 331 l 132 265 l 66 265 l 66 331 m 132 265 l 198 265 l 198 198 l 132 198 l 132 265 m 132 132 l 198 132 l 198 198 l 265 198 l 265 -66 l 331 -66 l 331 -132 l 397 -132 l 397 -198 l 265 -198 l 265 -132 l 198 -132 l 198 -66 l 132 -66 l 132 132 z "},"}":{"ha":397,"x_min":66,"x_max":397,"o":"m 265 463 l 265 397 l 198 397 l 198 661 l 132 661 l 132 728 l 66 728 l 66 794 l 198 794 l 198 728 l 265 728 l 265 661 l 331 661 l 331 463 l 265 463 m 331 397 l 331 331 l 265 331 l 265 397 l 331 397 m 397 331 l 397 265 l 331 265 l 331 331 l 397 331 m 331 265 l 331 198 l 265 198 l 265 265 l 331 265 m 198 -132 l 198 -198 l 66 -198 l 66 -132 l 132 -132 l 132 -66 l 198 -66 l 198 198 l 265 198 l 265 132 l 331 132 l 331 -66 l 265 -66 l 265 -132 l 198 -132 z "},"[":{"ha":331,"x_min":66,"x_max":331,"o":"m 66 860 l 331 860 l 331 794 l 198 794 l 198 -66 l 331 -66 l 331 -132 l 66 -132 l 66 860 z "},"]":{"ha":331,"x_min":66,"x_max":331,"o":"m 66 -66 l 198 -66 l 198 794 l 66 794 l 66 860 l 331 860 l 331 -132 l 66 -132 l 66 -66 z "},"‚":{"ha":198,"x_min":66,"x_max":198,"o":"m 66 132 l 198 132 l 198 -66 l 132 -66 l 132 0 l 66 0 l 66 132 m 66 -66 l 132 -66 l 132 -132 l 66 -132 l 66 -66 z "},"„":{"ha":397,"x_min":66,"x_max":397,"o":"m 265 132 l 397 132 l 397 -66 l 331 -66 l 331 0 l 265 0 l 265 132 m 66 132 l 198 132 l 198 -66 l 132 -66 l 132 0 l 66 0 l 66 132 m 265 -66 l 331 -66 l 331 -132 l 265 -132 l 265 -66 m 66 -66 l 132 -66 l 132 -132 l 66 -132 l 66 -66 z "},"“":{"ha":397,"x_min":66,"x_max":397,"o":"m 198 728 l 132 728 l 132 794 l 198 794 l 198 728 m 397 728 l 331 728 l 331 794 l 397 794 l 397 728 m 198 529 l 66 529 l 66 728 l 132 728 l 132 661 l 198 661 l 198 529 m 397 529 l 265 529 l 265 728 l 331 728 l 331 661 l 397 661 l 397 529 z "},"”":{"ha":397,"x_min":66,"x_max":397,"o":"m 66 794 l 198 794 l 198 595 l 132 595 l 132 661 l 66 661 l 66 794 m 265 794 l 397 794 l 397 595 l 331 595 l 331 661 l 265 661 l 265 794 m 66 595 l 132 595 l 132 529 l 66 529 l 66 595 m 265 595 l 331 595 l 331 529 l 265 529 l 265 595 z "},"‘":{"ha":198,"x_min":66,"x_max":198,"o":"m 198 728 l 132 728 l 132 794 l 198 794 l 198 728 m 198 529 l 66 529 l 66 728 l 132 728 l 132 661 l 198 661 l 198 529 z "},"’":{"ha":198,"x_min":66,"x_max":198,"o":"m 66 794 l 198 794 l 198 595 l 132 595 l 132 661 l 66 661 l 66 794 m 66 595 l 132 595 l 132 529 l 66 529 l 66 595 z "},"«":{"ha":595,"x_min":66,"x_max":595,"o":"m 331 397 l 198 397 l 198 463 l 265 463 l 265 529 l 331 529 l 331 397 m 595 397 l 463 397 l 463 463 l 529 463 l 529 529 l 595 529 l 595 397 m 265 132 l 198 132 l 198 198 l 132 198 l 132 265 l 66 265 l 66 331 l 132 331 l 132 397 l 198 397 l 198 331 l 265 331 l 265 265 l 331 265 l 331 198 l 265 198 l 265 132 m 529 132 l 463 132 l 463 198 l 397 198 l 397 265 l 331 265 l 331 331 l 397 331 l 397 397 l 463 397 l 463 331 l 529 331 l 529 265 l 595 265 l 595 198 l 529 198 l 529 132 z "},"»":{"ha":595,"x_min":66,"x_max":595,"o":"m 132 397 l 66 397 l 66 463 l 132 463 l 132 529 l 198 529 l 198 463 l 265 463 l 265 397 l 331 397 l 331 331 l 265 331 l 265 265 l 198 265 l 198 331 l 132 331 l 132 397 m 397 397 l 331 397 l 331 463 l 397 463 l 397 529 l 463 529 l 463 463 l 529 463 l 529 397 l 595 397 l 595 331 l 529 331 l 529 265 l 463 265 l 463 331 l 397 331 l 397 397 m 66 265 l 198 265 l 198 198 l 132 198 l 132 132 l 66 132 l 66 265 m 331 265 l 463 265 l 463 198 l 397 198 l 397 132 l 331 132 l 331 265 z "},"‹":{"ha":331,"x_min":66,"x_max":331,"o":"m 331 397 l 198 397 l 198 463 l 265 463 l 265 529 l 331 529 l 331 397 m 265 132 l 198 132 l 198 198 l 132 198 l 132 265 l 66 265 l 66 331 l 132 331 l 132 397 l 198 397 l 198 331 l 265 331 l 265 265 l 331 265 l 331 198 l 265 198 l 265 132 z "},"›":{"ha":331,"x_min":66,"x_max":331,"o":"m 132 397 l 66 397 l 66 463 l 132 463 l 132 529 l 198 529 l 198 463 l 265 463 l 265 397 l 331 397 l 331 331 l 265 331 l 265 265 l 198 265 l 198 331 l 132 331 l 132 397 m 66 265 l 198 265 l 198 198 l 132 198 l 132 132 l 66 132 l 66 265 z "},"\"":{"ha":397,"x_min":66,"x_max":397,"o":"m 66 794 l 198 794 l 198 595 l 132 595 l 132 529 l 66 529 l 66 794 m 265 794 l 397 794 l 397 595 l 331 595 l 331 529 l 265 529 l 265 794 z "},"'":{"ha":198,"x_min":66,"x_max":198,"o":"m 66 794 l 198 794 l 198 595 l 132 595 l 132 529 l 66 529 l 66 794 z "},"@":{"ha":992,"x_min":66,"x_max":992,"o":"m 331 728 l 728 728 l 728 661 l 331 661 l 331 728 m 728 661 l 860 661 l 860 595 l 728 595 l 728 661 m 198 661 l 331 661 l 331 595 l 198 595 l 198 661 m 860 595 l 926 595 l 926 463 l 860 463 l 860 595 m 132 595 l 198 595 l 198 463 l 132 463 l 132 595 m 265 132 l 331 132 l 331 397 l 397 397 l 397 463 l 463 463 l 463 132 l 595 132 l 595 463 l 463 463 l 463 529 l 661 529 l 661 463 l 794 463 l 794 397 l 728 397 l 728 132 l 860 132 l 860 66 l 728 66 l 728 0 l 595 0 l 595 66 l 529 66 l 529 0 l 397 0 l 397 66 l 265 66 l 265 132 m 992 198 l 926 198 l 926 463 l 992 463 l 992 198 m 132 66 l 66 66 l 66 463 l 132 463 l 132 66 m 860 198 l 926 198 l 926 132 l 860 132 l 860 198 m 132 66 l 198 66 l 198 -66 l 132 -66 l 132 66 m 198 -66 l 331 -66 l 331 -132 l 198 -132 l 198 -66 m 794 -66 l 860 -66 l 860 -132 l 794 -132 l 794 -66 m 331 -132 l 794 -132 l 794 -198 l 331 -198 l 331 -132 z "},"&":{"ha":860,"x_min":66,"x_max":860,"o":"m 397 728 l 265 728 l 265 794 l 463 794 l 463 728 l 529 728 l 529 661 l 595 661 l 595 595 l 463 595 l 463 661 l 397 661 l 397 728 m 463 198 l 529 198 l 529 265 l 463 265 l 463 331 l 397 331 l 397 397 l 331 397 l 331 463 l 265 463 l 265 529 l 198 529 l 198 595 l 132 595 l 132 661 l 198 661 l 198 728 l 265 728 l 265 661 l 331 661 l 331 595 l 397 595 l 397 529 l 463 529 l 463 463 l 529 463 l 529 397 l 595 397 l 595 265 l 661 265 l 661 198 l 728 198 l 728 132 l 794 132 l 794 66 l 728 66 l 728 0 l 661 0 l 661 66 l 595 66 l 595 132 l 463 132 l 463 198 m 595 728 l 661 728 l 661 661 l 595 661 l 595 728 m 198 463 l 265 463 l 265 397 l 198 397 l 198 463 m 132 132 l 66 132 l 66 265 l 132 265 l 132 397 l 198 397 l 198 198 l 265 198 l 265 132 l 463 132 l 463 66 l 397 66 l 397 0 l 198 0 l 198 66 l 132 66 l 132 132 m 794 198 l 860 198 l 860 132 l 794 132 l 794 198 z "},"¶":{"ha":463,"x_min":66,"x_max":463,"o":"m 66 661 l 132 661 l 132 728 l 198 728 l 198 794 l 331 794 l 331 -132 l 265 -132 l 265 397 l 198 397 l 198 463 l 132 463 l 132 529 l 66 529 l 66 661 m 397 794 l 463 794 l 463 -132 l 397 -132 l 397 794 z "},"§":{"ha":595,"x_min":66,"x_max":595,"o":"m 397 661 l 331 661 l 331 728 l 265 728 l 265 794 l 463 794 l 463 728 l 529 728 l 529 661 l 463 661 l 463 595 l 397 595 l 397 661 m 397 397 l 331 397 l 331 463 l 198 463 l 198 595 l 132 595 l 132 661 l 198 661 l 198 728 l 265 728 l 265 661 l 331 661 l 331 595 l 397 595 l 397 529 l 463 529 l 463 463 l 529 463 l 529 397 l 595 397 l 595 331 l 529 331 l 529 265 l 463 265 l 463 331 l 397 331 l 397 397 m 265 198 l 198 198 l 198 265 l 132 265 l 132 331 l 66 331 l 66 397 l 132 397 l 132 463 l 198 463 l 198 397 l 265 397 l 265 331 l 331 331 l 331 265 l 463 265 l 463 132 l 529 132 l 529 66 l 463 66 l 463 0 l 397 0 l 397 66 l 331 66 l 331 132 l 265 132 l 265 198 m 132 66 l 198 66 l 198 132 l 265 132 l 265 66 l 331 66 l 331 0 l 397 0 l 397 -66 l 198 -66 l 198 0 l 132 0 l 132 66 z "},"©":{"ha":992,"x_min":66,"x_max":992,"o":"m 331 794 l 728 794 l 728 728 l 331 728 l 331 794 m 728 728 l 860 728 l 860 661 l 728 661 l 728 728 m 198 728 l 331 728 l 331 661 l 198 661 l 198 728 m 860 661 l 926 661 l 926 529 l 860 529 l 860 661 m 132 661 l 198 661 l 198 529 l 132 529 l 132 661 m 463 595 l 661 595 l 661 463 l 529 463 l 529 529 l 463 529 l 463 595 m 992 132 l 926 132 l 926 529 l 992 529 l 992 132 m 132 132 l 66 132 l 66 529 l 132 529 l 132 132 m 397 132 l 331 132 l 331 463 l 397 463 l 397 529 l 463 529 l 463 198 l 529 198 l 529 132 l 595 132 l 595 66 l 397 66 l 397 132 m 595 198 l 661 198 l 661 132 l 595 132 l 595 198 m 860 132 l 926 132 l 926 0 l 860 0 l 860 132 m 132 132 l 198 132 l 198 0 l 132 0 l 132 132 m 728 0 l 860 0 l 860 -66 l 728 -66 l 728 0 m 198 0 l 331 0 l 331 -66 l 198 -66 l 198 0 m 331 -66 l 728 -66 l 728 -132 l 331 -132 l 331 -66 z "},"®":{"ha":595,"x_min":66,"x_max":595,"o":"m 198 860 l 463 860 l 463 794 l 198 794 l 198 860 m 132 794 l 198 794 l 198 728 l 132 728 l 132 794 m 463 794 l 529 794 l 529 728 l 463 728 l 463 794 m 66 728 l 132 728 l 132 463 l 66 463 l 66 728 m 529 728 l 595 728 l 595 463 l 529 463 l 529 728 m 265 661 l 198 661 l 198 728 l 397 728 l 397 661 l 331 661 l 331 595 l 397 595 l 397 529 l 265 529 l 265 661 m 397 661 l 463 661 l 463 595 l 397 595 l 397 661 m 397 529 l 463 529 l 463 463 l 397 463 l 397 529 m 198 529 l 265 529 l 265 463 l 198 463 l 198 529 m 463 463 l 529 463 l 529 397 l 463 397 l 463 463 m 132 463 l 198 463 l 198 397 l 132 397 l 132 463 m 198 397 l 463 397 l 463 331 l 198 331 l 198 397 z "},"™":{"ha":1918,"x_min":66,"x_max":1918,"o":"m 1058 397 l 1190 397 l 1190 463 l 1058 463 l 1058 529 l 1190 529 l 1190 661 l 1058 661 l 1058 728 l 926 728 l 926 794 l 1124 794 l 1124 728 l 1190 728 l 1190 794 l 1257 794 l 1257 728 l 1389 728 l 1389 794 l 1521 794 l 1521 728 l 1653 728 l 1653 794 l 1786 794 l 1786 728 l 1918 728 l 1918 661 l 1852 661 l 1852 132 l 1918 132 l 1918 66 l 1852 66 l 1852 0 l 1786 0 l 1786 66 l 1720 66 l 1720 661 l 1587 661 l 1587 463 l 1653 463 l 1653 397 l 1587 397 l 1587 132 l 1653 132 l 1653 66 l 1587 66 l 1587 0 l 1455 0 l 1455 66 l 1389 66 l 1389 132 l 1455 132 l 1455 397 l 1389 397 l 1389 463 l 1455 463 l 1455 661 l 1323 661 l 1323 265 l 1257 265 l 1257 198 l 1190 198 l 1190 331 l 1058 331 l 1058 397 m 529 198 l 595 198 l 595 331 l 463 331 l 463 397 l 595 397 l 595 463 l 463 463 l 463 529 l 595 529 l 595 595 l 661 595 l 661 661 l 463 661 l 463 728 l 198 728 l 198 794 l 661 794 l 661 728 l 926 728 l 926 661 l 860 661 l 860 132 l 794 132 l 794 661 l 728 661 l 728 198 l 661 198 l 661 132 l 529 132 l 529 198 m 132 728 l 198 728 l 198 661 l 132 661 l 132 728 m 66 661 l 132 661 l 132 595 l 66 595 l 66 661 m 265 661 l 331 661 l 331 595 l 265 595 l 265 661 m 331 198 l 265 198 l 265 529 l 331 529 l 331 595 l 463 595 l 463 529 l 397 529 l 397 198 l 463 198 l 463 132 l 529 132 l 529 66 l 728 66 l 728 0 l 463 0 l 463 66 l 331 66 l 331 198 m 265 529 l 132 529 l 132 595 l 265 595 l 265 529 m 992 132 l 1124 132 l 1124 198 l 1190 198 l 1190 132 l 1323 132 l 1323 66 l 1257 66 l 1257 0 l 1124 0 l 1124 66 l 992 66 l 992 132 m 1323 198 l 1389 198 l 1389 132 l 1323 132 l 1323 198 m 728 132 l 794 132 l 794 66 l 728 66 l 728 132 z "},"°":{"ha":331,"x_min":66,"x_max":331,"o":"m 198 728 l 132 728 l 132 794 l 265 794 l 265 728 l 331 728 l 331 529 l 265 529 l 265 661 l 198 661 l 198 728 m 132 529 l 66 529 l 66 728 l 132 728 l 132 595 l 198 595 l 198 529 l 265 529 l 265 463 l 132 463 l 132 529 z "},"|":{"ha":198,"x_min":66,"x_max":198,"o":"m 66 794 l 132 794 l 132 860 l 198 860 l 198 -132 l 132 -132 l 132 -198 l 66 -198 l 66 794 z "},"¢":{"ha":529,"x_min":66,"x_max":529,"o":"m 265 595 l 463 595 l 463 529 l 529 529 l 529 463 l 397 463 l 397 529 l 265 529 l 265 595 m 265 66 l 198 66 l 198 132 l 132 132 l 132 265 l 66 265 l 66 331 l 132 331 l 132 463 l 198 463 l 198 529 l 265 529 l 265 331 l 397 331 l 397 265 l 265 265 l 265 66 m 265 66 l 397 66 l 397 132 l 529 132 l 529 66 l 463 66 l 463 0 l 265 0 l 265 66 z "},"$":{"ha":529,"x_min":66,"x_max":529,"o":"m 463 595 l 529 595 l 529 463 l 463 463 l 463 595 m 463 397 l 529 397 l 529 331 l 463 331 l 463 397 m 132 132 l 198 132 l 198 198 l 132 198 l 132 397 l 198 397 l 198 463 l 265 463 l 265 529 l 331 529 l 331 661 l 397 661 l 397 463 l 463 463 l 463 397 l 265 397 l 265 265 l 331 265 l 331 198 l 265 198 l 265 132 l 397 132 l 397 265 l 331 265 l 331 331 l 463 331 l 463 265 l 529 265 l 529 132 l 463 132 l 463 66 l 397 66 l 397 -132 l 331 -132 l 331 0 l 265 0 l 265 66 l 132 66 l 132 132 m 66 66 l 132 66 l 132 0 l 66 0 l 66 66 z "},"€":{"ha":529,"x_min":66,"x_max":529,"o":"m 66 265 l 132 265 l 132 331 l 66 331 l 66 397 l 132 397 l 132 463 l 198 463 l 198 529 l 265 529 l 265 595 l 463 595 l 463 529 l 529 529 l 529 463 l 463 463 l 463 397 l 397 397 l 397 463 l 265 463 l 265 397 l 397 397 l 397 331 l 265 331 l 265 265 l 397 265 l 397 198 l 265 198 l 265 132 l 463 132 l 463 66 l 397 66 l 397 0 l 265 0 l 265 66 l 198 66 l 198 132 l 132 132 l 132 198 l 66 198 l 66 265 m 463 198 l 529 198 l 529 132 l 463 132 l 463 198 m 132 66 l 198 66 l 198 0 l 132 0 l 132 66 z "},"£":{"ha":529,"x_min":66,"x_max":529,"o":"m 66 66 l 132 66 l 132 265 l 66 265 l 66 331 l 132 331 l 132 463 l 198 463 l 198 529 l 265 529 l 265 595 l 463 595 l 463 529 l 529 529 l 529 463 l 463 463 l 463 397 l 397 397 l 397 463 l 265 463 l 265 331 l 397 331 l 397 265 l 265 265 l 265 132 l 529 132 l 529 66 l 463 66 l 463 0 l 66 0 l 66 66 z "},"¥":{"ha":661,"x_min":66,"x_max":661,"o":"m 198 132 l 331 132 l 331 198 l 265 198 l 265 265 l 198 265 l 198 463 l 66 463 l 66 529 l 132 529 l 132 595 l 265 595 l 265 529 l 397 529 l 397 595 l 529 595 l 529 529 l 661 529 l 661 463 l 595 463 l 595 265 l 529 265 l 529 198 l 463 198 l 463 132 l 595 132 l 595 66 l 463 66 l 463 0 l 331 0 l 331 66 l 198 66 l 198 132 m 331 265 l 463 265 l 463 331 l 397 331 l 397 397 l 463 397 l 463 463 l 331 463 l 331 265 z "},"+":{"ha":595,"x_min":66,"x_max":595,"o":"m 66 331 l 132 331 l 132 397 l 265 397 l 265 529 l 331 529 l 331 595 l 397 595 l 397 397 l 595 397 l 595 331 l 529 331 l 529 265 l 397 265 l 397 132 l 331 132 l 331 66 l 265 66 l 265 265 l 66 265 l 66 331 z "},"−":{"ha":595,"x_min":66,"x_max":595,"o":"m 66 331 l 132 331 l 132 397 l 595 397 l 595 331 l 529 331 l 529 265 l 66 265 l 66 331 z "},"×":{"ha":463,"x_min":66,"x_max":463,"o":"m 265 265 l 198 265 l 198 331 l 132 331 l 132 397 l 66 397 l 66 463 l 132 463 l 132 529 l 198 529 l 198 463 l 265 463 l 265 397 l 331 397 l 331 331 l 397 331 l 397 265 l 463 265 l 463 198 l 397 198 l 397 132 l 331 132 l 331 198 l 265 198 l 265 265 m 331 463 l 397 463 l 397 529 l 463 529 l 463 397 l 331 397 l 331 463 m 66 265 l 198 265 l 198 198 l 132 198 l 132 132 l 66 132 l 66 265 z "},"÷":{"ha":595,"x_min":66,"x_max":595,"o":"m 265 595 l 397 595 l 397 463 l 265 463 l 265 595 m 66 331 l 132 331 l 132 397 l 595 397 l 595 331 l 529 331 l 529 265 l 66 265 l 66 331 m 265 198 l 397 198 l 397 66 l 265 66 l 265 198 z "},"=":{"ha":595,"x_min":66,"x_max":595,"o":"m 66 463 l 132 463 l 132 529 l 595 529 l 595 463 l 529 463 l 529 397 l 66 397 l 66 463 m 66 198 l 132 198 l 132 265 l 595 265 l 595 198 l 529 198 l 529 132 l 66 132 l 66 198 z "},">":{"ha":529,"x_min":66,"x_max":529,"o":"m 66 198 l 198 198 l 198 265 l 331 265 l 331 397 l 198 397 l 198 463 l 66 463 l 66 595 l 198 595 l 198 529 l 331 529 l 331 463 l 463 463 l 463 397 l 529 397 l 529 265 l 463 265 l 463 198 l 331 198 l 331 132 l 198 132 l 198 66 l 66 66 l 66 198 z "},"<":{"ha":529,"x_min":66,"x_max":529,"o":"m 397 265 l 397 198 l 529 198 l 529 66 l 397 66 l 397 132 l 265 132 l 265 198 l 132 198 l 132 265 l 66 265 l 66 397 l 132 397 l 132 463 l 265 463 l 265 529 l 397 529 l 397 595 l 529 595 l 529 463 l 397 463 l 397 397 l 265 397 l 265 265 l 397 265 z "},"~":{"ha":529,"x_min":66,"x_max":529,"o":"m 265 397 l 198 397 l 198 463 l 132 463 l 132 529 l 331 529 l 331 463 l 397 463 l 397 397 l 463 397 l 463 331 l 265 331 l 265 397 m 463 463 l 529 463 l 529 397 l 463 397 l 463 463 m 66 463 l 132 463 l 132 397 l 66 397 l 66 463 z "},"^":{"ha":595,"x_min":66,"x_max":595,"o":"m 66 595 l 132 595 l 132 661 l 198 661 l 198 728 l 265 728 l 265 794 l 397 794 l 397 728 l 463 728 l 463 661 l 529 661 l 529 595 l 595 595 l 595 529 l 463 529 l 463 595 l 397 595 l 397 661 l 265 661 l 265 595 l 198 595 l 198 529 l 66 529 l 66 595 z "},"%":{"ha":728,"x_min":132,"x_max":728,"o":"m 397 397 l 331 397 l 331 529 l 265 529 l 265 595 l 198 595 l 198 661 l 331 661 l 331 595 l 397 595 l 397 397 m 132 132 l 198 132 l 198 198 l 265 198 l 265 265 l 331 265 l 331 331 l 397 331 l 397 397 l 463 397 l 463 463 l 529 463 l 529 529 l 595 529 l 595 595 l 661 595 l 661 661 l 728 661 l 728 529 l 661 529 l 661 463 l 595 463 l 595 397 l 529 397 l 529 331 l 463 331 l 463 265 l 397 265 l 397 198 l 331 198 l 331 132 l 265 132 l 265 66 l 198 66 l 198 0 l 132 0 l 132 132 m 331 331 l 198 331 l 198 397 l 132 397 l 132 595 l 198 595 l 198 463 l 265 463 l 265 397 l 331 397 l 331 331 m 595 265 l 529 265 l 529 331 l 661 331 l 661 265 l 728 265 l 728 66 l 661 66 l 661 198 l 595 198 l 595 265 m 529 132 l 595 132 l 595 66 l 661 66 l 661 0 l 529 0 l 529 66 l 463 66 l 463 265 l 529 265 l 529 132 z "},"̈":{"ha":0,"x_min":0,"x_max":331,"o":"m 0 794 l 132 794 l 132 661 l 0 661 l 0 794 m 198 794 l 331 794 l 331 661 l 198 661 l 198 794 z "},"̇":{"ha":0,"x_min":0,"x_max":132,"o":"m 0 794 l 132 794 l 132 661 l 0 661 l 0 794 z "},"̀":{"ha":0,"x_min":0,"x_max":198,"o":"m 0 860 l 132 860 l 132 794 l 198 794 l 198 661 l 132 661 l 132 728 l 66 728 l 66 794 l 0 794 l 0 860 z "},"́":{"ha":0,"x_min":0,"x_max":198,"o":"m 0 794 l 66 794 l 66 860 l 198 860 l 198 794 l 132 794 l 132 728 l 66 728 l 66 661 l 0 661 l 0 794 z "},"̋":{"ha":0,"x_min":0,"x_max":397,"o":"m 0 794 l 66 794 l 66 860 l 198 860 l 198 794 l 132 794 l 132 728 l 66 728 l 66 661 l 0 661 l 0 794 m 198 794 l 265 794 l 265 860 l 397 860 l 397 794 l 331 794 l 331 728 l 265 728 l 265 661 l 198 661 l 198 794 z "},"̂":{"ha":0,"x_min":0,"x_max":331,"o":"m 0 728 l 66 728 l 66 794 l 132 794 l 132 860 l 198 860 l 198 794 l 265 794 l 265 728 l 331 728 l 331 661 l 198 661 l 198 728 l 132 728 l 132 661 l 0 661 l 0 728 z "},"̌":{"ha":0,"x_min":0,"x_max":331,"o":"m 132 661 l 132 728 l 66 728 l 66 794 l 0 794 l 0 860 l 132 860 l 132 794 l 198 794 l 198 860 l 331 860 l 331 794 l 265 794 l 265 728 l 198 728 l 198 661 l 132 661 z "},"̆":{"ha":0,"x_min":0,"x_max":331,"o":"m 0 860 l 66 860 l 66 794 l 265 794 l 265 860 l 331 860 l 331 728 l 265 728 l 265 661 l 66 661 l 66 728 l 0 728 l 0 860 z "},"̊":{"ha":0,"x_min":0,"x_max":198,"o":"m 132 794 l 66 794 l 66 728 l 132 728 l 132 794 m 0 860 l 198 860 l 198 661 l 0 661 l 0 860 z "},"̃":{"ha":0,"x_min":0,"x_max":331,"o":"m 0 794 l 66 794 l 66 860 l 132 860 l 132 794 l 198 794 l 198 860 l 331 860 l 331 728 l 265 728 l 265 661 l 198 661 l 198 728 l 132 728 l 132 661 l 0 661 l 0 794 z "},"̄":{"ha":0,"x_min":0,"x_max":265,"o":"m 0 794 l 265 794 l 265 661 l 0 661 l 0 794 z "},"̒":{"ha":0,"x_min":0,"x_max":132,"o":"m 132 860 l 66 860 l 66 926 l 132 926 l 132 860 m 132 661 l 0 661 l 0 860 l 66 860 l 66 794 l 132 794 l 132 661 z "},"̦":{"ha":0,"x_min":0,"x_max":132,"o":"m 0 -66 l 132 -66 l 132 -265 l 66 -265 l 66 -198 l 0 -198 l 0 -66 m 0 -265 l 66 -265 l 66 -331 l 0 -331 l 0 -265 z "},"̧":{"ha":0,"x_min":0,"x_max":132,"o":"m 0 0 l 132 0 l 132 -132 l 66 -132 l 66 -66 l 0 -66 l 0 0 m 0 -132 l 66 -132 l 66 -198 l 0 -198 l 0 -132 z "},"̨":{"ha":0,"x_min":0,"x_max":132,"o":"m 66 0 l 132 0 l 132 -66 l 66 -66 l 66 0 m 0 -66 l 66 -66 l 66 -132 l 132 -132 l 132 -198 l 0 -198 l 0 -66 z "},"¨":{"ha":331,"x_min":0,"x_max":331,"o":"m 0 794 l 132 794 l 132 661 l 0 661 l 0 794 m 198 794 l 331 794 l 331 661 l 198 661 l 198 794 z "},"˙":{"ha":132,"x_min":0,"x_max":132,"o":"m 0 794 l 132 794 l 132 661 l 0 661 l 0 794 z "},"`":{"ha":198,"x_min":0,"x_max":198,"o":"m 0 860 l 132 860 l 132 794 l 198 794 l 198 661 l 132 661 l 132 728 l 66 728 l 66 794 l 0 794 l 0 860 z "},"´":{"ha":198,"x_min":0,"x_max":198,"o":"m 0 794 l 66 794 l 66 860 l 198 860 l 198 794 l 132 794 l 132 728 l 66 728 l 66 661 l 0 661 l 0 794 z "},"˝":{"ha":397,"x_min":0,"x_max":397,"o":"m 0 794 l 66 794 l 66 860 l 198 860 l 198 794 l 132 794 l 132 728 l 66 728 l 66 661 l 0 661 l 0 794 m 198 794 l 265 794 l 265 860 l 397 860 l 397 794 l 331 794 l 331 728 l 265 728 l 265 661 l 198 661 l 198 794 z "},"ˆ":{"ha":331,"x_min":0,"x_max":331,"o":"m 0 728 l 66 728 l 66 794 l 132 794 l 132 860 l 198 860 l 198 794 l 265 794 l 265 728 l 331 728 l 331 661 l 198 661 l 198 728 l 132 728 l 132 661 l 0 661 l 0 728 z "},"ˇ":{"ha":331,"x_min":0,"x_max":331,"o":"m 132 661 l 132 728 l 66 728 l 66 794 l 0 794 l 0 860 l 132 860 l 132 794 l 198 794 l 198 860 l 331 860 l 331 794 l 265 794 l 265 728 l 198 728 l 198 661 l 132 661 z "},"˘":{"ha":331,"x_min":0,"x_max":331,"o":"m 0 860 l 66 860 l 66 794 l 265 794 l 265 860 l 331 860 l 331 728 l 265 728 l 265 661 l 66 661 l 66 728 l 0 728 l 0 860 z "},"˚":{"ha":198,"x_min":0,"x_max":198,"o":"m 132 794 l 66 794 l 66 728 l 132 728 l 132 794 m 0 860 l 198 860 l 198 661 l 0 661 l 0 860 z "},"˜":{"ha":331,"x_min":0,"x_max":331,"o":"m 0 794 l 66 794 l 66 860 l 132 860 l 132 794 l 198 794 l 198 860 l 331 860 l 331 728 l 265 728 l 265 661 l 198 661 l 198 728 l 132 728 l 132 661 l 0 661 l 0 794 z "},"¯":{"ha":265,"x_min":0,"x_max":265,"o":"m 0 794 l 265 794 l 265 661 l 0 661 l 0 794 z "},"¸":{"ha":132,"x_min":0,"x_max":132,"o":"m 0 0 l 132 0 l 132 -132 l 66 -132 l 66 -66 l 0 -66 l 0 0 m 0 -132 l 66 -132 l 66 -198 l 0 -198 l 0 -132 z "},"˛":{"ha":132,"x_min":0,"x_max":132,"o":"m 66 0 l 132 0 l 132 -66 l 66 -66 l 66 0 m 0 -66 l 66 -66 l 66 -132 l 132 -132 l 132 -198 l 0 -198 l 0 -66 z "}}}
